{
.appVersion = "909";
copyright = "Copyright (c) 2011 by Vernon Adams. All rights reserved.";
customParameters = (
{
name = description;
value = "Copyright (c) 2011 by vernon adams. All rights reserved.";
},
{
name = license;
value = "SIL Open Font License, Version 1.1\012\012This Font Software is licensed under the SIL Open Font License, Version 1.1.\012\012This license is available with a FAQ at: http://scripts.sil.org/OFL";
},
{
name = licenseURL;
value = "http://scripts.sil.org/OFL";
},
{
name = vendorID;
value = newt;
}
);
date = "2016-07-18 14:51:28 +0000";
designer = "Vernon Adams";
familyName = Pacifico;
featurePrefixes = (
{
automatic = 1;
code = "languagesystem DFLT dflt;\012";
name = Languagesystems;
}
);
features = (
{
automatic = 1;
code = "feature sups;\012feature frac;\012feature ordn;\012feature fina;\012feature salt;\012feature ss01;\012";
name = aalt;
},
{
automatic = 1;
code = "sub one by onesuperior;\012sub two by twosuperior;\012sub three by threesuperior;\012sub four by foursuperior;\012";
name = sups;
},
{
automatic = 1;
code = "sub one slash four by onequarter;\012sub one slash two by onehalf;\012sub three slash four by threequarters;\012";
name = frac;
},
{
automatic = 1;
code = "sub [zero one two three four five six seven eight nine] [A a]' by ordfeminine;\012sub [zero one two three four five six seven eight nine] [O o]' by ordmasculine;\012";
name = ordn;
},
{
automatic = 1;
code = "sub eth by eth.fina;\012sub o by o.fina;\012sub p by p.fina;\012sub q by q.fina;\012sub r by r.fina;\012sub s by s.fina;\012sub schwa by schwa.fina;\012sub v by v.fina;\012sub w by w.fina;\012";
name = fina;
},
{
automatic = 1;
code = "sub lslash lslash by lslash_lslash;\012";
name = dlig;
},
{
code = "sub f i by fi;\012sub f l by fl;\012sub lslash lslash by lslash_lslash;";
name = liga;
},
{
automatic = 1;

glyphs = (
{
color = 3;
glyphname = A;
lastChange = "2016-07-22 21:29:10 +0000";
layers = (
{
background = {
paths = (
{
closed = 1;
nodes = (
"438 -5 OFFCURVE",
"516 83 OFFCURVE",
"569 237 CURVE",
"672 606 LINE",
"598 628 LINE",
"522 247 OFFCURVE",
"457 116 OFFCURVE",
"338 116 CURVE SMOOTH",
"270 116 OFFCURVE",
"217 167 OFFCURVE",
"217 290 CURVE SMOOTH",
"217 514 OFFCURVE",
"346 728 OFFCURVE",
"618 728 CURVE SMOOTH",
"665 728 OFFCURVE",
"711 722 OFFCURVE",
"775 705 CURVE SMOOTH",
"866 681 OFFCURVE",
"893 791 OFFCURVE",
"833 814 CURVE SMOOTH",
"768 839 OFFCURVE",
"697 848 OFFCURVE",
"630 848 CURVE SMOOTH",
"255 848 OFFCURVE",
"65 576 OFFCURVE",
"65 280 CURVE SMOOTH",
"65 102 OFFCURVE",
"166 -5 OFFCURVE",
"312 -5 CURVE SMOOTH"
);
},
{
closed = 1;
nodes = (
"780 -4 OFFCURVE",
"848 40 OFFCURVE",
"905 120 CURVE SMOOTH",
"954 189 OFFCURVE",
"913 262 OFFCURVE",
"869 209 CURVE SMOOTH",
"813 142 OFFCURVE",
"779 114 OFFCURVE",
"736 114 CURVE SMOOTH",
"696 114 OFFCURVE",
"674 144 OFFCURVE",
"674 217 CURVE SMOOTH",
"674 305 OFFCURVE",
"714 496 OFFCURVE",
"743 610 CURVE SMOOTH",
"757 665 OFFCURVE",
"719 682 OFFCURVE",
"678 682 CURVE SMOOTH",
"638 682 OFFCURVE",
"606 669 OFFCURVE",
"598 628 CURVE",
"527 207 LINE",
"524 80 OFFCURVE",
"578 -6 OFFCURVE",
"697 -5 CURVE SMOOTH"
);
},
{
closed = 1;
nodes = (
"796 -4 OFFCURVE",
"867 40 OFFCURVE",
"924 120 CURVE SMOOTH",
"973 189 OFFCURVE",
"932 262 OFFCURVE",
"888 209 CURVE SMOOTH",
"832 142 OFFCURVE",
"795 114 OFFCURVE",
"746 114 CURVE SMOOTH",
"699 114 OFFCURVE",
"674 144 OFFCURVE",
"674 217 CURVE SMOOTH",
"674 305 OFFCURVE",
"713 496 OFFCURVE",
"743 610 CURVE SMOOTH",
"757 665 OFFCURVE",
"719 682 OFFCURVE",
"678 682 CURVE SMOOTH",
"638 682 OFFCURVE",
"606 669 OFFCURVE",
"598 628 CURVE",
"527 207 LINE",
"524 80 OFFCURVE",
"581 -6 OFFCURVE",
"707 -5 CURVE SMOOTH"
);
}
);
};
layerId = "ECEFE970-1BBB-4E0A-A452-CEB55884B4A3";
paths = (
{
closed = 1;
nodes = (
"438 -5 OFFCURVE",
"516 83 OFFCURVE",
"569 237 CURVE",
"672 606 LINE",
"598 628 LINE",
"522 247 OFFCURVE",
"457 116 OFFCURVE",
"338 116 CURVE SMOOTH",
"270 116 OFFCURVE",
"217 167 OFFCURVE",
"217 290 CURVE SMOOTH",
"217 514 OFFCURVE",
"346 728 OFFCURVE",
"618 728 CURVE SMOOTH",
"665 728 OFFCURVE",
"711 722 OFFCURVE",
"775 705 CURVE SMOOTH",
"866 680 OFFCURVE",
"893 791 OFFCURVE",
"833 814 CURVE SMOOTH",
"768 838 OFFCURVE",
"697 848 OFFCURVE",
"630 848 CURVE SMOOTH",
"255 848 OFFCURVE",
"65 576 OFFCURVE",
"65 280 CURVE SMOOTH",
"65 102 OFFCURVE",
"166 -5 OFFCURVE",
"312 -5 CURVE SMOOTH"
);
},
{
closed = 1;
nodes = (
"780 -4 OFFCURVE",
"848 40 OFFCURVE",
"905 120 CURVE SMOOTH",
"954 189 OFFCURVE",
"913 262 OFFCURVE",
"869 209 CURVE SMOOTH",
"813 142 OFFCURVE",
"779 114 OFFCURVE",
"736 114 CURVE SMOOTH",
"696 114 OFFCURVE",
"674 144 OFFCURVE",
"674 217 CURVE SMOOTH",
"674 305 OFFCURVE",
"714 496 OFFCURVE",
"743 610 CURVE SMOOTH",
"757 665 OFFCURVE",
"719 682 OFFCURVE",
"678 682 CURVE SMOOTH",
"638 682 OFFCURVE",
"606 669 OFFCURVE",
"598 628 CURVE",
"527 207 LINE",
"524 80 OFFCURVE",
"578 -6 OFFCURVE",
"697 -5 CURVE SMOOTH"
);
}
);
width = 790;
}
);
note = A;
unicode = 0041;
},
{
color = 3;
glyphname = AE;
lastChange = "2016-07-22 14:24:35 +0000";
layers = (
{
background = {
paths = (
{
closed = 1;
nodes = (
"434 -4 OFFCURVE",
"523 64 OFFCURVE",
"577 237 CURVE",
"675 626 LINE",
"552 431 LINE",
"494 220 OFFCURVE",
"430 117 OFFCURVE",
"334 117 CURVE SMOOTH",
"266 117 OFFCURVE",
"213 167 OFFCURVE",
"213 290 CURVE SMOOTH",
"213 514 OFFCURVE",
"333 698 OFFCURVE",
"564 726 CURVE SMOOTH",
"621 733 OFFCURVE",
"643 855 OFFCURVE",
"526 841 CURVE SMOOTH",
"242 807 OFFCURVE",
"61 576 OFFCURVE",
"61 280 CURVE SMOOTH",
"61 97 OFFCURVE",
"162 -4 OFFCURVE",
"311 -4 CURVE SMOOTH"
);
},
{
closed = 1;
nodes = (
"1055 712 OFFCURVE",
"1085 746 OFFCURVE",
"1085 787 CURVE SMOOTH",
"1085 824 OFFCURVE",
"1060 849 OFFCURVE",
"1001 849 CURVE SMOOTH",
"925 849 OFFCURVE",
"855 845 OFFCURVE",
"801 842 CURVE SMOOTH",
"714 837 OFFCURVE",
"653 801 OFFCURVE",
"623 691 CURVE SMOOTH",
"552 431 LINE",
"543 264 LINE",
"532 108 OFFCURVE",
"619 -5 OFFCURVE",
"849 -5 CURVE SMOOTH",
"895 -5 OFFCURVE",
"960 5 OFFCURVE",
"1020 22 CURVE SMOOTH",
"1128 53 OFFCURVE",
"1128 170 OFFCURVE",
"1028 149 CURVE SMOOTH",
"975 138 OFFCURVE",
"921 125 OFFCURVE",
"867 125 CURVE SMOOTH",
"689 125 OFFCURVE",
"668 223 OFFCURVE",
"698 355 CURVE",
"807 357 OFFCURVE",
"855 358 OFFCURVE",
"933 361 CURVE SMOOTH",
"996 363 OFFCURVE",
"1019 390 OFFCURVE",
"1019 436 CURVE SMOOTH",
"1019 464 OFFCURVE",
"1004 490 OFFCURVE",
"955 490 CURVE SMOOTH",
"884 490 OFFCURVE",
"811 486 OFFCURVE",
"722 483 CURVE",
"738 556 OFFCURVE",
"760 643 OFFCURVE",
"780 703 CURVE",
"821 708 OFFCURVE",
"921 712 OFFCURVE",
"973 712 CURVE SMOOTH"
);
}
);
};
guideLines = (
{
angle = 254.6088;
position = "{599, 602}";
}
);
layerId = "ECEFE970-1BBB-4E0A-A452-CEB55884B4A3";
paths = (
{
closed = 1;
nodes = (
"434 -4 OFFCURVE",
"525 64 OFFCURVE",
"579 237 CURVE",
"675 626 LINE",
"552 431 LINE",
"494 220 OFFCURVE",
"430 117 OFFCURVE",
"332 117 CURVE SMOOTH",
"266 117 OFFCURVE",
"213 167 OFFCURVE",
"213 290 CURVE SMOOTH",
"213 514 OFFCURVE",
"333 698 OFFCURVE",
"564 726 CURVE SMOOTH",
"621 733 OFFCURVE",
"643 857 OFFCURVE",
"526 843 CURVE SMOOTH",
"242 809 OFFCURVE",
"61 576 OFFCURVE",
"61 280 CURVE SMOOTH",
"61 97 OFFCURVE",
"162 -4 OFFCURVE",
"311 -4 CURVE SMOOTH"
);
},
{
closed = 1;
nodes = (
"1055 720 OFFCURVE",
"1085 751 OFFCURVE",
"1085 787 CURVE SMOOTH",
"1085 824 OFFCURVE",
"1060 849 OFFCURVE",
"1001 849 CURVE SMOOTH",
"925 849 OFFCURVE",
"855 845 OFFCURVE",
"801 842 CURVE SMOOTH",
"714 837 OFFCURVE",
"653 801 OFFCURVE",
"623 691 CURVE SMOOTH",
"552 431 LINE",
"543 264 LINE",
"537 121 OFFCURVE",
"619 -5 OFFCURVE",
"844 -5 CURVE SMOOTH",
"935 -5 OFFCURVE",
"1018 20 OFFCURVE",
"1094 59 CURVE SMOOTH",
"1178 102 OFFCURVE",
"1175 199 OFFCURVE",
"1096 174 CURVE SMOOTH",
"1025 151 OFFCURVE",
"951 120 OFFCURVE",
"867 120 CURVE SMOOTH",
"700 120 OFFCURVE",
"664 212 OFFCURVE",
"698 361 CURVE",
"807 363 OFFCURVE",
"855 365 OFFCURVE",
"933 367 CURVE SMOOTH",
"996 369 OFFCURVE",
"1019 396 OFFCURVE",
"1019 436 CURVE SMOOTH",
"1019 464 OFFCURVE",
"1004 490 OFFCURVE",
"955 490 CURVE SMOOTH",
"884 490 OFFCURVE",
"811 486 OFFCURVE",
"722 483 CURVE",
"738 556 OFFCURVE",
"760 651 OFFCURVE",
"780 713 CURVE",
"821 716 OFFCURVE",
"921 720 OFFCURVE",
"973 720 CURVE SMOOTH"
);
}
);
width = 1019;
}
);
note = AE;
unicode = 00C6;
},
{
color = 3;
glyphname = B;
lastChange = "2016-07-22 11:25:02 +0000";
layers = (
{
background = {
paths = (
{
closed = 1;
nodes = (
"2404 -6 OFFCURVE",
"2659 70 OFFCURVE",
"2659 251 CURVE SMOOTH",
"2659 328 OFFCURVE",
"2624 367 OFFCURVE",
"2517 420 CURVE",
"2516 389 LINE",
"2673 418 OFFCURVE",
"2767 504 OFFCURVE",
"2767 625 CURVE SMOOTH",
"2767 789 OFFCURVE",
"2582 845 OFFCURVE",
"2405 845 CURVE SMOOTH",
"2225 845 OFFCURVE",
"2019 765 OFFCURVE",
"1906 637 CURVE SMOOTH",
"1891 620 OFFCURVE",
"1881 604 OFFCURVE",
"1881 593 CURVE SMOOTH",
"1881 574 OFFCURVE",
"1905 562 OFFCURVE",
"1929 562 CURVE SMOOTH",
"1950 562 OFFCURVE",
"1972 571 OFFCURVE",
"1985 587 CURVE SMOOTH",
"2058 677 OFFCURVE",
"2200 761 OFFCURVE",
"2387 761 CURVE SMOOTH",
"2545 761 OFFCURVE",
"2636 694 OFFCURVE",
"2636 598 CURVE SMOOTH",
"2636 488 OFFCURVE",
"2525 449 OFFCURVE",
"2394 449 CURVE SMOOTH",
"2356 449 OFFCURVE",
"2313 427 OFFCURVE",
"2313 397 CURVE SMOOTH",
"2313 377 OFFCURVE",
"2336 369 OFFCURVE",
"2355 366 CURVE SMOOTH",
"2479 346 OFFCURVE",
"2526 286 OFFCURVE",
"2526 229 CURVE SMOOTH",
"2526 131 OFFCURVE",
"2415 78 OFFCURVE",
"2199 78 CURVE SMOOTH",
"2016 78 OFFCURVE",
"1951 114 OFFCURVE",
"1951 181 CURVE SMOOTH",
"1951 217 OFFCURVE",
"1978 248 OFFCURVE",
"2013 264 CURVE SMOOTH",
"2046 279 OFFCURVE",
"2036 340 OFFCURVE",
"1992 340 CURVE SMOOTH",
"1952 340 OFFCURVE",
"1869 276 OFFCURVE",
"1869 185 CURVE SMOOTH",
"1869 45 OFFCURVE",
"2010 -6 OFFCURVE",
"2187 -6 CURVE SMOOTH"
);
},
{
closed = 1;
nodes = (
"2150 -89 OFFCURVE",
"2193 -62 OFFCURVE",
"2193 -21 CURVE SMOOTH",
"2193 -14 OFFCURVE",
"2193 11 OFFCURVE",
"2193 38 CURVE SMOOTH",
"2193 171 OFFCURVE",
"2204 303 OFFCURVE",
"2227 433 CURVE SMOOTH",
"2239 500 OFFCURVE",
"2256 564 OFFCURVE",
"2276 629 CURVE SMOOTH",
"2282 648 OFFCURVE",
"2254 663 OFFCURVE",
"2231 663 CURVE SMOOTH",
"2194 663 OFFCURVE",
"2155 649 OFFCURVE",
"2143 614 CURVE SMOOTH",
"2121 550 OFFCURVE",
"2104 483 OFFCURVE",
"2094 414 CURVE",
"2079 337 OFFCURVE",
"2071 260 OFFCURVE",
"2066 182 CURVE SMOOTH",
"2062 122 OFFCURVE",
"2059 63 OFFCURVE",
"2059 5 CURVE SMOOTH",
"2059 -15 OFFCURVE",
"2060 -35 OFFCURVE",
"2060 -54 CURVE SMOOTH",
"2060 -84 OFFCURVE",
"2079 -89 OFFCURVE",
"2118 -89 CURVE SMOOTH"
);
},
{
closed = 1;
nodes = (
"1126 -4 LINE",
"1144 -5 OFFCURVE",
"1162 -8 OFFCURVE",
"1221 -8 CURVE SMOOTH",
"1510 -8 OFFCURVE",
"1659 93 OFFCURVE",
"1662 241 CURVE SMOOTH",
"1664 328 OFFCURVE",
"1606 385 OFFCURVE",
"1497 405 CURVE",
"1496 386 LINE",
"1684 414 OFFCURVE",
"1776 504 OFFCURVE",
"1777 625 CURVE SMOOTH",
"1778 772 OFFCURVE",
"1626 850 OFFCURVE",
"1414 850 CURVE SMOOTH",
"1249 850 OFFCURVE",
"1086 801 OFFCURVE",
"976 720 CURVE SMOOTH",
"889 656 OFFCURVE",
"931 559 OFFCURVE",
"1023 627 CURVE SMOOTH",
"1100 684 OFFCURVE",
"1237 741 OFFCURVE",
"1394 741 CURVE SMOOTH",
"1532 741 OFFCURVE",
"1622 694 OFFCURVE",
"1620 611 CURVE SMOOTH",
"1618 519 OFFCURVE",
"1521 465 OFFCURVE",
"1373 461 CURVE SMOOTH",
"1334 460 OFFCURVE",
"1315 429 OFFCURVE",
"1314 397 CURVE SMOOTH",
"1313 366 OFFCURVE",
"1323 353 OFFCURVE",
"1353 352 CURVE SMOOTH",
"1478 348 OFFCURVE",
"1507 296 OFFCURVE",
"1506 249 CURVE SMOOTH",
"1504 171 OFFCURVE",
"1437 101 OFFCURVE",
"1225 101 CURVE SMOOTH",
"1201 101 OFFCURVE",
"1153 106 OFFCURVE",
"1128 108 CURVE"
);
},
{
closed = 1;
nodes = (
"1143 -91 OFFCURVE",
"1187 -64 OFFCURVE",
"1187 -23 CURVE SMOOTH",
"1187 -16 OFFCURVE",
"1187 9 OFFCURVE",
"1187 36 CURVE SMOOTH",
"1187 226 OFFCURVE",
"1225 464 OFFCURVE",
"1264 582 CURVE SMOOTH",
"1279 628 OFFCURVE",
"1231 643 OFFCURVE",
"1208 643 CURVE SMOOTH",
"1161 643 OFFCURVE",
"1123 630 OFFCURVE",
"1114 594 CURVE SMOOTH",
"1066 402 OFFCURVE",
"1041 190 OFFCURVE",
"1035 -26 CURVE SMOOTH",
"1034 -65 OFFCURVE",
"1052 -91 OFFCURVE",
"1101 -91 CURVE SMOOTH"
);
},
{
closed = 1;
nodes = (
"226 7 LINE",
"244 6 OFFCURVE",
"262 3 OFFCURVE",
"321 3 CURVE SMOOTH",
"612 3 OFFCURVE",
"767 104 OFFCURVE",
"767 252 CURVE SMOOTH",
"767 338 OFFCURVE",
"705 394 OFFCURVE",
"597 414 CURVE",
"596 395 LINE",
"775 423 OFFCURVE",
"877 516 OFFCURVE",
"877 640 CURVE SMOOTH",
"877 765 OFFCURVE",
"754 862 OFFCURVE",
"514 862 CURVE SMOOTH",
"357 862 OFFCURVE",
"198 822 OFFCURVE",
"78 745 CURVE SMOOTH",
"-19 683 OFFCURVE",
"30 578 OFFCURVE",
"123 641 CURVE SMOOTH",
"202 694 OFFCURVE",
"341 744 OFFCURVE",
"493 744 CURVE SMOOTH",
"650 744 OFFCURVE",
"715 692 OFFCURVE",
"715 623 CURVE SMOOTH",
"715 529 OFFCURVE",
"607 474 OFFCURVE",
"473 470 CURVE SMOOTH",
"434 469 OFFCURVE",
"415 438 OFFCURVE",
"414 406 CURVE SMOOTH",
"413 375 OFFCURVE",
"423 362 OFFCURVE",
"453 361 CURVE SMOOTH",
"573 357 OFFCURVE",
"606 307 OFFCURVE",
"606 260 CURVE SMOOTH",
"606 181 OFFCURVE",
"536 112 OFFCURVE",
"325 112 CURVE SMOOTH",
"301 112 OFFCURVE",
"253 117 OFFCURVE",
"228 119 CURVE"
);
},
{
closed = 1;
nodes = (
"226 -52 OFFCURVE",
"273 -33 OFFCURVE",
"273 18 CURVE SMOOTH",
"273 25 OFFCURVE",
"274 20 OFFCURVE",
"275 47 CURVE SMOOTH",
"282 227 OFFCURVE",
"331 472 OFFCURVE",
"371 591 CURVE SMOOTH",
"373 597 OFFCURVE",
"374 603 OFFCURVE",
"374 608 CURVE SMOOTH",
"374 641 OFFCURVE",
"337 652 OFFCURVE",
"317 652 CURVE SMOOTH",
"270 652 OFFCURVE",
"228 639 OFFCURVE",
"218 603 CURVE SMOOTH",
"165 411 OFFCURVE",
"129 199 OFFCURVE",
"117 13 CURVE SMOOTH",
"114 -26 OFFCURVE",
"132 -52 OFFCURVE",
"184 -52 CURVE SMOOTH"
);
}
);
};
layerId = "ECEFE970-1BBB-4E0A-A452-CEB55884B4A3";
paths = (
{
closed = 1;
nodes = (
"226 7 LINE",
"244 6 OFFCURVE",
"262 3 OFFCURVE",
"321 3 CURVE SMOOTH",
"612 3 OFFCURVE",
"764 104 OFFCURVE",
"764 251 CURVE SMOOTH",
"764 338 OFFCURVE",
"703 394 OFFCURVE",
"597 414 CURVE",
"596 395 LINE",
"775 423 OFFCURVE",
"874 516 OFFCURVE",
"874 640 CURVE SMOOTH",
"874 765 OFFCURVE",
"754 862 OFFCURVE",
"514 862 CURVE SMOOTH",
"357 862 OFFCURVE",
"198 825 OFFCURVE",
"93 764 CURVE SMOOTH",
"43 735 OFFCURVE",
"25 704 OFFCURVE",
"25 675 CURVE SMOOTH",
"25 638 OFFCURVE",
"64 616 OFFCURVE",
"123 651 CURVE SMOOTH",
"202 698 OFFCURVE",
"341 744 OFFCURVE",
"493 744 CURVE SMOOTH",
"650 744 OFFCURVE",
"715 692 OFFCURVE",
"715 623 CURVE SMOOTH",
"715 529 OFFCURVE",
"607 474 OFFCURVE",
"473 470 CURVE SMOOTH",
"434 469 OFFCURVE",
"415 438 OFFCURVE",
"414 406 CURVE SMOOTH",
"413 375 OFFCURVE",
"423 362 OFFCURVE",
"453 361 CURVE SMOOTH",
"573 357 OFFCURVE",
"606 307 OFFCURVE",
"606 260 CURVE SMOOTH",
"606 181 OFFCURVE",
"536 112 OFFCURVE",
"325 112 CURVE SMOOTH",
"301 112 OFFCURVE",
"253 117 OFFCURVE",
"228 119 CURVE"
);
},
{
closed = 1;
nodes = (
"226 -52 OFFCURVE",
"273 -33 OFFCURVE",
"273 18 CURVE SMOOTH",
"273 25 OFFCURVE",
"274 20 OFFCURVE",
"275 47 CURVE SMOOTH",
"282 227 OFFCURVE",
"331 472 OFFCURVE",
"371 591 CURVE SMOOTH",
"373 597 OFFCURVE",
"374 603 OFFCURVE",
"374 608 CURVE SMOOTH",
"374 641 OFFCURVE",
"337 652 OFFCURVE",
"317 652 CURVE SMOOTH",
"270 652 OFFCURVE",
"228 639 OFFCURVE",
"218 603 CURVE SMOOTH",
"165 411 OFFCURVE",
"129 199 OFFCURVE",
"117 13 CURVE SMOOTH",
"114 -26 OFFCURVE",
"132 -52 OFFCURVE",
"184 -52 CURVE SMOOTH"
);
}
);
width = 827;
}
);
note = B;
unicode = 0042;
},
{
color = 3;
glyphname = C;
lastChange = "2016-07-22 12:26:58 +0000";
layers = (
{
background = {
paths = (
{
closed = 1;
nodes = (
"310 121 OFFCURVE",
"220 218 OFFCURVE",
"220 383 CURVE SMOOTH",
"220 604 OFFCURVE",
"357 730 OFFCURVE",
"481 730 CURVE SMOOTH",
"542 730 OFFCURVE",
"569 694 OFFCURVE",
"569 635 CURVE SMOOTH",
"569 611 OFFCURVE",
"559 584 OFFCURVE",
"559 562 CURVE SMOOTH",
"559 526 OFFCURVE",
"583 506 OFFCURVE",
"619 506 CURVE SMOOTH",
"686 506 OFFCURVE",
"714 567 OFFCURVE",
"714 646 CURVE SMOOTH",
"714 762 OFFCURVE",
"642 848 OFFCURVE",
"500 848 CURVE SMOOTH",
"276 848 OFFCURVE",
"69 663 OFFCURVE",
"69 361 CURVE SMOOTH",
"69 143 OFFCURVE",
"210 -5 OFFCURVE",
"455 -5 CURVE SMOOTH",
"568 -5 OFFCURVE",
"708 32 OFFCURVE",
"824 121 CURVE SMOOTH",
"883 166 OFFCURVE",
"856 263 OFFCURVE",
"787 218 CURVE SMOOTH",
"692 156 OFFCURVE",
"584 121 OFFCURVE",
"478 121 CURVE SMOOTH"
);
}
);
};
layerId = "ECEFE970-1BBB-4E0A-A452-CEB55884B4A3";
paths = (
{
closed = 1;
nodes = (
"310 119 OFFCURVE",
"220 221 OFFCURVE",
"220 383 CURVE SMOOTH",
"220 604 OFFCURVE",
"357 730 OFFCURVE",
"481 730 CURVE SMOOTH",
"542 730 OFFCURVE",
"569 694 OFFCURVE",
"569 635 CURVE SMOOTH",
"569 611 OFFCURVE",
"559 584 OFFCURVE",
"559 562 CURVE SMOOTH",
"559 526 OFFCURVE",
"583 506 OFFCURVE",
"619 506 CURVE SMOOTH",
"686 506 OFFCURVE",
"714 567 OFFCURVE",
"714 646 CURVE SMOOTH",
"714 762 OFFCURVE",
"642 848 OFFCURVE",
"500 848 CURVE SMOOTH",
"276 848 OFFCURVE",
"69 663 OFFCURVE",
"69 361 CURVE SMOOTH",
"69 146 OFFCURVE",
"210 -5 OFFCURVE",
"445 -5 CURVE SMOOTH",
"558 -5 OFFCURVE",
"688 29 OFFCURVE",
"804 121 CURVE SMOOTH",
"862 167 OFFCURVE",
"835 265 OFFCURVE",
"767 218 CURVE SMOOTH",
"672 152 OFFCURVE",
"568 119 OFFCURVE",
"468 119 CURVE SMOOTH"
);
}
);
width = 693;
}
);
note = C;
unicode = 0043;
},
{
color = 3;
glyphname = D;
lastChange = "2016-07-22 12:19:03 +0000";
layers = (
{
background = {
paths = (
{
closed = 1;
nodes = (
"1126 -52 OFFCURVE",
"1173 -33 OFFCURVE",
"1173 18 CURVE SMOOTH",
"1173 25 OFFCURVE",
"1174 20 OFFCURVE",
"1175 47 CURVE SMOOTH",
"1182 227 OFFCURVE",
"1231 472 OFFCURVE",
"1271 591 CURVE SMOOTH",
"1273 597 OFFCURVE",
"1274 603 OFFCURVE",
"1274 608 CURVE SMOOTH",
"1274 641 OFFCURVE",
"1237 652 OFFCURVE",
"1217 652 CURVE SMOOTH",
"1170 652 OFFCURVE",
"1128 639 OFFCURVE",
"1118 603 CURVE SMOOTH",
"1065 411 OFFCURVE",
"1031 199 OFFCURVE",
"1017 13 CURVE SMOOTH",
"1014 -26 OFFCURVE",
"1032 -52 OFFCURVE",
"1084 -52 CURVE SMOOTH"
);
},
{
closed = 1;
nodes = (
"1227 860 OFFCURVE",
"1098 830 OFFCURVE",
"993 764 CURVE SMOOTH",
"888 698 OFFCURVE",
"916 582 OFFCURVE",
"1023 651 CURVE SMOOTH",
"1102 702 OFFCURVE",
"1211 742 OFFCURVE",
"1333 742 CURVE SMOOTH",
"1492 742 OFFCURVE",
"1581 655 OFFCURVE",
"1581 480 CURVE SMOOTH",
"1581 255 OFFCURVE",
"1442 120 OFFCURVE",
"1235 120 CURVE SMOOTH",
"1201 120 OFFCURVE",
"1153 125 OFFCURVE",
"1128 127 CURVE",
"1126 7 LINE",
"1144 5 OFFCURVE",
"1162 1 OFFCURVE",
"1221 1 CURVE SMOOTH",
"1541 1 OFFCURVE",
"1730 217 OFFCURVE",
"1730 495 CURVE SMOOTH",
"1730 704 OFFCURVE",
"1606 860 OFFCURVE",
"1334 860 CURVE SMOOTH"
);
},
{
closed = 1;
nodes = (
"641 3 OFFCURVE",
"830 217 OFFCURVE",
"830 498 CURVE SMOOTH",
"830 714 OFFCURVE",
"704 860 OFFCURVE",
"454 860 CURVE SMOOTH",
"407 860 OFFCURVE",
"363 857 OFFCURVE",
"326 848 CURVE SMOOTH",
"298 841 OFFCURVE",
"277 823 OFFCURVE",
"269 798 CURVE SMOOTH",
"199 578 OFFCURVE",
"142 322 OFFCURVE",
"123 76 CURVE SMOOTH",
"120 37 OFFCURVE",
"137 20 OFFCURVE",
"190 13 CURVE SMOOTH",
"241 6 OFFCURVE",
"270 3 OFFCURVE",
"321 3 CURVE SMOOTH"
);
},
{
closed = 1;
nodes = (
"319 120 OFFCURVE",
"299 121 OFFCURVE",
"278 123 CURVE",
"294 315 OFFCURVE",
"357 577 OFFCURVE",
"408 741 CURVE",
"419 742 OFFCURVE",
"430 742 OFFCURVE",
"441 742 CURVE SMOOTH",
"594 742 OFFCURVE",
"681 665 OFFCURVE",
"681 483 CURVE SMOOTH",
"681 255 OFFCURVE",
"542 120 OFFCURVE",
"335 120 CURVE SMOOTH"
);
}
);
};
layerId = "ECEFE970-1BBB-4E0A-A452-CEB55884B4A3";
paths = (
{
closed = 1;
nodes = (
"327 860 OFFCURVE",
"198 830 OFFCURVE",
"93 764 CURVE SMOOTH",
"-12 698 OFFCURVE",
"16 582 OFFCURVE",
"123 651 CURVE SMOOTH",
"202 702 OFFCURVE",
"311 742 OFFCURVE",
"433 742 CURVE SMOOTH",
"589 742 OFFCURVE",
"681 655 OFFCURVE",
"681 476 CURVE SMOOTH",
"681 247 OFFCURVE",
"542 112 OFFCURVE",
"335 112 CURVE SMOOTH",
"319 112 OFFCURVE",
"298 113 OFFCURVE",
"278 115 CURVE",
"294 283 OFFCURVE",
"336 488 OFFCURVE",
"371 591 CURVE SMOOTH",
"373 597 OFFCURVE",
"374 603 OFFCURVE",
"374 608 CURVE SMOOTH",
"374 641 OFFCURVE",
"337 652 OFFCURVE",
"317 652 CURVE SMOOTH",
"270 652 OFFCURVE",
"228 639 OFFCURVE",
"218 603 CURVE SMOOTH",
"165 411 OFFCURVE",
"138 244 OFFCURVE",
"124 78 CURVE SMOOTH",
"120 29 OFFCURVE",
"137 12 OFFCURVE",
"190 5 CURVE SMOOTH",
"241 -2 OFFCURVE",
"270 -5 OFFCURVE",
"321 -5 CURVE SMOOTH",
"641 -5 OFFCURVE",
"830 209 OFFCURVE",
"830 491 CURVE SMOOTH",
"830 704 OFFCURVE",
"703 860 OFFCURVE",
"434 860 CURVE SMOOTH"
);
}
);
width = 841;
}
);
note = D;
unicode = 0044;
},
{
color = 3;
glyphname = Eth;
lastChange = "2016-07-22 19:45:03 +0000";
layers = (
{
background = {
paths = (
{
closed = 1;
nodes = (
"621 -5 OFFCURVE",
"810 209 OFFCURVE",
"810 494 CURVE SMOOTH",
"810 714 OFFCURVE",
"674 860 OFFCURVE",
"434 860 CURVE SMOOTH",
"387 860 OFFCURVE",
"343 857 OFFCURVE",
"306 848 CURVE SMOOTH",
"278 841 OFFCURVE",
"257 823 OFFCURVE",
"249 798 CURVE SMOOTH",
"177 579 OFFCURVE",
"123 314 OFFCURVE",
"104 78 CURVE SMOOTH",
"100 29 OFFCURVE",
"117 12 OFFCURVE",
"170 5 CURVE SMOOTH",
"221 -2 OFFCURVE",
"250 -5 OFFCURVE",
"301 -5 CURVE SMOOTH"
);
},
{
closed = 1;
nodes = (
"506 381 OFFCURVE",
"515 414 OFFCURVE",
"515 448 CURVE SMOOTH",
"515 484 OFFCURVE",
"496 503 OFFCURVE",
"406 503 CURVE SMOOTH",
"322 503 OFFCURVE",
"295 505 OFFCURVE",
"153 505 CURVE SMOOTH",
"69 505 OFFCURVE",
"30 484 OFFCURVE",
"30 429 CURVE SMOOTH",
"30 404 OFFCURVE",
"42 383 OFFCURVE",
"80 383 CURVE SMOOTH",
"136 383 OFFCURVE",
"158 384 OFFCURVE",
"250 384 CURVE SMOOTH",
"304 384 OFFCURVE",
"397 381 OFFCURVE",
"452 381 CURVE SMOOTH"
);
},
{
closed = 1;
nodes = (
"299 112 OFFCURVE",
"279 113 OFFCURVE",
"258 115 CURVE",
"274 307 OFFCURVE",
"337 577 OFFCURVE",
"388 741 CURVE",
"399 742 OFFCURVE",
"410 742 OFFCURVE",
"421 742 CURVE SMOOTH",
"564 742 OFFCURVE",
"661 665 OFFCURVE",
"661 479 CURVE SMOOTH",
"661 247 OFFCURVE",
"522 112 OFFCURVE",
"315 112 CURVE SMOOTH"
);
}
);
};
layerId = "ECEFE970-1BBB-4E0A-A452-CEB55884B4A3";
paths = (
{
closed = 1;
nodes = (
"626 -5 OFFCURVE",
"818 209 OFFCURVE",
"818 494 CURVE SMOOTH",
"818 714 OFFCURVE",
"679 860 OFFCURVE",
"439 860 CURVE SMOOTH",
"387 860 OFFCURVE",
"343 857 OFFCURVE",
"306 848 CURVE SMOOTH",
"278 841 OFFCURVE",
"257 823 OFFCURVE",
"249 798 CURVE SMOOTH",
"177 579 OFFCURVE",
"123 314 OFFCURVE",
"104 78 CURVE SMOOTH",
"100 29 OFFCURVE",
"117 12 OFFCURVE",
"170 5 CURVE SMOOTH",
"221 -2 OFFCURVE",
"250 -5 OFFCURVE",
"306 -5 CURVE SMOOTH"
);
},
{
closed = 1;
nodes = (
"506 381 OFFCURVE",
"515 414 OFFCURVE",
"515 448 CURVE SMOOTH",
"515 484 OFFCURVE",
"496 503 OFFCURVE",
"406 503 CURVE SMOOTH",
"322 503 OFFCURVE",
"295 505 OFFCURVE",
"153 505 CURVE SMOOTH",
"69 505 OFFCURVE",
"30 484 OFFCURVE",
"30 429 CURVE SMOOTH",
"30 404 OFFCURVE",
"42 383 OFFCURVE",
"80 383 CURVE SMOOTH",
"136 383 OFFCURVE",
"158 384 OFFCURVE",
"250 384 CURVE SMOOTH",
"304 384 OFFCURVE",
"397 381 OFFCURVE",
"452 381 CURVE SMOOTH"
);
},
{
closed = 1;
nodes = (
"301 110 OFFCURVE",
"281 111 OFFCURVE",
"260 113 CURVE",
"276 305 OFFCURVE",
"337 579 OFFCURVE",
"388 743 CURVE",
"399 744 OFFCURVE",
"410 744 OFFCURVE",
"426 744 CURVE SMOOTH",
"569 744 OFFCURVE",
"669 667 OFFCURVE",
"669 479 CURVE SMOOTH",
"669 247 OFFCURVE",
"527 110 OFFCURVE",
"322 110 CURVE SMOOTH"
);
}
);
width = 829;
}
);
note = Eth;
rightMetricsKey = O;
unicode = 00D0;
},
{
color = 3;
glyphname = E;
lastChange = "2016-07-22 13:00:20 +0000";
layers = (
{
background = {
paths = (
{
closed = 1;
nodes = (
"2570 205 OFFCURVE",
"2538 177 OFFCURVE",
"2497 152 CURVE SMOOTH",
"2456 127 OFFCURVE",
"2407 104 OFFCURVE",
"2357 88 CURVE SMOOTH",
"2306 72 OFFCURVE",
"2254 63 OFFCURVE",
"2208 63 CURVE SMOOTH",
"2170 63 OFFCURVE",
"2136 70 OFFCURVE",
"2111 90 CURVE SMOOTH",
"2087 110 OFFCURVE",
"2072 142 OFFCURVE",
"2072 190 CURVE SMOOTH",
"2072 242 OFFCURVE",
"2099 281 OFFCURVE",
"2138 307 CURVE SMOOTH",
"2178 333 OFFCURVE",
"2230 347 OFFCURVE",
"2282 347 CURVE SMOOTH",
"2294 347 OFFCURVE",
"2306 346 OFFCURVE",
"2318 345 CURVE SMOOTH",
"2331 344 OFFCURVE",
"2341 344 OFFCURVE",
"2350 344 CURVE SMOOTH",
"2389 344 OFFCURVE",
"2400 359 OFFCURVE",
"2400 396 CURVE SMOOTH",
"2400 409 OFFCURVE",
"2399 423 OFFCURVE",
"2397 437 CURVE",
"2395 448 OFFCURVE",
"2389 457 OFFCURVE",
"2381 464 CURVE SMOOTH",
"2365 478 OFFCURVE",
"2340 488 OFFCURVE",
"2312 496 CURVE SMOOTH",
"2298 500 OFFCURVE",
"2283 503 OFFCURVE",
"2269 508 CURVE SMOOTH",
"2240 518 OFFCURVE",
"2211 526 OFFCURVE",
"2190 543 CURVE SMOOTH",
"2169 560 OFFCURVE",
"2155 583 OFFCURVE",
"2155 618 CURVE SMOOTH",
"2155 661 OFFCURVE",
"2174 690 OFFCURVE",
"2205 708 CURVE SMOOTH",
"2235 726 OFFCURVE",
"2276 733 OFFCURVE",
"2319 733 CURVE SMOOTH",
"2366 733 OFFCURVE",
"2416 725 OFFCURVE",
"2459 713 CURVE SMOOTH",
"2502 701 OFFCURVE",
"2537 686 OFFCURVE",
"2555 672 CURVE",
"2539 621 OFFCURVE",
"2532 588 OFFCURVE",
"2532 567 CURVE SMOOTH",
"2532 555 OFFCURVE",
"2536 549 OFFCURVE",
"2543 549 CURVE SMOOTH",
"2559 549 OFFCURVE",
"2586 561 OFFCURVE",
"2608 579 CURVE SMOOTH",
"2630 597 OFFCURVE",
"2649 620 OFFCURVE",
"2649 644 CURVE SMOOTH",
"2649 710 OFFCURVE",
"2611 760 OFFCURVE",
"2554 793 CURVE SMOOTH",
"2498 826 OFFCURVE",
"2421 843 OFFCURVE",
"2345 843 CURVE SMOOTH",
"2293 843 OFFCURVE",
"2240 834 OFFCURVE",
"2193 819 CURVE SMOOTH",
"2146 804 OFFCURVE",
"2104 779 OFFCURVE",
"2075 747 CURVE SMOOTH",
"2045 714 OFFCURVE",
"2027 674 OFFCURVE",
"2027 625 CURVE SMOOTH",
"2027 573 OFFCURVE",
"2045 525 OFFCURVE",
"2080 490 CURVE SMOOTH",
"2115 455 OFFCURVE",
"2168 433 OFFCURVE",
"2240 433 CURVE",
"2131 431 OFFCURVE",
"2054 401 OFFCURVE",
"2004 353 CURVE SMOOTH",
"1955 306 OFFCURVE",
"1931 244 OFFCURVE",
"1931 178 CURVE SMOOTH",
"1931 100 OFFCURVE",
"1963 44 OFFCURVE",
"2014 8 CURVE SMOOTH",
"2065 -28 OFFCURVE",
"2134 -47 OFFCURVE",
"2211 -47 CURVE SMOOTH",
"2281 -47 OFFCURVE",
"2357 -32 OFFCURVE",
"2429 -4 CURVE SMOOTH",
"2501 24 OFFCURVE",
"2568 66 OFFCURVE",
"2621 122 CURVE",
"2588 233 LINE"
);
},
{
closed = 1;
nodes = (
"1673 848 LINE",
"1655 849 OFFCURVE",
"1637 852 OFFCURVE",
"1578 852 CURVE SMOOTH",
"1287 852 OFFCURVE",
"1135 751 OFFCURVE",
"1135 604 CURVE SMOOTH",
"1135 517 OFFCURVE",
"1196 461 OFFCURVE",
"1302 441 CURVE",
"1303 460 LINE",
"1124 432 OFFCURVE",
"1025 339 OFFCURVE",
"1025 215 CURVE SMOOTH",
"1025 90 OFFCURVE",
"1145 -7 OFFCURVE",
"1405 -7 CURVE SMOOTH",
"1548 -7 OFFCURVE",
"1699 46 OFFCURVE",
"1794 121 CURVE SMOOTH",
"1852 167 OFFCURVE",
"1825 265 OFFCURVE",
"1757 218 CURVE SMOOTH",
"1681 166 OFFCURVE",
"1558 116 OFFCURVE",
"1406 116 CURVE SMOOTH",
"1249 116 OFFCURVE",
"1184 163 OFFCURVE",
"1184 232 CURVE SMOOTH",
"1184 326 OFFCURVE",
"1292 382 OFFCURVE",
"1426 385 CURVE SMOOTH",
"1465 386 OFFCURVE",
"1484 417 OFFCURVE",
"1485 449 CURVE SMOOTH",
"1486 480 OFFCURVE",
"1476 493 OFFCURVE",
"1446 494 CURVE SMOOTH",
"1326 498 OFFCURVE",
"1293 548 OFFCURVE",
"1293 595 CURVE SMOOTH",
"1293 674 OFFCURVE",
"1363 743 OFFCURVE",
"1574 743 CURVE SMOOTH",
"1598 743 OFFCURVE",
"1646 738 OFFCURVE",
"1671 736 CURVE"
);
},
{
closed = 1;
nodes = (
"544 733 OFFCURVE",
"581 697 OFFCURVE",
"581 641 CURVE SMOOTH",
"581 617 OFFCURVE",
"571 590 OFFCURVE",
"571 568 CURVE SMOOTH",
"571 532 OFFCURVE",
"595 512 OFFCURVE",
"631 512 CURVE SMOOTH",
"696 512 OFFCURVE",
"724 573 OFFCURVE",
"724 649 CURVE SMOOTH",
"724 762 OFFCURVE",
"648 848 OFFCURVE",
"472 848 CURVE SMOOTH",
"281 848 OFFCURVE",
"135 753 OFFCURVE",
"135 604 CURVE SMOOTH",
"135 517 OFFCURVE",
"196 461 OFFCURVE",
"302 441 CURVE",
"303 460 LINE",
"134 432 OFFCURVE",
"40 341 OFFCURVE",
"40 215 CURVE SMOOTH",
"40 90 OFFCURVE",
"159 -7 OFFCURVE",
"408 -7 CURVE SMOOTH",
"555 -7 OFFCURVE",
"706 46 OFFCURVE",
"801 121 CURVE SMOOTH",
"859 167 OFFCURVE",
"832 265 OFFCURVE",
"764 218 CURVE SMOOTH",
"688 166 OFFCURVE",
"565 119 OFFCURVE",
"409 119 CURVE SMOOTH",
"265 119 OFFCURVE",
"199 165 OFFCURVE",
"199 239 CURVE SMOOTH",
"199 309 OFFCURVE",
"261 381 OFFCURVE",
"420 385 CURVE SMOOTH",
"459 386 OFFCURVE",
"478 417 OFFCURVE",
"479 449 CURVE SMOOTH",
"480 480 OFFCURVE",
"470 493 OFFCURVE",
"440 494 CURVE SMOOTH",
"326 498 OFFCURVE",
"293 548 OFFCURVE",
"293 600 CURVE SMOOTH",
"293 677 OFFCURVE",
"358 733 OFFCURVE",
"461 733 CURVE SMOOTH"
);
}
);
};
layerId = "ECEFE970-1BBB-4E0A-A452-CEB55884B4A3";
paths = (
{
closed = 1;
nodes = (
"526 733 OFFCURVE",
"563 705 OFFCURVE",
"590 653 CURVE SMOOTH",
"611 613 OFFCURVE",
"630 596 OFFCURVE",
"669 596 CURVE SMOOTH",
"711 596 OFFCURVE",
"735 625 OFFCURVE",
"735 664 CURVE SMOOTH",
"735 754 OFFCURVE",
"642 848 OFFCURVE",
"462 848 CURVE SMOOTH",
"281 848 OFFCURVE",
"137 753 OFFCURVE",
"137 603 CURVE SMOOTH",
"137 527 OFFCURVE",
"196 450 OFFCURVE",
"305 441 CURVE",
"306 460 LINE",
"134 432 OFFCURVE",
"40 341 OFFCURVE",
"40 215 CURVE SMOOTH",
"40 90 OFFCURVE",
"159 -5 OFFCURVE",
"403 -5 CURVE SMOOTH",
"545 -5 OFFCURVE",
"696 46 OFFCURVE",
"791 121 CURVE SMOOTH",
"849 167 OFFCURVE",
"822 265 OFFCURVE",
"754 218 CURVE SMOOTH",
"678 166 OFFCURVE",
"555 121 OFFCURVE",
"414 121 CURVE SMOOTH",
"265 121 OFFCURVE",
"199 165 OFFCURVE",
"199 239 CURVE SMOOTH",
"199 309 OFFCURVE",
"261 380 OFFCURVE",
"430 384 CURVE SMOOTH",
"469 385 OFFCURVE",
"488 417 OFFCURVE",
"489 449 CURVE SMOOTH",
"490 480 OFFCURVE",
"480 494 OFFCURVE",
"450 495 CURVE SMOOTH",
"326 499 OFFCURVE",
"291 548 OFFCURVE",
"291 600 CURVE SMOOTH",
"291 677 OFFCURVE",
"358 733 OFFCURVE",
"456 733 CURVE SMOOTH"
);
}
);
width = 680;
}
);
note = E;
unicode = 0045;
},
{
glyphname = F;
lastChange = "2016-07-18 14:46:18 +0000";
layers = (
{
layerId = "ECEFE970-1BBB-4E0A-A452-CEB55884B4A3";
paths = (
{
closed = 1;
nodes = (
"319 619 OFFCURVE",
"332 647 OFFCURVE",
"359 673 CURVE SMOOTH",
"387 699 OFFCURVE",
"428 723 OFFCURVE",
"485 739 CURVE",
"477 698 OFFCURVE",
"472 663 OFFCURVE",
"465 621 CURVE SMOOTH",
"459 579 OFFCURVE",
"451 530 OFFCURVE",
"435 460 CURVE",
"421 458 OFFCURVE",
"406 455 OFFCURVE",
"385 451 CURVE SMOOTH",
"363 446 OFFCURVE",
"337 440 OFFCURVE",
"300 433 CURVE",
"287 428 OFFCURVE",
"281 417 OFFCURVE",
"281 406 CURVE SMOOTH",
"281 391 OFFCURVE",
"293 380 OFFCURVE",
"308 375 CURVE SMOOTH",
"323 368 OFFCURVE",
"341 366 OFFCURVE",
"352 366 CURVE SMOOTH",
"412 366 LINE",
"402 314 OFFCURVE",
"389 262 OFFCURVE",
"375 215 CURVE SMOOTH",
"361 167 OFFCURVE",
"344 126 OFFCURVE",
"327 96 CURVE SMOOTH",
"309 65 OFFCURVE",
"288 47 OFFCURVE",
"267 47 CURVE SMOOTH",
"239 47 OFFCURVE",
"212 56 OFFCURVE",
"187 64 CURVE SMOOTH",
"162 73 OFFCURVE",
"138 82 OFFCURVE",
"116 82 CURVE SMOOTH",
"97 82 OFFCURVE",
"84 69 OFFCURVE",
"76 54 CURVE SMOOTH",
"67 39 OFFCURVE",
"63 21 OFFCURVE",
"63 11 CURVE SMOOTH",
"63 -8 OFFCURVE",
"75 -22 OFFCURVE",
"92 -33 CURVE SMOOTH",
"110 -44 OFFCURVE",
"133 -52 OFFCURVE",
"156 -56 CURVE SMOOTH",
"179 -61 OFFCURVE",
"201 -63 OFFCURVE",
"216 -63 CURVE SMOOTH",
"288 -63 OFFCURVE",
"342 -41 OFFCURVE",
"384 -4 CURVE SMOOTH",
"427 33 OFFCURVE",
"457 86 OFFCURVE",
"479 150 CURVE SMOOTH",
"501 213 OFFCURVE",
"515 287 OFFCURVE",
"527 366 CURVE",
"535 366 OFFCURVE",
"548 366 OFFCURVE",
"565 367 CURVE SMOOTH",
"598 368 OFFCURVE",
"640 369 OFFCURVE",
"684 371 CURVE SMOOTH",
"706 371 OFFCURVE",
"726 372 OFFCURVE",
"744 373 CURVE SMOOTH",
"762 373 OFFCURVE",
"777 374 OFFCURVE",
"790 375 CURVE SMOOTH",
"803 375 OFFCURVE",
"810 375 OFFCURVE",
"813 375 CURVE SMOOTH",
"827 375 OFFCURVE",
"844 391 OFFCURVE",
"844 422 CURVE SMOOTH",
"844 432 OFFCURVE",
"844 443 OFFCURVE",
"840 453 CURVE SMOOTH",
"836 462 OFFCURVE",
"828 469 OFFCURVE",
"813 469 CURVE SMOOTH",
"542 469 LINE",
"549 547 OFFCURVE",
"556 603 OFFCURVE",
"561 643 CURVE SMOOTH",
"566 683 OFFCURVE",
"570 707 OFFCURVE",
"572 723 CURVE SMOOTH",
"575 739 OFFCURVE",
"576 747 OFFCURVE",
"576 754 CURVE",
"590 756 OFFCURVE",
"604 757 OFFCURVE",
"617 759 CURVE SMOOTH",
"640 761 OFFCURVE",
"666 764 OFFCURVE",
"684 764 CURVE SMOOTH",
"743 764 OFFCURVE",
"801 762 OFFCURVE",
"855 759 CURVE SMOOTH",
"909 755 OFFCURVE",
"959 750 OFFCURVE",
"1001 742 CURVE SMOOTH",
"1005 742 OFFCURVE",
"1008 741 OFFCURVE",
"1010 741 CURVE SMOOTH",
"1026 741 OFFCURVE",
"1039 750 OFFCURVE",
"1046 761 CURVE SMOOTH",
"1053 773 OFFCURVE",
"1057 788 OFFCURVE",
"1057 800 CURVE SMOOTH",
"1057 819 OFFCURVE",
"1046 837 OFFCURVE",
"1013 846 CURVE",
"897 862 OFFCURVE",
"789 868 OFFCURVE",
"689 868 CURVE SMOOTH",
"541 868 OFFCURVE",
"415 848 OFFCURVE",
"327 804 CURVE SMOOTH",
"238 759 OFFCURVE",
"187 691 OFFCURVE",
"187 594 CURVE SMOOTH",
"187 589 OFFCURVE",
"188 584 OFFCURVE",
"189 580 CURVE",
"191 570 OFFCURVE",
"200 562 OFFCURVE",
"222 558 CURVE",
"232 556 OFFCURVE",
"247 555 OFFCURVE",
"266 555 CURVE SMOOTH",
"280 555 OFFCURVE",
"291 557 OFFCURVE",
"298 560 CURVE SMOOTH",
"313 567 OFFCURVE",
"318 577 OFFCURVE",
"319 585 CURVE",
"319 589 OFFCURVE",
"319 591 OFFCURVE",
"319 592 CURVE SMOOTH"
);
}
);
width = 672;
}
);
note = F;
unicode = 0046;
},
{
color = 3;
glyphname = G;
lastChange = "2016-07-22 19:24:16 +0000";
layers = (
{
background = {
paths = (
{
closed = 1;
nodes = (
"630 156 LINE",
"575 126 OFFCURVE",
"513 118 OFFCURVE",
"471 118 CURVE SMOOTH",
"310 118 OFFCURVE",
"220 218 OFFCURVE",
"220 383 CURVE SMOOTH",
"220 604 OFFCURVE",
"355 730 OFFCURVE",
"495 730 CURVE SMOOTH",
"568 730 OFFCURVE",
"603 701 OFFCURVE",
"603 650 CURVE SMOOTH",
"603 624 OFFCURVE",
"596 601 OFFCURVE",
"596 585 CURVE SMOOTH",
"596 547 OFFCURVE",
"621 527 OFFCURVE",
"657 527 CURVE SMOOTH",
"707 527 OFFCURVE",
"740 570 OFFCURVE",
"740 654 CURVE SMOOTH",
"740 770 OFFCURVE",
"668 848 OFFCURVE",
"504 848 CURVE SMOOTH",
"276 848 OFFCURVE",
"69 663 OFFCURVE",
"69 363 CURVE SMOOTH",
"69 143 OFFCURVE",
"210 -5 OFFCURVE",
"435 -5 CURVE SMOOTH",
"494 -5 OFFCURVE",
"561 10 OFFCURVE",
"620 39 CURVE"
);
},
{
closed = 1;
nodes = (
"492 389 OFFCURVE",
"449 358 OFFCURVE",
"449 316 CURVE SMOOTH",
"449 278 OFFCURVE",
"479 267 OFFCURVE",
"527 268 CURVE SMOOTH",
"562 269 LINE SMOOTH",
"602 270 OFFCURVE",
"622 262 OFFCURVE",
"619 223 CURVE SMOOTH",
"604 31 OFFCURVE",
"583 -75 OFFCURVE",
"563 -191 CURVE SMOOTH",
"554 -243 OFFCURVE",
"575 -262 OFFCURVE",
"613 -262 CURVE SMOOTH",
"654 -262 OFFCURVE",
"690 -249 OFFCURVE",
"704 -183 CURVE SMOOTH",
"718 -118 OFFCURVE",
"746 41 OFFCURVE",
"762 207 CURVE SMOOTH",
"774 334 OFFCURVE",
"730 387 OFFCURVE",
"602 388 CURVE SMOOTH"
);
}
);
};
layerId = "ECEFE970-1BBB-4E0A-A452-CEB55884B4A3";
paths = (
{
closed = 1;
nodes = (
"630 156 LINE",
"575 126 OFFCURVE",
"513 118 OFFCURVE",
"471 118 CURVE SMOOTH",
"310 118 OFFCURVE",
"220 218 OFFCURVE",
"220 383 CURVE SMOOTH",
"220 604 OFFCURVE",
"355 730 OFFCURVE",
"495 730 CURVE SMOOTH",
"568 730 OFFCURVE",
"603 701 OFFCURVE",
"603 650 CURVE SMOOTH",
"603 624 OFFCURVE",
"596 601 OFFCURVE",
"596 585 CURVE SMOOTH",
"596 547 OFFCURVE",
"621 527 OFFCURVE",
"657 527 CURVE SMOOTH",
"707 527 OFFCURVE",
"740 570 OFFCURVE",
"740 654 CURVE SMOOTH",
"740 770 OFFCURVE",
"668 848 OFFCURVE",
"504 848 CURVE SMOOTH",
"276 848 OFFCURVE",
"69 663 OFFCURVE",
"69 363 CURVE SMOOTH",
"69 143 OFFCURVE",
"210 -5 OFFCURVE",
"435 -5 CURVE SMOOTH",
"494 -5 OFFCURVE",
"561 10 OFFCURVE",
"620 39 CURVE"
);
},
{
closed = 1;
nodes = (
"492 389 OFFCURVE",
"449 358 OFFCURVE",
"449 316 CURVE SMOOTH",
"449 278 OFFCURVE",
"479 267 OFFCURVE",
"527 268 CURVE SMOOTH",
"562 269 LINE SMOOTH",
"602 270 OFFCURVE",
"622 262 OFFCURVE",
"619 223 CURVE SMOOTH",
"604 31 OFFCURVE",
"591 -29 OFFCURVE",
"573 -145 CURVE SMOOTH",
"565 -197 OFFCURVE",
"585 -216 OFFCURVE",
"623 -216 CURVE SMOOTH",
"664 -216 OFFCURVE",
"702 -203 OFFCURVE",
"714 -137 CURVE SMOOTH",
"726 -72 OFFCURVE",
"746 41 OFFCURVE",
"762 207 CURVE SMOOTH",
"774 334 OFFCURVE",
"730 387 OFFCURVE",
"602 388 CURVE SMOOTH"
);
}
);
width = 793;
}
);
note = G;
unicode = 0047;
},
{
glyphname = H;
lastChange = "2016-07-18 14:46:18 +0000";
layers = (
{
layerId = "ECEFE970-1BBB-4E0A-A452-CEB55884B4A3";
paths = (
{
closed = 1;
nodes = (
"889 367 OFFCURVE",
"900 368 OFFCURVE",
"912 369 CURVE SMOOTH",
"923 370 OFFCURVE",
"934 371 OFFCURVE",
"946 373 CURVE SMOOTH",
"956 374 OFFCURVE",
"963 374 OFFCURVE",
"968 375 CURVE SMOOTH",
"973 375 OFFCURVE",
"977 375 OFFCURVE",
"979 375 CURVE",
"980 375 OFFCURVE",
"982 375 OFFCURVE",
"982 376 CURVE",
"983 376 OFFCURVE",
"984 376 OFFCURVE",
"985 376 CURVE",
"987 376 OFFCURVE",
"990 377 OFFCURVE",
"994 377 CURVE SMOOTH",
"998 378 OFFCURVE",
"1004 378 OFFCURVE",
"1013 379 CURVE",
"1021 380 OFFCURVE",
"1032 382 OFFCURVE",
"1041 388 CURVE",
"1050 393 OFFCURVE",
"1056 402 OFFCURVE",
"1056 416 CURVE SMOOTH",
"1056 428 OFFCURVE",
"1054 438 OFFCURVE",
"1047 445 CURVE SMOOTH",
"1041 452 OFFCURVE",
"1029 456 OFFCURVE",
"1009 456 CURVE SMOOTH",
"1004 456 OFFCURVE",
"998 456 OFFCURVE",
"991 455 CURVE SMOOTH",
"975 454 OFFCURVE",
"943 451 OFFCURVE",
"902 449 CURVE",
"918 499 OFFCURVE",
"936 550 OFFCURVE",
"953 599 CURVE SMOOTH",
"970 647 OFFCURVE",
"987 694 OFFCURVE",
"1002 734 CURVE SMOOTH",
"1011 757 OFFCURVE",
"1012 777 OFFCURVE",
"1012 792 CURVE SMOOTH",
"1012 810 OFFCURVE",
"1006 822 OFFCURVE",
"996 831 CURVE SMOOTH",
"986 838 OFFCURVE",
"973 842 OFFCURVE",
"959 842 CURVE SMOOTH",
"926 842 OFFCURVE",
"902 818 OFFCURVE",
"887 781 CURVE SMOOTH",
"842 669 OFFCURVE",
"801 550 OFFCURVE",
"768 441 CURVE",
"684 437 OFFCURVE",
"595 432 OFFCURVE",
"528 428 CURVE",
"546 487 OFFCURVE",
"563 545 OFFCURVE",
"575 596 CURVE SMOOTH",
"586 646 OFFCURVE",
"594 689 OFFCURVE",
"594 719 CURVE SMOOTH",
"594 781 OFFCURVE",
"574 824 OFFCURVE",
"542 852 CURVE SMOOTH",
"511 879 OFFCURVE",
"467 891 OFFCURVE",
"422 891 CURVE SMOOTH",
"391 891 OFFCURVE",
"354 883 OFFCURVE",
"317 868 CURVE SMOOTH",
"280 854 OFFCURVE",
"244 832 OFFCURVE",
"217 806 CURVE SMOOTH",
"190 780 OFFCURVE",
"173 749 OFFCURVE",
"173 715 CURVE SMOOTH",
"173 703 OFFCURVE",
"173 692 OFFCURVE",
"175 684 CURVE SMOOTH",
"176 675 OFFCURVE",
"178 670 OFFCURVE",
"181 670 CURVE SMOOTH",
"191 670 OFFCURVE",
"204 675 OFFCURVE",
"219 688 CURVE SMOOTH",
"262 723 OFFCURVE",
"298 746 OFFCURVE",
"330 761 CURVE SMOOTH",
"361 775 OFFCURVE",
"387 781 OFFCURVE",
"406 781 CURVE SMOOTH",
"430 781 OFFCURVE",
"446 772 OFFCURVE",
"457 757 CURVE SMOOTH",
"467 742 OFFCURVE",
"471 720 OFFCURVE",
"471 695 CURVE SMOOTH",
"471 664 OFFCURVE",
"464 628 OFFCURVE",
"453 594 CURVE SMOOTH",
"435 540 OFFCURVE",
"414 484 OFFCURVE",
"390 423 CURVE",
"343 423 LINE SMOOTH",
"308 423 OFFCURVE",
"279 423 OFFCURVE",
"248 421 CURVE",
"236 436 OFFCURVE",
"227 447 OFFCURVE",
"219 454 CURVE",
"212 460 OFFCURVE",
"205 463 OFFCURVE",
"199 463 CURVE SMOOTH",
"188 463 OFFCURVE",
"184 456 OFFCURVE",
"184 442 CURVE SMOOTH",
"184 433 OFFCURVE",
"186 424 OFFCURVE",
"188 413 CURVE",
"202 375 OFFCURVE",
"225 352 OFFCURVE",
"252 338 CURVE SMOOTH",
"280 325 OFFCURVE",
"314 320 OFFCURVE",
"350 320 CURVE",
"316 232 OFFCURVE",
"283 140 OFFCURVE",
"256 40 CURVE SMOOTH",
"254 35 OFFCURVE",
"254 30 OFFCURVE",
"254 25 CURVE SMOOTH",
"254 8 OFFCURVE",
"261 -6 OFFCURVE",
"273 -16 CURVE SMOOTH",
"285 -25 OFFCURVE",
"300 -31 OFFCURVE",
"316 -31 CURVE SMOOTH",
"328 -31 OFFCURVE",
"342 -23 OFFCURVE",
"357 -9 CURVE SMOOTH",
"372 5 OFFCURVE",
"387 29 OFFCURVE",
"403 64 CURVE",
"408 77 OFFCURVE",
"414 94 OFFCURVE",
"421 113 CURVE SMOOTH",
"428 132 OFFCURVE",
"436 153 OFFCURVE",
"444 176 CURVE SMOOTH",
"461 222 OFFCURVE",
"479 275 OFFCURVE",
"497 330 CURVE",
"577 337 OFFCURVE",
"655 344 OFFCURVE",
"742 354 CURVE",
"729 305 OFFCURVE",
"718 262 OFFCURVE",
"711 225 CURVE SMOOTH",
"703 188 OFFCURVE",
"699 160 OFFCURVE",
"699 141 CURVE SMOOTH",
"699 86 OFFCURVE",
"715 43 OFFCURVE",
"741 14 CURVE SMOOTH",
"767 -16 OFFCURVE",
"803 -31 OFFCURVE",
"844 -31 CURVE SMOOTH",
"879 -31 OFFCURVE",
"923 -18 OFFCURVE",
"970 9 CURVE SMOOTH",
"1016 35 OFFCURVE",
"1066 74 OFFCURVE",
"1115 125 CURVE",
"1106 147 OFFCURVE",
"1100 165 OFFCURVE",
"1095 177 CURVE",
"1090 189 OFFCURVE",
"1086 199 OFFCURVE",
"1084 205 CURVE SMOOTH",
"1081 212 OFFCURVE",
"1079 217 OFFCURVE",
"1078 219 CURVE",
"1034 174 OFFCURVE",
"998 143 OFFCURVE",
"969 123 CURVE SMOOTH",
"939 103 OFFCURVE",
"917 93 OFFCURVE",
"900 93 CURVE SMOOTH",
"857 93 OFFCURVE",
"840 120 OFFCURVE",
"840 164 CURVE SMOOTH",
"840 215 OFFCURVE",
"855 286 OFFCURVE",
"878 366 CURVE"
);
}
);
width = 1031;
}
);
note = H;
unicode = 0048;
},
{
glyphname = I;
lastChange = "2016-07-18 14:46:18 +0000";
layers = (
{
layerId = "ECEFE970-1BBB-4E0A-A452-CEB55884B4A3";
paths = (
{
closed = 1;
nodes = (
"162 689 OFFCURVE",
"171 693 OFFCURVE",
"179 696 CURVE SMOOTH",
"187 699 OFFCURVE",
"194 702 OFFCURVE",
"201 705 CURVE SMOOTH",
"215 709 OFFCURVE",
"227 713 OFFCURVE",
"241 716 CURVE SMOOTH",
"255 720 OFFCURVE",
"273 722 OFFCURVE",
"297 725 CURVE",
"282 683 OFFCURVE",
"265 626 OFFCURVE",
"247 559 CURVE SMOOTH",
"229 492 OFFCURVE",
"209 415 OFFCURVE",
"190 333 CURVE SMOOTH",
"170 251 OFFCURVE",
"149 165 OFFCURVE",
"129 80 CURVE",
"116 79 OFFCURVE",
"102 77 OFFCURVE",
"85 74 CURVE SMOOTH",
"52 69 OFFCURVE",
"22 61 OFFCURVE",
"1 51 CURVE",
"-9 45 OFFCURVE",
"-15 40 OFFCURVE",
"-16 35 CURVE SMOOTH",
"-17 26 OFFCURVE",
"-19 20 OFFCURVE",
"-22 14 CURVE SMOOTH",
"-30 3 OFFCURVE",
"-38 -4 OFFCURVE",
"-44 -8 CURVE SMOOTH",
"-47 -11 OFFCURVE",
"-49 -12 OFFCURVE",
"-49 -13 CURVE SMOOTH",
"-49 -14 OFFCURVE",
"-43 -14 OFFCURVE",
"-33 -15 CURVE SMOOTH",
"-23 -15 OFFCURVE",
"-10 -15 OFFCURVE",
"7 -15 CURVE SMOOTH",
"41 -16 OFFCURVE",
"88 -16 OFFCURVE",
"135 -16 CURVE SMOOTH",
"159 -16 OFFCURVE",
"183 -16 OFFCURVE",
"207 -16 CURVE SMOOTH",
"230 -16 OFFCURVE",
"252 -16 OFFCURVE",
"273 -16 CURVE SMOOTH",
"293 -16 OFFCURVE",
"312 -16 OFFCURVE",
"327 -16 CURVE SMOOTH",
"342 -16 OFFCURVE",
"353 -16 OFFCURVE",
"359 -16 CURVE",
"383 -2 OFFCURVE",
"395 11 OFFCURVE",
"395 24 CURVE SMOOTH",
"395 31 OFFCURVE",
"392 37 OFFCURVE",
"386 42 CURVE",
"375 53 OFFCURVE",
"358 61 OFFCURVE",
"337 66 CURVE SMOOTH",
"317 71 OFFCURVE",
"298 74 OFFCURVE",
"284 76 CURVE",
"277 76 OFFCURVE",
"272 77 OFFCURVE",
"271 77 CURVE",
"282 121 OFFCURVE",
"292 161 OFFCURVE",
"302 195 CURVE SMOOTH",
"319 265 OFFCURVE",
"333 319 OFFCURVE",
"343 366 CURVE SMOOTH",
"353 412 OFFCURVE",
"362 454 OFFCURVE",
"372 495 CURVE SMOOTH",
"376 516 OFFCURVE",
"381 538 OFFCURVE",
"387 562 CURVE SMOOTH",
"398 609 OFFCURVE",
"411 664 OFFCURVE",
"429 734 CURVE",
"440 733 OFFCURVE",
"451 733 OFFCURVE",
"461 733 CURVE SMOOTH",
"509 733 OFFCURVE",
"535 740 OFFCURVE",
"548 751 CURVE SMOOTH",
"562 762 OFFCURVE",
"563 776 OFFCURVE",
"563 790 CURVE SMOOTH",
"563 804 OFFCURVE",
"562 818 OFFCURVE",
"543 828 CURVE SMOOTH",
"534 833 OFFCURVE",
"521 837 OFFCURVE",
"503 840 CURVE SMOOTH",
"485 843 OFFCURVE",
"459 845 OFFCURVE",
"427 845 CURVE SMOOTH",
"353 845 OFFCURVE",
"296 837 OFFCURVE",
"254 825 CURVE SMOOTH",
"212 813 OFFCURVE",
"186 798 OFFCURVE",
"168 784 CURVE SMOOTH",
"151 770 OFFCURVE",
"145 756 OFFCURVE",
"145 749 CURVE SMOOTH",
"145 729 OFFCURVE",
"146 713 OFFCURVE",
"146 702 CURVE",
"147 690 OFFCURVE",
"148 685 OFFCURVE",
"149 685 CURVE",
"149 685 OFFCURVE",
"149 685 OFFCURVE",
"151 686 CURVE SMOOTH"
);
}
);
width = 421;
}
);
note = I;
unicode = 0049;
},
{
glyphname = J;
lastChange = "2016-07-18 14:46:18 +0000";
layers = (
{
layerId = "ECEFE970-1BBB-4E0A-A452-CEB55884B4A3";
paths = (
{
closed = 1;
nodes = (
"281 -207 OFFCURVE",
"301 -268 OFFCURVE",
"333 -309 CURVE SMOOTH",
"366 -350 OFFCURVE",
"411 -371 OFFCURVE",
"462 -371 CURVE SMOOTH",
"512 -371 OFFCURVE",
"566 -352 OFFCURVE",
"621 -313 CURVE SMOOTH",
"675 -273 OFFCURVE",
"729 -215 OFFCURVE",
"777 -135 CURVE SMOOTH",
"824 -56 OFFCURVE",
"865 44 OFFCURVE",
"894 165 CURVE",
"952 140 OFFCURVE",
"1002 125 OFFCURVE",
"1039 125 CURVE SMOOTH",
"1047 125 OFFCURVE",
"1055 126 OFFCURVE",
"1060 129 CURVE",
"1064 131 OFFCURVE",
"1072 135 OFFCURVE",
"1080 141 CURVE SMOOTH",
"1087 146 OFFCURVE",
"1094 153 OFFCURVE",
"1094 159 CURVE SMOOTH",
"1094 163 OFFCURVE",
"1092 166 OFFCURVE",
"1087 170 CURVE SMOOTH",
"1079 178 OFFCURVE",
"1066 187 OFFCURVE",
"1054 194 CURVE SMOOTH",
"1047 197 OFFCURVE",
"1042 201 OFFCURVE",
"1038 203 CURVE SMOOTH",
"996 227 OFFCURVE",
"955 250 OFFCURVE",
"916 274 CURVE",
"930 362 OFFCURVE",
"938 457 OFFCURVE",
"938 563 CURVE SMOOTH",
"938 709 OFFCURVE",
"910 812 OFFCURVE",
"868 876 CURVE SMOOTH",
"825 941 OFFCURVE",
"769 970 OFFCURVE",
"710 970 CURVE SMOOTH",
"666 970 OFFCURVE",
"622 954 OFFCURVE",
"581 925 CURVE SMOOTH",
"541 896 OFFCURVE",
"504 854 OFFCURVE",
"479 803 CURVE SMOOTH",
"453 752 OFFCURVE",
"438 691 OFFCURVE",
"438 625 CURVE SMOOTH",
"438 573 OFFCURVE",
"459 521 OFFCURVE",
"495 469 CURVE SMOOTH",
"531 417 OFFCURVE",
"581 367 OFFCURVE",
"636 322 CURVE",
"528 289 OFFCURVE",
"440 221 OFFCURVE",
"378 140 CURVE SMOOTH",
"316 58 OFFCURVE",
"281 -37 OFFCURVE",
"281 -125 CURVE SMOOTH"
);
},
{
closed = 1;
nodes = (
"406 -115 OFFCURVE",
"423 -61 OFFCURVE",
"453 -7 CURVE SMOOTH",
"482 47 OFFCURVE",
"524 102 OFFCURVE",
"576 146 CURVE SMOOTH",
"628 191 OFFCURVE",
"688 225 OFFCURVE",
"755 238 CURVE",
"773 227 LINE",
"738 59 OFFCURVE",
"686 -62 OFFCURVE",
"631 -141 CURVE SMOOTH",
"577 -220 OFFCURVE",
"520 -257 OFFCURVE",
"477 -257 CURVE SMOOTH",
"434 -257 OFFCURVE",
"406 -223 OFFCURVE",
"406 -156 CURVE SMOOTH"
);
},
{
closed = 1;
nodes = (
"563 688 OFFCURVE",
"572 722 OFFCURVE",
"588 753 CURVE SMOOTH",
"603 784 OFFCURVE",
"625 812 OFFCURVE",
"648 833 CURVE SMOOTH",
"671 853 OFFCURVE",
"697 865 OFFCURVE",
"721 865 CURVE SMOOTH",
"746 865 OFFCURVE",
"769 852 OFFCURVE",
"786 818 CURVE SMOOTH",
"802 785 OFFCURVE",
"813 733 OFFCURVE",
"813 656 CURVE SMOOTH",
"813 543 OFFCURVE",
"806 444 OFFCURVE",
"794 354 CURVE",
"726 402 OFFCURVE",
"668 452 OFFCURVE",
"627 502 CURVE SMOOTH",
"586 553 OFFCURVE",
"563 604 OFFCURVE",
"563 656 CURVE SMOOTH"
);
}
);
width = 953;
}
);
note = J;
unicode = 004A;
},
{
glyphname = K;
lastChange = "2016-07-18 14:46:18 +0000";
layers = (
{
layerId = "ECEFE970-1BBB-4E0A-A452-CEB55884B4A3";
paths = (
{
closed = 1;
nodes = (
"601 750 OFFCURVE",
"601 770 OFFCURVE",
"601 797 CURVE SMOOTH",
"601 807 OFFCURVE",
"599 819 OFFCURVE",
"589 828 CURVE SMOOTH",
"580 837 OFFCURVE",
"565 844 OFFCURVE",
"540 844 CURVE SMOOTH",
"496 844 OFFCURVE",
"435 840 OFFCURVE",
"373 826 CURVE SMOOTH",
"310 812 OFFCURVE",
"245 786 OFFCURVE",
"194 742 CURVE SMOOTH",
"143 699 OFFCURVE",
"104 636 OFFCURVE",
"94 548 CURVE",
"94 548 OFFCURVE",
"94 547 OFFCURVE",
"94 547 CURVE SMOOTH",
"94 542 LINE SMOOTH",
"94 536 OFFCURVE",
"96 525 OFFCURVE",
"107 517 CURVE SMOOTH",
"118 508 OFFCURVE",
"137 500 OFFCURVE",
"174 500 CURVE SMOOTH",
"202 500 OFFCURVE",
"217 507 OFFCURVE",
"225 516 CURVE SMOOTH",
"233 523 OFFCURVE",
"234 532 OFFCURVE",
"234 536 CURVE SMOOTH",
"234 567 OFFCURVE",
"242 604 OFFCURVE",
"260 638 CURVE SMOOTH",
"277 672 OFFCURVE",
"303 704 OFFCURVE",
"339 728 CURVE SMOOTH",
"376 751 OFFCURVE",
"422 766 OFFCURVE",
"479 766 CURVE",
"473 725 LINE",
"463 624 OFFCURVE",
"448 518 OFFCURVE",
"426 422 CURVE SMOOTH",
"405 326 OFFCURVE",
"376 240 OFFCURVE",
"338 178 CURVE SMOOTH",
"301 116 OFFCURVE",
"253 78 OFFCURVE",
"195 78 CURVE SMOOTH",
"173 78 OFFCURVE",
"150 85 OFFCURVE",
"127 95 CURVE",
"126 96 OFFCURVE",
"125 96 OFFCURVE",
"123 96 CURVE SMOOTH",
"113 96 OFFCURVE",
"104 90 OFFCURVE",
"96 83 CURVE SMOOTH",
"88 77 OFFCURVE",
"82 68 OFFCURVE",
"80 64 CURVE SMOOTH",
"75 57 OFFCURVE",
"71 49 OFFCURVE",
"67 42 CURVE SMOOTH",
"63 35 OFFCURVE",
"61 26 OFFCURVE",
"61 18 CURVE SMOOTH",
"61 0 OFFCURVE",
"86 -13 OFFCURVE",
"118 -21 CURVE SMOOTH",
"149 -28 OFFCURVE",
"187 -31 OFFCURVE",
"212 -31 CURVE SMOOTH",
"286 -31 OFFCURVE",
"352 -4 OFFCURVE",
"409 57 CURVE SMOOTH",
"466 117 OFFCURVE",
"512 211 OFFCURVE",
"547 344 CURVE",
"561 328 OFFCURVE",
"573 311 OFFCURVE",
"583 292 CURVE SMOOTH",
"605 254 OFFCURVE",
"623 212 OFFCURVE",
"641 170 CURVE SMOOTH",
"649 149 OFFCURVE",
"658 129 OFFCURVE",
"667 109 CURVE SMOOTH",
"687 70 OFFCURVE",
"708 35 OFFCURVE",
"736 10 CURVE SMOOTH",
"765 -16 OFFCURVE",
"800 -31 OFFCURVE",
"847 -31 CURVE SMOOTH",
"868 -31 OFFCURVE",
"889 -29 OFFCURVE",
"909 -25 CURVE SMOOTH",
"950 -17 OFFCURVE",
"987 -2 OFFCURVE",
"1017 12 CURVE SMOOTH",
"1047 27 OFFCURVE",
"1070 40 OFFCURVE",
"1082 48 CURVE",
"1088 52 OFFCURVE",
"1091 54 OFFCURVE",
"1091 54 CURVE",
"1035 149 LINE",
"1009 128 OFFCURVE",
"977 111 OFFCURVE",
"946 98 CURVE SMOOTH",
"915 85 OFFCURVE",
"884 78 OFFCURVE",
"859 78 CURVE SMOOTH",
"819 78 OFFCURVE",
"788 105 OFFCURVE",
"757 158 CURVE SMOOTH",
"726 211 OFFCURVE",
"695 289 OFFCURVE",
"656 391 CURVE",
"750 391 OFFCURVE",
"821 403 OFFCURVE",
"875 427 CURVE SMOOTH",
"928 452 OFFCURVE",
"963 488 OFFCURVE",
"985 537 CURVE SMOOTH",
"1007 585 OFFCURVE",
"1016 646 OFFCURVE",
"1016 720 CURVE",
"1015 730 OFFCURVE",
"1015 742 OFFCURVE",
"1015 754 CURVE",
"1015 766 OFFCURVE",
"1015 776 OFFCURVE",
"1014 783 CURVE SMOOTH",
"1014 790 OFFCURVE",
"1012 801 OFFCURVE",
"1003 811 CURVE SMOOTH",
"994 820 OFFCURVE",
"979 828 OFFCURVE",
"953 828 CURVE",
"936 827 OFFCURVE",
"923 825 OFFCURVE",
"915 822 CURVE SMOOTH",
"906 820 OFFCURVE",
"900 816 OFFCURVE",
"896 811 CURVE SMOOTH",
"890 801 OFFCURVE",
"891 783 OFFCURVE",
"891 750 CURVE SMOOTH",
"891 670 OFFCURVE",
"878 614 OFFCURVE",
"855 575 CURVE SMOOTH",
"831 535 OFFCURVE",
"795 513 OFFCURVE",
"749 500 CURVE SMOOTH",
"703 487 OFFCURVE",
"646 484 OFFCURVE",
"578 484 CURVE",
"580 510 OFFCURVE",
"582 538 OFFCURVE",
"584 565 CURVE SMOOTH",
"588 613 OFFCURVE",
"593 674 OFFCURVE",
"599 731 CURVE SMOOTH"
);
}
);
width = 938;
}
);
note = K;
unicode = 004B;
},
{
glyphname = L;
lastChange = "2016-07-18 14:46:18 +0000";
layers = (
{
layerId = "ECEFE970-1BBB-4E0A-A452-CEB55884B4A3";
paths = (
{
closed = 1;
nodes = (
"-86 152 OFFCURVE",
"-88 139 OFFCURVE",
"-88 127 CURVE SMOOTH",
"-88 112 OFFCURVE",
"-83 96 OFFCURVE",
"-75 83 CURVE SMOOTH",
"-66 71 OFFCURVE",
"-56 63 OFFCURVE",
"-45 63 CURVE SMOOTH",
"-40 63 OFFCURVE",
"-27 69 OFFCURVE",
"-7 81 CURVE SMOOTH",
"12 93 OFFCURVE",
"36 109 OFFCURVE",
"64 130 CURVE",
"64 88 OFFCURVE",
"70 50 OFFCURVE",
"88 22 CURVE SMOOTH",
"106 -6 OFFCURVE",
"136 -24 OFFCURVE",
"184 -24 CURVE SMOOTH",
"215 -24 OFFCURVE",
"250 -20 OFFCURVE",
"283 -14 CURVE SMOOTH",
"315 -8 OFFCURVE",
"347 1 OFFCURVE",
"376 9 CURVE SMOOTH",
"409 20 OFFCURVE",
"442 31 OFFCURVE",
"474 43 CURVE",
"489 46 OFFCURVE",
"501 55 OFFCURVE",
"509 65 CURVE SMOOTH",
"517 76 OFFCURVE",
"521 88 OFFCURVE",
"521 102 CURVE SMOOTH",
"521 116 OFFCURVE",
"517 130 OFFCURVE",
"509 141 CURVE SMOOTH",
"501 151 OFFCURVE",
"489 158 OFFCURVE",
"473 158 CURVE SMOOTH",
"469 158 OFFCURVE",
"463 157 OFFCURVE",
"458 156 CURVE SMOOTH",
"294 109 LINE SMOOTH",
"270 102 OFFCURVE",
"250 98 OFFCURVE",
"235 98 CURVE SMOOTH",
"216 98 OFFCURVE",
"205 100 OFFCURVE",
"198 103 CURVE SMOOTH",
"191 106 OFFCURVE",
"189 111 OFFCURVE",
"189 117 CURVE SMOOTH",
"189 118 OFFCURVE",
"189 120 OFFCURVE",
"189 122 CURVE SMOOTH",
"189 125 OFFCURVE",
"189 128 OFFCURVE",
"190 135 CURVE",
"190 141 OFFCURVE",
"190 149 OFFCURVE",
"191 161 CURVE SMOOTH",
"191 172 OFFCURVE",
"192 188 OFFCURVE",
"192 208 CURVE",
"263 251 OFFCURVE",
"331 309 OFFCURVE",
"388 371 CURVE SMOOTH",
"444 434 OFFCURVE",
"492 502 OFFCURVE",
"526 570 CURVE SMOOTH",
"559 638 OFFCURVE",
"578 705 OFFCURVE",
"578 766 CURVE SMOOTH",
"578 815 OFFCURVE",
"566 852 OFFCURVE",
"547 877 CURVE SMOOTH",
"527 902 OFFCURVE",
"500 914 OFFCURVE",
"467 914 CURVE SMOOTH",
"422 914 OFFCURVE",
"369 891 OFFCURVE",
"316 845 CURVE SMOOTH",
"263 798 OFFCURVE",
"210 729 OFFCURVE",
"167 637 CURVE SMOOTH",
"124 545 OFFCURVE",
"90 431 OFFCURVE",
"76 294 CURVE SMOOTH",
"72 261 LINE",
"57 250 OFFCURVE",
"41 239 OFFCURVE",
"25 228 CURVE SMOOTH",
"-6 206 OFFCURVE",
"-35 188 OFFCURVE",
"-55 174 CURVE SMOOTH",
"-65 167 OFFCURVE",
"-72 163 OFFCURVE",
"-76 160 CURVE SMOOTH"
);
},
{
closed = 1;
nodes = (
"209 421 OFFCURVE",
"230 505 OFFCURVE",
"257 576 CURVE SMOOTH",
"284 646 OFFCURVE",
"316 704 OFFCURVE",
"347 745 CURVE SMOOTH",
"377 785 OFFCURVE",
"406 808 OFFCURVE",
"427 808 CURVE SMOOTH",
"445 808 OFFCURVE",
"456 792 OFFCURVE",
"456 754 CURVE SMOOTH",
"456 744 OFFCURVE",
"455 732 OFFCURVE",
"453 719 CURVE SMOOTH",
"448 680 OFFCURVE",
"429 636 OFFCURVE",
"403 589 CURVE SMOOTH",
"376 543 OFFCURVE",
"342 496 OFFCURVE",
"307 452 CURVE SMOOTH",
"271 407 OFFCURVE",
"234 366 OFFCURVE",
"201 331 CURVE"
);
}
);
width = 484;
}
);
note = L;
unicode = 004C;
},
{
glyphname = Lslash;
lastChange = "2016-07-18 14:46:18 +0000";
layers = (
{
layerId = "ECEFE970-1BBB-4E0A-A452-CEB55884B4A3";
paths = (
{
closed = 1;
nodes = (
"-86 152 OFFCURVE",
"-88 139 OFFCURVE",
"-88 127 CURVE SMOOTH",
"-88 112 OFFCURVE",
"-83 96 OFFCURVE",
"-75 83 CURVE SMOOTH",
"-66 71 OFFCURVE",
"-56 63 OFFCURVE",
"-45 63 CURVE SMOOTH",
"-40 63 OFFCURVE",
"-27 69 OFFCURVE",
"-7 81 CURVE SMOOTH",
"12 93 OFFCURVE",
"36 109 OFFCURVE",
"64 130 CURVE",
"64 88 OFFCURVE",
"70 50 OFFCURVE",
"88 22 CURVE SMOOTH",
"106 -6 OFFCURVE",
"136 -24 OFFCURVE",
"184 -24 CURVE SMOOTH",
"215 -24 OFFCURVE",
"250 -20 OFFCURVE",
"283 -14 CURVE SMOOTH",
"315 -8 OFFCURVE",
"347 1 OFFCURVE",
"376 9 CURVE SMOOTH",
"409 20 OFFCURVE",
"442 31 OFFCURVE",
"474 43 CURVE",
"489 46 OFFCURVE",
"501 55 OFFCURVE",
"509 65 CURVE SMOOTH",
"517 76 OFFCURVE",
"521 88 OFFCURVE",
"521 102 CURVE SMOOTH",
"521 116 OFFCURVE",
"517 130 OFFCURVE",
"509 141 CURVE SMOOTH",
"501 151 OFFCURVE",
"489 158 OFFCURVE",
"473 158 CURVE SMOOTH",
"469 158 OFFCURVE",
"463 157 OFFCURVE",
"458 156 CURVE SMOOTH",
"294 109 LINE SMOOTH",
"270 102 OFFCURVE",
"250 98 OFFCURVE",
"235 98 CURVE SMOOTH",
"216 98 OFFCURVE",
"205 100 OFFCURVE",
"198 103 CURVE SMOOTH",
"191 106 OFFCURVE",
"189 111 OFFCURVE",
"189 117 CURVE SMOOTH",
"189 122 LINE SMOOTH",
"189 125 OFFCURVE",
"189 128 OFFCURVE",
"190 135 CURVE",
"190 141 OFFCURVE",
"190 149 OFFCURVE",
"191 161 CURVE SMOOTH",
"191 172 OFFCURVE",
"192 188 OFFCURVE",
"192 208 CURVE",
"228 230 OFFCURVE",
"262 255 OFFCURVE",
"295 283 CURVE SMOOTH",
"361 338 OFFCURVE",
"418 401 OFFCURVE",
"465 468 CURVE SMOOTH",
"470 476 OFFCURVE",
"475 482 OFFCURVE",
"479 489 CURVE",
"514 497 OFFCURVE",
"545 503 OFFCURVE",
"573 510 CURVE SMOOTH",
"602 516 OFFCURVE",
"626 521 OFFCURVE",
"646 526 CURVE SMOOTH",
"667 530 OFFCURVE",
"681 534 OFFCURVE",
"688 535 CURVE SMOOTH",
"708 540 OFFCURVE",
"722 548 OFFCURVE",
"729 557 CURVE SMOOTH",
"737 565 OFFCURVE",
"739 576 OFFCURVE",
"739 585 CURVE SMOOTH",
"739 604 OFFCURVE",
"734 616 OFFCURVE",
"727 623 CURVE SMOOTH",
"719 630 OFFCURVE",
"709 632 OFFCURVE",
"700 632 CURVE SMOOTH",
"694 632 OFFCURVE",
"688 632 OFFCURVE",
"684 630 CURVE",
"655 624 OFFCURVE",
"602 612 OFFCURVE",
"539 598 CURVE",
"560 646 OFFCURVE",
"578 705 OFFCURVE",
"578 766 CURVE SMOOTH",
"578 815 OFFCURVE",
"566 852 OFFCURVE",
"547 877 CURVE SMOOTH",
"527 902 OFFCURVE",
"500 914 OFFCURVE",
"467 914 CURVE SMOOTH",
"444 914 OFFCURVE",
"420 908 OFFCURVE",
"395 897 CURVE SMOOTH",
"343 874 OFFCURVE",
"289 827 OFFCURVE",
"238 758 CURVE SMOOTH",
"187 689 OFFCURVE",
"146 602 OFFCURVE",
"117 506 CURVE",
"116 506 OFFCURVE",
"115 506 OFFCURVE",
"113 505 CURVE",
"85 499 OFFCURVE",
"61 494 OFFCURVE",
"42 490 CURVE SMOOTH",
"21 485 OFFCURVE",
"9 483 OFFCURVE",
"2 481 CURVE SMOOTH",
"-13 478 OFFCURVE",
"-23 472 OFFCURVE",
"-29 465 CURVE SMOOTH",
"-35 458 OFFCURVE",
"-37 451 OFFCURVE",
"-37 443 CURVE SMOOTH",
"-37 437 OFFCURVE",
"-34 423 OFFCURVE",
"-27 411 CURVE SMOOTH",
"-21 399 OFFCURVE",
"-10 388 OFFCURVE",
"9 388 CURVE SMOOTH",
"13 388 OFFCURVE",
"18 389 OFFCURVE",
"22 390 CURVE SMOOTH",
"37 393 OFFCURVE",
"56 397 OFFCURVE",
"81 402 CURVE",
"84 403 OFFCURVE",
"88 404 OFFCURVE",
"92 405 CURVE",
"85 370 OFFCURVE",
"80 333 OFFCURVE",
"76 294 CURVE SMOOTH",
"72 261 LINE",
"57 250 OFFCURVE",
"41 239 OFFCURVE",
"25 228 CURVE SMOOTH",
"-6 206 OFFCURVE",
"-35 188 OFFCURVE",
"-55 174 CURVE SMOOTH",
"-65 167 OFFCURVE",
"-72 163 OFFCURVE",
"-76 160 CURVE SMOOTH"
);
},
{
closed = 1;
nodes = (
"292 544 OFFCURVE",
"267 539 OFFCURVE",
"242 533 CURVE",
"247 548 OFFCURVE",
"251 562 OFFCURVE",
"257 576 CURVE SMOOTH",
"284 646 OFFCURVE",
"316 704 OFFCURVE",
"347 745 CURVE SMOOTH",
"377 785 OFFCURVE",
"406 808 OFFCURVE",
"427 808 CURVE SMOOTH",
"445 808 OFFCURVE",
"456 792 OFFCURVE",
"456 754 CURVE SMOOTH",
"456 744 OFFCURVE",
"455 732 OFFCURVE",
"453 719 CURVE SMOOTH",
"448 680 OFFCURVE",
"429 636 OFFCURVE",
"402 589 CURVE",
"398 581 OFFCURVE",
"393 573 OFFCURVE",
"388 565 CURVE",
"365 560 OFFCURVE",
"342 555 OFFCURVE",
"318 550 CURVE SMOOTH"
);
},
{
closed = 1;
nodes = (
"204 366 OFFCURVE",
"209 399 OFFCURVE",
"215 432 CURVE",
"248 438 OFFCURVE",
"280 446 OFFCURVE",
"307 452 CURVE",
"307 451 LINE",
"271 407 OFFCURVE",
"234 366 OFFCURVE",
"201 331 CURVE"
);
}
);
width = 484;
}
);
note = Lslash;
unicode = 0141;
},
{
color = 3;
glyphname = M;
lastChange = "2016-07-22 20:56:15 +0000";
layers = (
{
background = {
paths = (
{
closed = 1;
nodes = (
"3173 227 OFFCURVE",
"3163 222 OFFCURVE",
"3153 209 CURVE SMOOTH",
"3101 141 OFFCURVE",
"3063 114 OFFCURVE",
"3019 114 CURVE SMOOTH",
"2976 114 OFFCURVE",
"2947 141 OFFCURVE",
"2947 208 CURVE SMOOTH",
"2947 229 OFFCURVE",
"2950 254 OFFCURVE",
"2956 284 CURVE SMOOTH",
"3017 570 LINE SMOOTH",
"3025 609 OFFCURVE",
"3030 645 OFFCURVE",
"3030 677 CURVE SMOOTH",
"3030 786 OFFCURVE",
"2984 848 OFFCURVE",
"2895 848 CURVE SMOOTH",
"2755 848 OFFCURVE",
"2668 718 OFFCURVE",
"2572 433 CURVE",
"2578 436 LINE",
"2604 544 OFFCURVE",
"2617 633 OFFCURVE",
"2617 667 CURVE SMOOTH",
"2617 786 OFFCURVE",
"2585 848 OFFCURVE",
"2485 848 CURVE SMOOTH",
"2333 848 OFFCURVE",
"2243 692 OFFCURVE",
"2131 361 CURVE",
"2138 370 LINE",
"2173 513 OFFCURVE",
"2195 663 OFFCURVE",
"2195 715 CURVE SMOOTH",
"2195 801 OFFCURVE",
"2159 848 OFFCURVE",
"2074 848 CURVE SMOOTH",
"1969 848 OFFCURVE",
"1883 773 OFFCURVE",
"1836 708 CURVE SMOOTH",
"1815 679 OFFCURVE",
"1806 649 OFFCURVE",
"1806 626 CURVE SMOOTH",
"1806 601 OFFCURVE",
"1817 584 OFFCURVE",
"1833 584 CURVE SMOOTH",
"1844 584 OFFCURVE",
"1859 593 OFFCURVE",
"1874 613 CURVE SMOOTH",
"1933 691 OFFCURVE",
"1984 729 OFFCURVE",
"2014 729 CURVE SMOOTH",
"2034 729 OFFCURVE",
"2050 718 OFFCURVE",
"2050 679 CURVE SMOOTH",
"2050 653 OFFCURVE",
"2046 615 OFFCURVE",
"2038 559 CURVE SMOOTH",
"2009 353 OFFCURVE",
"1971 179 OFFCURVE",
"1971 94 CURVE SMOOTH",
"1971 26 OFFCURVE",
"1996 -5 OFFCURVE",
"2038 -5 CURVE SMOOTH",
"2089 -5 OFFCURVE",
"2110 26 OFFCURVE",
"2126 86 CURVE SMOOTH",
"2209 397 OFFCURVE",
"2345 701 OFFCURVE",
"2433 701 CURVE SMOOTH",
"2456 701 OFFCURVE",
"2462 680 OFFCURVE",
"2462 635 CURVE SMOOTH",
"2462 587 OFFCURVE",
"2436 456 OFFCURVE",
"2413 335 CURVE SMOOTH",
"2401 272 OFFCURVE",
"2374 135 OFFCURVE",
"2374 81 CURVE SMOOTH",
"2374 10 OFFCURVE",
"2405 -5 OFFCURVE",
"2444 -5 CURVE SMOOTH",
"2501 -5 OFFCURVE",
"2527 26 OFFCURVE",
"2541 86 CURVE SMOOTH",
"2612 389 OFFCURVE",
"2751 701 OFFCURVE",
"2843 701 CURVE SMOOTH",
"2866 701 OFFCURVE",
"2872 675 OFFCURVE",
"2872 635 CURVE SMOOTH",
"2872 607 OFFCURVE",
"2866 572 OFFCURVE",
"2858 535 CURVE SMOOTH",
"2817 352 LINE SMOOTH",
"2799 273 OFFCURVE",
"2791 220 OFFCURVE",
"2791 180 CURVE SMOOTH",
"2791 68 OFFCURVE",
"2860 -5 OFFCURVE",
"2972 -5 CURVE SMOOTH",
"3050 -5 OFFCURVE",
"3137 38 OFFCURVE",
"3184 124 CURVE SMOOTH",
"3196 146 OFFCURVE",
"3201 169 OFFCURVE",
"3201 187 CURVE SMOOTH",
"3201 210 OFFCURVE",
"3193 227 OFFCURVE",
"3180 227 CURVE SMOOTH"
);
},
{
closed = 1;
nodes = (
"1305 227 OFFCURVE",
"1295 222 OFFCURVE",
"1285 209 CURVE SMOOTH",
"1233 141 OFFCURVE",
"1195 114 OFFCURVE",
"1151 114 CURVE SMOOTH",
"1108 114 OFFCURVE",
"1078 141 OFFCURVE",
"1078 198 CURVE SMOOTH",
"1078 229 OFFCURVE",
"1082 254 OFFCURVE",
"1088 284 CURVE SMOOTH",
"1149 570 LINE SMOOTH",
"1157 609 OFFCURVE",
"1162 645 OFFCURVE",
"1162 677 CURVE SMOOTH",
"1162 783 OFFCURVE",
"1121 848 OFFCURVE",
"1016 848 CURVE SMOOTH",
"888 848 OFFCURVE",
"780 750 OFFCURVE",
"708 493 CURVE",
"719 502 LINE",
"744 610 OFFCURVE",
"747 633 OFFCURVE",
"747 667 CURVE SMOOTH",
"747 786 OFFCURVE",
"707 848 OFFCURVE",
"602 848 CURVE SMOOTH",
"473 848 OFFCURVE",
"365 750 OFFCURVE",
"292 493 CURVE",
"303 502 LINE",
"321 602 OFFCURVE",
"327 668 OFFCURVE",
"327 715 CURVE SMOOTH",
"327 801 OFFCURVE",
"291 848 OFFCURVE",
"206 848 CURVE SMOOTH",
"101 848 OFFCURVE",
"15 773 OFFCURVE",
"-32 708 CURVE SMOOTH",
"-53 679 OFFCURVE",
"-62 649 OFFCURVE",
"-62 626 CURVE SMOOTH",
"-62 601 OFFCURVE",
"-51 584 OFFCURVE",
"-35 584 CURVE SMOOTH",
"-24 584 OFFCURVE",
"-9 593 OFFCURVE",
"6 613 CURVE SMOOTH",
"65 691 OFFCURVE",
"116 729 OFFCURVE",
"146 729 CURVE SMOOTH",
"166 729 OFFCURVE",
"182 718 OFFCURVE",
"182 679 CURVE SMOOTH",
"182 653 OFFCURVE",
"178 615 OFFCURVE",
"170 559 CURVE SMOOTH",
"141 353 OFFCURVE",
"103 179 OFFCURVE",
"103 94 CURVE SMOOTH",
"103 26 OFFCURVE",
"128 -5 OFFCURVE",
"170 -5 CURVE SMOOTH",
"221 -5 OFFCURVE",
"249 25 OFFCURVE",
"258 86 CURVE SMOOTH",
"327 545 OFFCURVE",
"460 721 OFFCURVE",
"543 721 CURVE SMOOTH",
"575 721 OFFCURVE",
"594 698 OFFCURVE",
"594 635 CURVE SMOOTH",
"594 587 OFFCURVE",
"568 456 OFFCURVE",
"545 335 CURVE SMOOTH",
"533 272 OFFCURVE",
"506 135 OFFCURVE",
"506 81 CURVE SMOOTH",
"506 10 OFFCURVE",
"537 -5 OFFCURVE",
"576 -5 CURVE SMOOTH",
"635 -5 OFFCURVE",
"663 25 OFFCURVE",
"672 86 CURVE SMOOTH",
"740 545 OFFCURVE",
"874 721 OFFCURVE",
"957 721 CURVE SMOOTH",
"989 721 OFFCURVE",
"1008 698 OFFCURVE",
"1008 639 CURVE SMOOTH",
"1008 607 OFFCURVE",
"998 572 OFFCURVE",
"990 535 CURVE SMOOTH",
"949 352 LINE SMOOTH",
"931 273 OFFCURVE",
"925 221 OFFCURVE",
"925 181 CURVE SMOOTH",
"925 69 OFFCURVE",
"992 -5 OFFCURVE",
"1104 -5 CURVE SMOOTH",
"1182 -5 OFFCURVE",
"1269 38 OFFCURVE",
"1316 124 CURVE SMOOTH",
"1328 146 OFFCURVE",
"1333 169 OFFCURVE",
"1333 187 CURVE SMOOTH",
"1333 210 OFFCURVE",
"1325 227 OFFCURVE",
"1312 227 CURVE SMOOTH"
);
}
);
};
layerId = "ECEFE970-1BBB-4E0A-A452-CEB55884B4A3";
paths = (
{
closed = 1;
nodes = (
"1305 227 OFFCURVE",
"1295 222 OFFCURVE",
"1285 209 CURVE SMOOTH",
"1233 141 OFFCURVE",
"1195 114 OFFCURVE",
"1151 114 CURVE SMOOTH",
"1108 114 OFFCURVE",
"1078 141 OFFCURVE",
"1078 198 CURVE SMOOTH",
"1078 229 OFFCURVE",
"1082 254 OFFCURVE",
"1088 284 CURVE SMOOTH",
"1149 570 LINE SMOOTH",
"1157 609 OFFCURVE",
"1162 645 OFFCURVE",
"1162 677 CURVE SMOOTH",
"1162 783 OFFCURVE",
"1112 848 OFFCURVE",
"1011 848 CURVE SMOOTH",
"883 848 OFFCURVE",
"780 760 OFFCURVE",
"708 493 CURVE",
"719 502 LINE",
"744 610 OFFCURVE",
"747 633 OFFCURVE",
"747 669 CURVE SMOOTH",
"747 785 OFFCURVE",
"698 848 OFFCURVE",
"597 848 CURVE SMOOTH",
"468 848 OFFCURVE",
"365 760 OFFCURVE",
"292 493 CURVE",
"303 502 LINE",
"321 602 OFFCURVE",
"327 668 OFFCURVE",
"327 715 CURVE SMOOTH",
"327 801 OFFCURVE",
"291 848 OFFCURVE",
"206 848 CURVE SMOOTH",
"101 848 OFFCURVE",
"15 773 OFFCURVE",
"-32 708 CURVE SMOOTH",
"-53 679 OFFCURVE",
"-62 649 OFFCURVE",
"-62 626 CURVE SMOOTH",
"-62 601 OFFCURVE",
"-51 584 OFFCURVE",
"-35 584 CURVE SMOOTH",
"-24 584 OFFCURVE",
"-9 593 OFFCURVE",
"6 613 CURVE SMOOTH",
"65 691 OFFCURVE",
"116 729 OFFCURVE",
"146 729 CURVE SMOOTH",
"166 729 OFFCURVE",
"182 718 OFFCURVE",
"182 679 CURVE SMOOTH",
"182 653 OFFCURVE",
"178 615 OFFCURVE",
"170 559 CURVE SMOOTH",
"141 353 OFFCURVE",
"103 179 OFFCURVE",
"103 94 CURVE SMOOTH",
"103 26 OFFCURVE",
"128 -5 OFFCURVE",
"170 -5 CURVE SMOOTH",
"221 -5 OFFCURVE",
"249 25 OFFCURVE",
"258 86 CURVE SMOOTH",
"331 575 OFFCURVE",
"460 721 OFFCURVE",
"544 721 CURVE SMOOTH",
"575 721 OFFCURVE",
"594 698 OFFCURVE",
"594 647 CURVE SMOOTH",
"594 587 OFFCURVE",
"568 456 OFFCURVE",
"545 335 CURVE SMOOTH",
"533 272 OFFCURVE",
"506 135 OFFCURVE",
"506 81 CURVE SMOOTH",
"506 20 OFFCURVE",
"537 -5 OFFCURVE",
"580 -5 CURVE SMOOTH",
"635 -5 OFFCURVE",
"663 25 OFFCURVE",
"672 86 CURVE SMOOTH",
"744 574 OFFCURVE",
"874 721 OFFCURVE",
"958 721 CURVE SMOOTH",
"989 721 OFFCURVE",
"1008 698 OFFCURVE",
"1008 651 CURVE SMOOTH",
"1008 607 OFFCURVE",
"998 572 OFFCURVE",
"990 535 CURVE SMOOTH",
"949 352 LINE SMOOTH",
"931 273 OFFCURVE",
"925 221 OFFCURVE",
"925 181 CURVE SMOOTH",
"925 69 OFFCURVE",
"992 -5 OFFCURVE",
"1104 -5 CURVE SMOOTH",
"1182 -5 OFFCURVE",
"1269 38 OFFCURVE",
"1316 124 CURVE SMOOTH",
"1328 146 OFFCURVE",
"1333 169 OFFCURVE",
"1333 187 CURVE SMOOTH",
"1333 210 OFFCURVE",
"1325 227 OFFCURVE",
"1312 227 CURVE SMOOTH"
);
}
);
width = 1201;
}
);
leftMetricsKey = N;
note = M;
rightMetricsKey = N;
unicode = 004D;
},
{
color = 3;
glyphname = N;
lastChange = "2016-07-22 20:49:06 +0000";
layers = (
{
background = {
paths = (
{
closed = 1;
nodes = (
"477 848 OFFCURVE",
"375 680 OFFCURVE",
"279 398 CURVE",
"170 -5 LINE",
"221 -5 OFFCURVE",
"243 26 OFFCURVE",
"258 86 CURVE SMOOTH",
"322 342 OFFCURVE",
"480 701 OFFCURVE",
"596 701 CURVE SMOOTH",
"629 701 OFFCURVE",
"641 675 OFFCURVE",
"641 635 CURVE SMOOTH",
"641 607 OFFCURVE",
"635 572 OFFCURVE",
"627 535 CURVE SMOOTH",
"586 352 LINE SMOOTH",
"569 273 OFFCURVE",
"562 220 OFFCURVE",
"562 180 CURVE SMOOTH",
"562 68 OFFCURVE",
"629 -5 OFFCURVE",
"741 -5 CURVE SMOOTH",
"819 -5 OFFCURVE",
"906 38 OFFCURVE",
"953 124 CURVE SMOOTH",
"965 146 OFFCURVE",
"970 169 OFFCURVE",
"970 187 CURVE SMOOTH",
"970 210 OFFCURVE",
"962 227 OFFCURVE",
"949 227 CURVE SMOOTH",
"942 227 OFFCURVE",
"932 222 OFFCURVE",
"922 209 CURVE SMOOTH",
"869 142 OFFCURVE",
"832 114 OFFCURVE",
"788 114 CURVE SMOOTH",
"745 114 OFFCURVE",
"716 141 OFFCURVE",
"716 208 CURVE SMOOTH",
"716 229 OFFCURVE",
"719 254 OFFCURVE",
"725 284 CURVE SMOOTH",
"786 570 LINE SMOOTH",
"794 609 OFFCURVE",
"799 645 OFFCURVE",
"799 677 CURVE SMOOTH",
"799 786 OFFCURVE",
"753 848 OFFCURVE",
"654 848 CURVE SMOOTH"
);
},
{
closed = 1;
nodes = (
"106 848 OFFCURVE",
"15 773 OFFCURVE",
"-32 708 CURVE SMOOTH",
"-53 679 OFFCURVE",
"-62 649 OFFCURVE",
"-62 626 CURVE SMOOTH",
"-62 601 OFFCURVE",
"-51 584 OFFCURVE",
"-35 584 CURVE SMOOTH",
"-24 584 OFFCURVE",
"-9 593 OFFCURVE",
"6 613 CURVE SMOOTH",
"65 691 OFFCURVE",
"116 729 OFFCURVE",
"146 729 CURVE SMOOTH",
"166 729 OFFCURVE",
"182 718 OFFCURVE",
"182 679 CURVE SMOOTH",
"182 653 OFFCURVE",
"178 615 OFFCURVE",
"170 559 CURVE SMOOTH",
"137 323 OFFCURVE",
"99 189 OFFCURVE",
"99 94 CURVE SMOOTH",
"99 6 OFFCURVE",
"128 -5 OFFCURVE",
"169 -5 CURVE",
"246 87 LINE",
"279 398 LINE",
"309 539 OFFCURVE",
"327 668 OFFCURVE",
"327 715 CURVE SMOOTH",
"327 801 OFFCURVE",
"296 848 OFFCURVE",
"211 848 CURVE SMOOTH"
);
}
);
};
layerId = "ECEFE970-1BBB-4E0A-A452-CEB55884B4A3";
paths = (
{
closed = 1;
nodes = (
"479 848 OFFCURVE",
"377 741 OFFCURVE",
"311 547 CURVE",
"170 -5 LINE",
"221 -5 OFFCURVE",
"251 25 OFFCURVE",
"260 86 CURVE SMOOTH",
"328 555 OFFCURVE",
"460 721 OFFCURVE",
"571 721 CURVE SMOOTH",
"616 721 OFFCURVE",
"638 692 OFFCURVE",
"638 647 CURVE SMOOTH",
"638 609 OFFCURVE",
"630 572 OFFCURVE",
"622 535 CURVE SMOOTH",
"581 352 LINE SMOOTH",
"564 273 OFFCURVE",
"557 226 OFFCURVE",
"557 181 CURVE SMOOTH",
"557 69 OFFCURVE",
"624 -5 OFFCURVE",
"736 -5 CURVE SMOOTH",
"814 -5 OFFCURVE",
"901 38 OFFCURVE",
"948 124 CURVE SMOOTH",
"960 146 OFFCURVE",
"965 169 OFFCURVE",
"965 187 CURVE SMOOTH",
"965 210 OFFCURVE",
"957 227 OFFCURVE",
"944 227 CURVE SMOOTH",
"937 227 OFFCURVE",
"927 222 OFFCURVE",
"917 209 CURVE SMOOTH",
"864 142 OFFCURVE",
"827 114 OFFCURVE",
"783 114 CURVE SMOOTH",
"740 114 OFFCURVE",
"710 141 OFFCURVE",
"710 198 CURVE SMOOTH",
"710 229 OFFCURVE",
"714 254 OFFCURVE",
"720 284 CURVE SMOOTH",
"781 570 LINE SMOOTH",
"789 609 OFFCURVE",
"793 645 OFFCURVE",
"793 677 CURVE SMOOTH",
"793 776 OFFCURVE",
"738 848 OFFCURVE",
"619 848 CURVE SMOOTH"
);
},
{
closed = 1;
nodes = (
"101 848 OFFCURVE",
"15 773 OFFCURVE",
"-32 708 CURVE SMOOTH",
"-53 679 OFFCURVE",
"-62 649 OFFCURVE",
"-62 626 CURVE SMOOTH",
"-62 601 OFFCURVE",
"-51 584 OFFCURVE",
"-35 584 CURVE SMOOTH",
"-24 584 OFFCURVE",
"-9 593 OFFCURVE",
"6 613 CURVE SMOOTH",
"65 691 OFFCURVE",
"116 729 OFFCURVE",
"146 729 CURVE SMOOTH",
"166 729 OFFCURVE",
"182 718 OFFCURVE",
"182 679 CURVE SMOOTH",
"182 653 OFFCURVE",
"178 615 OFFCURVE",
"170 559 CURVE SMOOTH",
"141 353 OFFCURVE",
"103 179 OFFCURVE",
"103 94 CURVE SMOOTH",
"103 26 OFFCURVE",
"128 -5 OFFCURVE",
"169 -5 CURVE",
"246 87 LINE",
"311 547 LINE",
"320 609 OFFCURVE",
"327 668 OFFCURVE",
"327 715 CURVE SMOOTH",
"327 801 OFFCURVE",
"291 848 OFFCURVE",
"206 848 CURVE SMOOTH"
);
}
);
width = 833;
}
);
note = N;
unicode = 004E;
},
{
color = 3;
glyphname = O;
lastChange = "2016-07-22 10:30:36 +0000";
layers = (
{
background = {
paths = (
{
closed = 1;
nodes = (
"617 -5 OFFCURVE",
"803 217 OFFCURVE",
"803 505 CURVE SMOOTH",
"803 724 OFFCURVE",
"671 848 OFFCURVE",
"497 848 CURVE SMOOTH",
"222 848 OFFCURVE",
"69 592 OFFCURVE",
"69 338 CURVE SMOOTH",
"69 119 OFFCURVE",
"201 -5 OFFCURVE",
"385 -5 CURVE SMOOTH"
);
},
{
closed = 1;
nodes = (
"296 117 OFFCURVE",
"218 191 OFFCURVE",
"218 356 CURVE SMOOTH",
"218 550 OFFCURVE",
"322 726 OFFCURVE",
"476 726 CURVE SMOOTH",
"576 726 OFFCURVE",
"654 651 OFFCURVE",
"654 487 CURVE SMOOTH",
"654 265 OFFCURVE",
"532 117 OFFCURVE",
"396 117 CURVE SMOOTH"
);
}
);
};
guideLines = (
{
angle = 90;
position = "{211, 354}";
},
{
angle = 90;
position = "{665, 354}";
},
{
position = "{391, 105}";
},
{
position = "{391, 738}";
}
);
layerId = "ECEFE970-1BBB-4E0A-A452-CEB55884B4A3";
paths = (
{
closed = 1;
nodes = (
"617 -5 OFFCURVE",
"803 217 OFFCURVE",
"803 505 CURVE SMOOTH",
"803 724 OFFCURVE",
"661 848 OFFCURVE",
"487 848 CURVE SMOOTH",
"212 848 OFFCURVE",
"69 592 OFFCURVE",
"69 338 CURVE SMOOTH",
"69 119 OFFCURVE",
"201 -5 OFFCURVE",
"385 -5 CURVE SMOOTH"
);
},
{
closed = 1;
nodes = (
"296 115 OFFCURVE",
"218 191 OFFCURVE",
"218 356 CURVE SMOOTH",
"218 570 OFFCURVE",
"322 728 OFFCURVE",
"476 728 CURVE SMOOTH",
"576 728 OFFCURVE",
"654 651 OFFCURVE",
"654 487 CURVE SMOOTH",
"654 245 OFFCURVE",
"532 115 OFFCURVE",
"396 115 CURVE SMOOTH"
);
}
);
width = 814;
}
);
note = O;
unicode = 004F;
},
{
color = 3;
glyphname = Oslash;
lastChange = "2016-07-22 12:15:25 +0000";
layers = (
{
background = {
paths = (
{
closed = 1;
nodes = (
"1255 -94 OFFCURVE",
"1334 -54 OFFCURVE",
"1399 8 CURVE SMOOTH",
"1464 70 OFFCURVE",
"1513 156 OFFCURVE",
"1546 248 CURVE SMOOTH",
"1579 339 OFFCURVE",
"1597 437 OFFCURVE",
"1597 524 CURVE SMOOTH",
"1597 612 OFFCURVE",
"1579 689 OFFCURVE",
"1546 752 CURVE SMOOTH",
"1513 815 OFFCURVE",
"1463 860 OFFCURVE",
"1401 885 CURVE",
"1403 891 OFFCURVE",
"1408 911 OFFCURVE",
"1413 932 CURVE SMOOTH",
"1418 952 OFFCURVE",
"1424 974 OFFCURVE",
"1424 983 CURVE",
"1425 986 OFFCURVE",
"1425 988 OFFCURVE",
"1425 991 CURVE SMOOTH",
"1425 993 OFFCURVE",
"1425 996 OFFCURVE",
"1425 998 CURVE SMOOTH",
"1425 1017 OFFCURVE",
"1422 1030 OFFCURVE",
"1404 1030 CURVE SMOOTH",
"1386 1030 OFFCURVE",
"1371 1021 OFFCURVE",
"1359 1006 CURVE SMOOTH",
"1347 991 OFFCURVE",
"1336 971 OFFCURVE",
"1330 950 CURVE SMOOTH",
"1318 905 LINE",
"1307 906 OFFCURVE",
"1297 906 OFFCURVE",
"1286 906 CURVE SMOOTH",
"1189 906 OFFCURVE",
"1108 869 OFFCURVE",
"1043 809 CURVE SMOOTH",
"978 749 OFFCURVE",
"929 667 OFFCURVE",
"896 579 CURVE SMOOTH",
"863 491 OFFCURVE",
"847 396 OFFCURVE",
"847 309 CURVE SMOOTH",
"847 218 OFFCURVE",
"865 137 OFFCURVE",
"899 72 CURVE SMOOTH",
"933 7 OFFCURVE",
"981 -42 OFFCURVE",
"1043 -69 CURVE",
"1030 -113 OFFCURVE",
"1026 -146 OFFCURVE",
"1026 -168 CURVE SMOOTH",
"1026 -190 OFFCURVE",
"1029 -202 OFFCURVE",
"1036 -208 CURVE",
"1042 -214 OFFCURVE",
"1050 -215 OFFCURVE",
"1060 -215 CURVE SMOOTH",
"1068 -215 OFFCURVE",
"1076 -213 OFFCURVE",
"1084 -206 CURVE SMOOTH",
"1093 -198 OFFCURVE",
"1102 -184 OFFCURVE",
"1110 -160 CURVE",
"1130 -92 LINE",
"1140 -93 OFFCURVE",
"1151 -94 OFFCURVE",
"1162 -94 CURVE SMOOTH"
);
},
{
closed = 1;
nodes = (
"1172 16 OFFCURVE",
"1170 16 OFFCURVE",
"1168 16 CURVE SMOOTH",
"1165 16 OFFCURVE",
"1163 16 OFFCURVE",
"1161 16 CURVE",
"1175 63 OFFCURVE",
"1188 111 OFFCURVE",
"1202 159 CURVE SMOOTH",
"1216 208 OFFCURVE",
"1229 255 OFFCURVE",
"1242 303 CURVE SMOOTH",
"1255 350 OFFCURVE",
"1268 396 OFFCURVE",
"1280 442 CURVE SMOOTH",
"1304 533 OFFCURVE",
"1328 617 OFFCURVE",
"1348 691 CURVE SMOOTH",
"1358 729 OFFCURVE",
"1368 763 OFFCURVE",
"1376 794 CURVE",
"1408 776 OFFCURVE",
"1432 745 OFFCURVE",
"1448 705 CURVE SMOOTH",
"1464 665 OFFCURVE",
"1472 615 OFFCURVE",
"1472 563 CURVE SMOOTH",
"1472 518 OFFCURVE",
"1467 461 OFFCURVE",
"1455 401 CURVE SMOOTH",
"1443 342 OFFCURVE",
"1425 278 OFFCURVE",
"1401 222 CURVE SMOOTH",
"1377 165 OFFCURVE",
"1346 113 OFFCURVE",
"1309 76 CURVE SMOOTH",
"1271 38 OFFCURVE",
"1226 16 OFFCURVE",
"1174 16 CURVE SMOOTH"
);
},
{
closed = 1;
nodes = (
"1042 66 OFFCURVE",
"1016 100 OFFCURVE",
"999 141 CURVE SMOOTH",
"982 182 OFFCURVE",
"972 230 OFFCURVE",
"972 285 CURVE SMOOTH",
"972 356 OFFCURVE",
"988 438 OFFCURVE",
"1016 514 CURVE SMOOTH",
"1044 590 OFFCURVE",
"1085 663 OFFCURVE",
"1132 717 CURVE SMOOTH",
"1179 771 OFFCURVE",
"1234 808 OFFCURVE",
"1292 812 CURVE",
"1271 738 OFFCURVE",
"1246 650 OFFCURVE",
"1220 558 CURVE SMOOTH",
"1194 465 OFFCURVE",
"1167 369 OFFCURVE",
"1141 280 CURVE SMOOTH",
"1128 235 OFFCURVE",
"1117 193 OFFCURVE",
"1106 153 CURVE SMOOTH",
"1095 113 OFFCURVE",
"1084 77 OFFCURVE",
"1075 44 CURVE"
);
}
);
};
guideLines = (
{
angle = 83.1811;
position = "{436, 422}";
}
);
layerId = "ECEFE970-1BBB-4E0A-A452-CEB55884B4A3";
paths = (
{
closed = 1;
nodes = (
"617 -5 OFFCURVE",
"803 217 OFFCURVE",
"803 505 CURVE SMOOTH",
"803 724 OFFCURVE",
"661 848 OFFCURVE",
"487 848 CURVE SMOOTH",
"212 848 OFFCURVE",
"69 592 OFFCURVE",
"69 338 CURVE SMOOTH",
"69 119 OFFCURVE",
"201 -5 OFFCURVE",
"385 -5 CURVE SMOOTH"
);
},
{
closed = 1;
nodes = (
"296 115 OFFCURVE",
"218 191 OFFCURVE",
"218 356 CURVE SMOOTH",
"218 570 OFFCURVE",
"322 728 OFFCURVE",
"476 728 CURVE SMOOTH",
"576 728 OFFCURVE",
"654 651 OFFCURVE",
"654 487 CURVE SMOOTH",
"654 245 OFFCURVE",
"532 115 OFFCURVE",
"396 115 CURVE SMOOTH"
);
},
{
closed = 1;
nodes = (
"392 455 LINE",
"254 -57 LINE SMOOTH",
"232 -137 OFFCURVE",
"341 -147 OFFCURVE",
"357 -84 CURVE SMOOTH",
"496 451 LINE",
"617 893 LINE SMOOTH",
"639 974 OFFCURVE",
"529 984 OFFCURVE",
"513 921 CURVE SMOOTH"
);
}
);
width = 814;
}
);
leftMetricsKey = O;
note = Oslash;
rightMetricsKey = O;
unicode = 00D8;
},
{
color = 3;
glyphname = OE;
lastChange = "2016-07-22 19:25:56 +0000";
layers = (
{
background = {
paths = (
{
closed = 1;
nodes = (
"617 -5 OFFCURVE",
"803 217 OFFCURVE",
"803 505 CURVE SMOOTH",
"803 724 OFFCURVE",
"661 848 OFFCURVE",
"487 848 CURVE SMOOTH",
"212 848 OFFCURVE",
"69 592 OFFCURVE",
"69 338 CURVE SMOOTH",
"69 119 OFFCURVE",
"201 -5 OFFCURVE",
"385 -5 CURVE SMOOTH"
);
},
{
closed = 1;
nodes = (
"296 115 OFFCURVE",
"218 191 OFFCURVE",
"218 356 CURVE SMOOTH",
"218 570 OFFCURVE",
"322 728 OFFCURVE",
"476 728 CURVE SMOOTH",
"576 728 OFFCURVE",
"654 651 OFFCURVE",
"654 487 CURVE SMOOTH",
"654 245 OFFCURVE",
"532 115 OFFCURVE",
"396 115 CURVE SMOOTH"
);
},
{
closed = 1;
nodes = (
"1161 720 OFFCURVE",
"1191 751 OFFCURVE",
"1191 787 CURVE SMOOTH",
"1191 824 OFFCURVE",
"1166 849 OFFCURVE",
"1107 849 CURVE SMOOTH",
"1031 849 OFFCURVE",
"961 845 OFFCURVE",
"907 842 CURVE SMOOTH",
"820 837 OFFCURVE",
"759 801 OFFCURVE",
"729 691 CURVE SMOOTH",
"658 431 LINE",
"649 264 LINE",
"643 121 OFFCURVE",
"725 -5 OFFCURVE",
"950 -5 CURVE SMOOTH",
"1041 -5 OFFCURVE",
"1124 20 OFFCURVE",
"1200 59 CURVE SMOOTH",
"1284 102 OFFCURVE",
"1281 200 OFFCURVE",
"1202 174 CURVE SMOOTH",
"1131 151 OFFCURVE",
"1057 120 OFFCURVE",
"973 120 CURVE SMOOTH",
"806 120 OFFCURVE",
"770 212 OFFCURVE",
"804 361 CURVE",
"913 363 OFFCURVE",
"961 365 OFFCURVE",
"1039 367 CURVE SMOOTH",
"1102 369 OFFCURVE",
"1125 396 OFFCURVE",
"1125 436 CURVE SMOOTH",
"1125 464 OFFCURVE",
"1110 490 OFFCURVE",
"1061 490 CURVE SMOOTH",
"990 490 OFFCURVE",
"917 486 OFFCURVE",
"828 483 CURVE",
"844 556 OFFCURVE",
"866 651 OFFCURVE",
"886 713 CURVE",
"927 716 OFFCURVE",
"1027 720 OFFCURVE",
"1079 720 CURVE SMOOTH"
);
}
);
};
layerId = "ECEFE970-1BBB-4E0A-A452-CEB55884B4A3";
paths = (
{
closed = 1;
nodes = (
"617 -5 OFFCURVE",
"787 217 OFFCURVE",
"787 505 CURVE SMOOTH",
"787 724 OFFCURVE",
"661 848 OFFCURVE",
"487 848 CURVE SMOOTH",
"212 848 OFFCURVE",
"69 592 OFFCURVE",
"69 338 CURVE SMOOTH",
"69 119 OFFCURVE",
"201 -5 OFFCURVE",
"385 -5 CURVE SMOOTH"
);
},
{
closed = 1;
nodes = (
"296 115 OFFCURVE",
"218 191 OFFCURVE",
"218 356 CURVE SMOOTH",
"218 570 OFFCURVE",
"322 728 OFFCURVE",
"476 728 CURVE SMOOTH",
"576 728 OFFCURVE",
"654 651 OFFCURVE",
"654 487 CURVE SMOOTH",
"654 245 OFFCURVE",
"532 115 OFFCURVE",
"396 115 CURVE SMOOTH"
);
},
{
closed = 1;
nodes = (
"1160 720 OFFCURVE",
"1190 751 OFFCURVE",
"1190 787 CURVE SMOOTH",
"1190 824 OFFCURVE",
"1165 849 OFFCURVE",
"1106 849 CURVE SMOOTH",
"1030 849 OFFCURVE",
"960 845 OFFCURVE",
"906 842 CURVE SMOOTH",
"819 837 OFFCURVE",
"758 801 OFFCURVE",
"728 691 CURVE SMOOTH",
"681 520 LINE",
"648 264 LINE",
"642 121 OFFCURVE",
"724 -5 OFFCURVE",
"949 -5 CURVE SMOOTH",
"1040 -5 OFFCURVE",
"1123 20 OFFCURVE",
"1199 59 CURVE SMOOTH",
"1283 102 OFFCURVE",
"1280 200 OFFCURVE",
"1201 174 CURVE SMOOTH",
"1130 151 OFFCURVE",
"1056 120 OFFCURVE",
"972 120 CURVE SMOOTH",
"805 120 OFFCURVE",
"769 212 OFFCURVE",
"803 361 CURVE",
"912 363 OFFCURVE",
"960 365 OFFCURVE",
"1038 367 CURVE SMOOTH",
"1101 369 OFFCURVE",
"1124 396 OFFCURVE",
"1124 436 CURVE SMOOTH",
"1124 464 OFFCURVE",
"1109 490 OFFCURVE",
"1060 490 CURVE SMOOTH",
"989 490 OFFCURVE",
"916 486 OFFCURVE",
"827 483 CURVE",
"843 556 OFFCURVE",
"865 651 OFFCURVE",
"885 713 CURVE",
"926 716 OFFCURVE",
"1026 720 OFFCURVE",
"1078 720 CURVE SMOOTH"
);
}
);
width = 1124;
}
);
note = OE;
unicode = 0152;
},
{
glyphname = P;
lastChange = "2016-07-18 14:46:18 +0000";
layers = (
{
layerId = "ECEFE970-1BBB-4E0A-A452-CEB55884B4A3";
paths = (
{
closed = 1;
nodes = (
"384 890 OFFCURVE",
"310 862 OFFCURVE",
"248 813 CURVE SMOOTH",
"185 763 OFFCURVE",
"134 693 OFFCURVE",
"99 609 CURVE SMOOTH",
"63 525 OFFCURVE",
"44 429 OFFCURVE",
"44 326 CURVE SMOOTH",
"44 266 OFFCURVE",
"50 196 OFFCURVE",
"63 129 CURVE SMOOTH",
"77 63 OFFCURVE",
"99 -1 OFFCURVE",
"130 -48 CURVE SMOOTH",
"162 -95 OFFCURVE",
"204 -125 OFFCURVE",
"257 -125 CURVE SMOOTH",
"307 -125 OFFCURVE",
"350 -104 OFFCURVE",
"384 -73 CURVE SMOOTH",
"418 -42 OFFCURVE",
"443 2 OFFCURVE",
"461 49 CURVE SMOOTH",
"479 96 OFFCURVE",
"488 146 OFFCURVE",
"490 192 CURVE SMOOTH",
"490 194 OFFCURVE",
"490 197 OFFCURVE",
"490 203 CURVE",
"490 208 OFFCURVE",
"490 214 OFFCURVE",
"491 221 CURVE",
"491 228 OFFCURVE",
"491 236 OFFCURVE",
"491 244 CURVE SMOOTH",
"492 252 OFFCURVE",
"492 261 OFFCURVE",
"492 270 CURVE SMOOTH",
"493 290 OFFCURVE",
"494 311 OFFCURVE",
"495 335 CURVE",
"597 351 OFFCURVE",
"673 391 OFFCURVE",
"723 444 CURVE SMOOTH",
"772 497 OFFCURVE",
"797 561 OFFCURVE",
"797 625 CURVE SMOOTH",
"797 693 OFFCURVE",
"769 760 OFFCURVE",
"714 809 CURVE SMOOTH",
"660 858 OFFCURVE",
"577 890 OFFCURVE",
"468 890 CURVE SMOOTH"
);
},
{
closed = 1;
nodes = (
"175 403 OFFCURVE",
"184 474 OFFCURVE",
"204 539 CURVE SMOOTH",
"224 604 OFFCURVE",
"254 663 OFFCURVE",
"296 706 CURVE SMOOTH",
"337 749 OFFCURVE",
"391 775 OFFCURVE",
"457 775 CURVE SMOOTH",
"544 775 OFFCURVE",
"601 753 OFFCURVE",
"635 722 CURVE SMOOTH",
"670 690 OFFCURVE",
"682 650 OFFCURVE",
"682 614 CURVE SMOOTH",
"682 577 OFFCURVE",
"668 541 OFFCURVE",
"638 511 CURVE SMOOTH",
"607 482 OFFCURVE",
"562 459 OFFCURVE",
"498 450 CURVE",
"502 488 LINE",
"532 614 LINE",
"532 615 OFFCURVE",
"532 616 OFFCURVE",
"532 617 CURVE",
"532 618 OFFCURVE",
"532 619 OFFCURVE",
"532 622 CURVE SMOOTH",
"532 638 OFFCURVE",
"524 648 OFFCURVE",
"515 654 CURVE",
"504 660 OFFCURVE",
"491 662 OFFCURVE",
"479 662 CURVE SMOOTH",
"441 662 OFFCURVE",
"416 641 OFFCURVE",
"399 611 CURVE SMOOTH",
"383 582 OFFCURVE",
"375 545 OFFCURVE",
"372 513 CURVE SMOOTH",
"368 480 OFFCURVE",
"369 453 OFFCURVE",
"369 444 CURVE",
"363 446 OFFCURVE",
"356 448 OFFCURVE",
"349 450 CURVE SMOOTH",
"337 455 OFFCURVE",
"319 462 OFFCURVE",
"297 474 CURVE SMOOTH",
"289 478 OFFCURVE",
"284 481 OFFCURVE",
"278 481 CURVE SMOOTH",
"268 481 OFFCURVE",
"263 475 OFFCURVE",
"260 466 CURVE SMOOTH",
"257 458 OFFCURVE",
"257 445 OFFCURVE",
"257 434 CURVE SMOOTH",
"257 412 OFFCURVE",
"259 396 OFFCURVE",
"275 381 CURVE SMOOTH",
"291 366 OFFCURVE",
"319 351 OFFCURVE",
"374 329 CURVE",
"374 306 LINE SMOOTH",
"374 276 OFFCURVE",
"373 231 OFFCURVE",
"368 185 CURVE SMOOTH",
"364 138 OFFCURVE",
"355 89 OFFCURVE",
"339 52 CURVE SMOOTH",
"324 15 OFFCURVE",
"301 -10 OFFCURVE",
"268 -10 CURVE SMOOTH",
"236 -10 OFFCURVE",
"215 20 OFFCURVE",
"202 63 CURVE SMOOTH",
"188 105 OFFCURVE",
"181 161 OFFCURVE",
"178 212 CURVE SMOOTH",
"174 263 OFFCURVE",
"175 312 OFFCURVE",
"175 338 CURVE SMOOTH"
);
}
);
width = 704;
}
);
note = P;
unicode = 0050;
},
{
glyphname = Thorn;
lastChange = "2016-07-18 14:46:18 +0000";
layers = (
{
layerId = "ECEFE970-1BBB-4E0A-A452-CEB55884B4A3";
paths = (
{
closed = 1;
nodes = (
"545 204 OFFCURVE",
"621 235 OFFCURVE",
"671 275 CURVE SMOOTH",
"721 315 OFFCURVE",
"745 363 OFFCURVE",
"745 414 CURVE SMOOTH",
"745 474 OFFCURVE",
"723 533 OFFCURVE",
"680 580 CURVE SMOOTH",
"636 627 OFFCURVE",
"571 662 OFFCURVE",
"485 674 CURVE",
"492 740 LINE",
"527 906 LINE",
"527 907 OFFCURVE",
"527 908 OFFCURVE",
"527 909 CURVE",
"527 910 OFFCURVE",
"527 911 OFFCURVE",
"527 914 CURVE SMOOTH",
"527 930 OFFCURVE",
"521 940 OFFCURVE",
"513 946 CURVE",
"505 952 OFFCURVE",
"494 954 OFFCURVE",
"484 954 CURVE SMOOTH",
"453 954 OFFCURVE",
"431 936 OFFCURVE",
"414 909 CURVE SMOOTH",
"397 882 OFFCURVE",
"387 847 OFFCURVE",
"380 813 CURVE SMOOTH",
"373 780 OFFCURVE",
"370 748 OFFCURVE",
"369 727 CURVE SMOOTH",
"369 726 OFFCURVE",
"369 720 OFFCURVE",
"368 711 CURVE",
"367 702 OFFCURVE",
"366 690 OFFCURVE",
"364 675 CURVE",
"269 662 OFFCURVE",
"189 613 OFFCURVE",
"133 536 CURVE SMOOTH",
"78 458 OFFCURVE",
"46 351 OFFCURVE",
"46 223 CURVE SMOOTH",
"46 170 OFFCURVE",
"51 109 OFFCURVE",
"61 50 CURVE SMOOTH",
"71 -9 OFFCURVE",
"89 -64 OFFCURVE",
"113 -105 CURVE SMOOTH",
"137 -147 OFFCURVE",
"169 -173 OFFCURVE",
"210 -173 CURVE SMOOTH",
"286 -173 OFFCURVE",
"334 -149 OFFCURVE",
"370 -92 CURVE SMOOTH",
"404 -34 OFFCURVE",
"425 57 OFFCURVE",
"443 192 CURVE"
);
},
{
closed = 1;
nodes = (
"177 312 OFFCURVE",
"190 384 OFFCURVE",
"218 442 CURVE SMOOTH",
"247 500 OFFCURVE",
"291 543 OFFCURVE",
"353 558 CURVE",
"349 519 OFFCURVE",
"345 477 OFFCURVE",
"342 438 CURVE SMOOTH",
"338 399 OFFCURVE",
"334 365 OFFCURVE",
"332 339 CURVE SMOOTH",
"331 327 OFFCURVE",
"330 316 OFFCURVE",
"329 309 CURVE SMOOTH",
"329 301 OFFCURVE",
"328 297 OFFCURVE",
"328 297 CURVE",
"322 297 OFFCURVE",
"315 298 OFFCURVE",
"308 299 CURVE",
"303 300 OFFCURVE",
"299 301 OFFCURVE",
"294 301 CURVE",
"286 306 OFFCURVE",
"281 309 OFFCURVE",
"275 309 CURVE SMOOTH",
"265 309 OFFCURVE",
"260 303 OFFCURVE",
"257 294 CURVE SMOOTH",
"254 285 OFFCURVE",
"254 273 OFFCURVE",
"254 261 CURVE SMOOTH",
"254 247 OFFCURVE",
"255 237 OFFCURVE",
"264 228 CURVE SMOOTH",
"273 219 OFFCURVE",
"290 209 OFFCURVE",
"322 196 CURVE",
"322 178 OFFCURVE",
"319 144 OFFCURVE",
"313 106 CURVE SMOOTH",
"306 69 OFFCURVE",
"296 27 OFFCURVE",
"281 -5 CURVE SMOOTH",
"266 -37 OFFCURVE",
"246 -59 OFFCURVE",
"221 -59 CURVE SMOOTH",
"213 -59 OFFCURVE",
"207 -53 OFFCURVE",
"202 -42 CURVE SMOOTH",
"191 -20 OFFCURVE",
"185 18 OFFCURVE",
"182 62 CURVE SMOOTH",
"178 106 OFFCURVE",
"177 152 OFFCURVE",
"177 190 CURVE SMOOTH",
"177 209 OFFCURVE",
"177 224 OFFCURVE",
"177 236 CURVE SMOOTH"
);
},
{
closed = 1;
nodes = (
"630 381 OFFCURVE",
"616 360 OFFCURVE",
"586 343 CURVE SMOOTH",
"556 326 OFFCURVE",
"510 313 OFFCURVE",
"446 307 CURVE",
"473 559 LINE",
"533 549 OFFCURVE",
"573 525 OFFCURVE",
"597 496 CURVE SMOOTH",
"622 467 OFFCURVE",
"630 433 OFFCURVE",
"630 402 CURVE SMOOTH"
);
}
);
width = 594;
}
);
note = Thorn;
unicode = 00DE;
},
{
glyphname = Q;
lastChange = "2016-07-18 14:46:18 +0000";
layers = (
{
layerId = "ECEFE970-1BBB-4E0A-A452-CEB55884B4A3";
paths = (
{
closed = 1;
nodes = (
"797 635 OFFCURVE",
"768 733 OFFCURVE",
"714 800 CURVE SMOOTH",
"661 868 OFFCURVE",
"583 906 OFFCURVE",
"486 906 CURVE SMOOTH",
"390 906 OFFCURVE",
"309 870 OFFCURVE",
"244 810 CURVE SMOOTH",
"179 750 OFFCURVE",
"129 669 OFFCURVE",
"97 581 CURVE SMOOTH",
"63 492 OFFCURVE",
"47 395 OFFCURVE",
"47 307 CURVE SMOOTH",
"47 211 OFFCURVE",
"67 122 OFFCURVE",
"112 52 CURVE SMOOTH",
"157 -18 OFFCURVE",
"226 -68 OFFCURVE",
"325 -85 CURVE",
"341 -101 OFFCURVE",
"351 -131 OFFCURVE",
"364 -166 CURVE SMOOTH",
"377 -201 OFFCURVE",
"392 -239 OFFCURVE",
"417 -268 CURVE SMOOTH",
"441 -298 OFFCURVE",
"474 -319 OFFCURVE",
"523 -319 CURVE SMOOTH",
"544 -319 OFFCURVE",
"564 -316 OFFCURVE",
"583 -311 CURVE SMOOTH",
"621 -299 OFFCURVE",
"655 -282 OFFCURVE",
"683 -262 CURVE SMOOTH",
"710 -243 OFFCURVE",
"730 -225 OFFCURVE",
"741 -213 CURVE SMOOTH",
"747 -208 OFFCURVE",
"750 -205 OFFCURVE",
"750 -205 CURVE SMOOTH",
"751 -203 OFFCURVE",
"753 -200 OFFCURVE",
"755 -197 CURVE",
"757 -193 OFFCURVE",
"758 -188 OFFCURVE",
"758 -179 CURVE SMOOTH",
"758 -166 OFFCURVE",
"755 -150 OFFCURVE",
"749 -136 CURVE SMOOTH",
"742 -123 OFFCURVE",
"730 -112 OFFCURVE",
"713 -109 CURVE",
"709 -109 OFFCURVE",
"702 -108 OFFCURVE",
"695 -114 CURVE",
"682 -129 OFFCURVE",
"669 -142 OFFCURVE",
"655 -153 CURVE SMOOTH",
"631 -173 OFFCURVE",
"600 -192 OFFCURVE",
"569 -192 CURVE SMOOTH",
"553 -192 OFFCURVE",
"539 -189 OFFCURVE",
"526 -182 CURVE SMOOTH",
"501 -168 OFFCURVE",
"479 -146 OFFCURVE",
"456 -117 CURVE SMOOTH",
"444 -103 OFFCURVE",
"430 -87 OFFCURVE",
"415 -72 CURVE",
"503 -61 OFFCURVE",
"575 -17 OFFCURVE",
"631 45 CURVE SMOOTH",
"688 107 OFFCURVE",
"729 188 OFFCURVE",
"757 272 CURVE SMOOTH",
"784 356 OFFCURVE",
"797 443 OFFCURVE",
"797 520 CURVE SMOOTH"
);
},
{
closed = 1;
nodes = (
"315 31 OFFCURVE",
"269 60 OFFCURVE",
"237 108 CURVE SMOOTH",
"205 156 OFFCURVE",
"188 223 OFFCURVE",
"188 299 CURVE SMOOTH",
"188 372 OFFCURVE",
"203 453 OFFCURVE",
"230 529 CURVE SMOOTH",
"257 605 OFFCURVE",
"296 675 OFFCURVE",
"341 728 CURVE SMOOTH",
"387 780 OFFCURVE",
"440 813 OFFCURVE",
"495 813 CURVE SMOOTH",
"550 813 OFFCURVE",
"590 785 OFFCURVE",
"617 739 CURVE SMOOTH",
"644 692 OFFCURVE",
"656 627 OFFCURVE",
"656 553 CURVE SMOOTH",
"656 510 OFFCURVE",
"651 455 OFFCURVE",
"640 398 CURVE SMOOTH",
"629 341 OFFCURVE",
"612 282 OFFCURVE",
"589 228 CURVE SMOOTH",
"566 173 OFFCURVE",
"538 124 OFFCURVE",
"502 88 CURVE SMOOTH",
"466 53 OFFCURVE",
"423 31 OFFCURVE",
"374 31 CURVE SMOOTH"
);
}
);
width = 738;
}
);
note = Q;
unicode = 0051;
},
{
glyphname = R;
lastChange = "2016-07-18 14:46:18 +0000";
layers = (
{
layerId = "ECEFE970-1BBB-4E0A-A452-CEB55884B4A3";
paths = (
{
closed = 1;
nodes = (
"891 665 OFFCURVE",
"874 706 OFFCURVE",
"847 740 CURVE SMOOTH",
"820 773 OFFCURVE",
"781 799 OFFCURVE",
"738 817 CURVE SMOOTH",
"694 834 OFFCURVE",
"645 844 OFFCURVE",
"596 844 CURVE SMOOTH",
"486 844 OFFCURVE",
"387 813 OFFCURVE",
"303 761 CURVE SMOOTH",
"219 708 OFFCURVE",
"151 635 OFFCURVE",
"104 549 CURVE SMOOTH",
"57 463 OFFCURVE",
"31 365 OFFCURVE",
"31 264 CURVE SMOOTH",
"31 208 OFFCURVE",
"40 150 OFFCURVE",
"58 97 CURVE SMOOTH",
"75 44 OFFCURVE",
"101 -3 OFFCURVE",
"136 -38 CURVE SMOOTH",
"170 -73 OFFCURVE",
"213 -94 OFFCURVE",
"266 -94 CURVE SMOOTH",
"336 -94 OFFCURVE",
"383 -51 OFFCURVE",
"416 28 CURVE SMOOTH",
"448 106 OFFCURVE",
"465 221 OFFCURVE",
"479 363 CURVE",
"509 363 LINE SMOOTH",
"522 363 OFFCURVE",
"533 357 OFFCURVE",
"541 346 CURVE SMOOTH",
"558 322 OFFCURVE",
"570 283 OFFCURVE",
"580 234 CURVE SMOOTH",
"585 209 OFFCURVE",
"590 184 OFFCURVE",
"596 158 CURVE SMOOTH",
"608 107 OFFCURVE",
"623 56 OFFCURVE",
"646 17 CURVE SMOOTH",
"669 -21 OFFCURVE",
"702 -47 OFFCURVE",
"750 -47 CURVE SMOOTH",
"771 -47 OFFCURVE",
"792 -44 OFFCURVE",
"812 -40 CURVE SMOOTH",
"853 -31 OFFCURVE",
"890 -17 OFFCURVE",
"920 0 CURVE SMOOTH",
"950 15 OFFCURVE",
"973 29 OFFCURVE",
"985 38 CURVE SMOOTH",
"991 42 OFFCURVE",
"994 44 OFFCURVE",
"994 44 CURVE",
"938 140 LINE",
"914 117 OFFCURVE",
"886 98 OFFCURVE",
"859 84 CURVE SMOOTH",
"831 70 OFFCURVE",
"804 63 OFFCURVE",
"782 63 CURVE SMOOTH",
"770 63 OFFCURVE",
"760 66 OFFCURVE",
"753 74 CURVE SMOOTH",
"739 88 OFFCURVE",
"730 113 OFFCURVE",
"723 146 CURVE SMOOTH",
"720 162 OFFCURVE",
"716 178 OFFCURVE",
"711 196 CURVE SMOOTH",
"703 231 OFFCURVE",
"692 269 OFFCURVE",
"672 302 CURVE SMOOTH",
"651 334 OFFCURVE",
"622 362 OFFCURVE",
"576 379 CURVE",
"651 383 OFFCURVE",
"710 401 OFFCURVE",
"757 426 CURVE SMOOTH",
"804 451 OFFCURVE",
"837 483 OFFCURVE",
"859 517 CURVE SMOOTH",
"880 550 OFFCURVE",
"891 585 OFFCURVE",
"891 617 CURVE SMOOTH"
);
},
{
closed = 1;
nodes = (
"646 734 OFFCURVE",
"690 720 OFFCURVE",
"720 698 CURVE SMOOTH",
"750 675 OFFCURVE",
"766 645 OFFCURVE",
"766 613 CURVE SMOOTH",
"766 580 OFFCURVE",
"751 543 OFFCURVE",
"711 514 CURVE SMOOTH",
"670 485 OFFCURVE",
"604 464 OFFCURVE",
"498 462 CURVE",
"500 489 OFFCURVE",
"504 512 OFFCURVE",
"507 533 CURVE SMOOTH",
"511 553 OFFCURVE",
"512 569 OFFCURVE",
"513 582 CURVE",
"513 586 LINE SMOOTH",
"513 609 OFFCURVE",
"505 625 OFFCURVE",
"472 625 CURVE SMOOTH",
"447 625 OFFCURVE",
"431 613 OFFCURVE",
"418 596 CURVE SMOOTH",
"406 579 OFFCURVE",
"399 557 OFFCURVE",
"395 536 CURVE SMOOTH",
"391 515 OFFCURVE",
"390 495 OFFCURVE",
"389 485 CURVE SMOOTH",
"389 475 LINE",
"385 475 OFFCURVE",
"371 477 OFFCURVE",
"355 479 CURVE SMOOTH",
"340 481 OFFCURVE",
"325 483 OFFCURVE",
"320 483 CURVE SMOOTH",
"310 483 OFFCURVE",
"304 477 OFFCURVE",
"301 469 CURVE SMOOTH",
"297 461 OFFCURVE",
"297 451 OFFCURVE",
"297 444 CURVE SMOOTH",
"297 417 OFFCURVE",
"324 398 OFFCURVE",
"375 375 CURVE",
"375 359 OFFCURVE",
"374 330 OFFCURVE",
"372 293 CURVE SMOOTH",
"370 257 OFFCURVE",
"366 214 OFFCURVE",
"359 173 CURVE SMOOTH",
"353 132 OFFCURVE",
"343 92 OFFCURVE",
"330 63 CURVE SMOOTH",
"317 34 OFFCURVE",
"300 16 OFFCURVE",
"278 16 CURVE SMOOTH",
"235 16 OFFCURVE",
"204 44 OFFCURVE",
"185 87 CURVE SMOOTH",
"165 129 OFFCURVE",
"156 185 OFFCURVE",
"156 238 CURVE SMOOTH",
"156 306 OFFCURVE",
"168 384 OFFCURVE",
"196 458 CURVE SMOOTH",
"224 531 OFFCURVE",
"269 601 OFFCURVE",
"333 651 CURVE SMOOTH",
"396 702 OFFCURVE",
"480 734 OFFCURVE",
"587 734 CURVE SMOOTH"
);
}
);
width = 830;
}
);
note = R;
unicode = 0052;
},
{
glyphname = S;
lastChange = "2016-07-18 14:46:18 +0000";
layers = (
{
layerId = "ECEFE970-1BBB-4E0A-A452-CEB55884B4A3";
paths = (
{
closed = 1;
nodes = (
"358 666 OFFCURVE",
"372 693 OFFCURVE",
"401 715 CURVE SMOOTH",
"430 736 OFFCURVE",
"473 750 OFFCURVE",
"531 750 CURVE SMOOTH",
"584 750 OFFCURVE",
"629 742 OFFCURVE",
"661 725 CURVE SMOOTH",
"692 708 OFFCURVE",
"711 683 OFFCURVE",
"711 650 CURVE SMOOTH",
"711 628 OFFCURVE",
"703 604 OFFCURVE",
"686 575 CURVE SMOOTH",
"667 545 OFFCURVE",
"660 522 OFFCURVE",
"660 505 CURVE SMOOTH",
"660 482 OFFCURVE",
"673 471 OFFCURVE",
"693 471 CURVE SMOOTH",
"719 471 OFFCURVE",
"754 490 OFFCURVE",
"781 531 CURVE SMOOTH",
"809 574 OFFCURVE",
"821 612 OFFCURVE",
"821 649 CURVE SMOOTH",
"821 712 OFFCURVE",
"788 764 OFFCURVE",
"737 801 CURVE SMOOTH",
"686 838 OFFCURVE",
"619 859 OFFCURVE",
"551 859 CURVE SMOOTH",
"444 859 OFFCURVE",
"365 831 OFFCURVE",
"312 789 CURVE SMOOTH",
"259 747 OFFCURVE",
"232 691 OFFCURVE",
"232 637 CURVE SMOOTH",
"232 578 OFFCURVE",
"260 533 OFFCURVE",
"301 496 CURVE SMOOTH",
"342 459 OFFCURVE",
"397 429 OFFCURVE",
"452 401 CURVE SMOOTH",
"507 373 OFFCURVE",
"562 347 OFFCURVE",
"604 316 CURVE SMOOTH",
"645 285 OFFCURVE",
"672 250 OFFCURVE",
"672 203 CURVE SMOOTH",
"672 153 OFFCURVE",
"641 114 OFFCURVE",
"596 87 CURVE SMOOTH",
"551 61 OFFCURVE",
"492 47 OFFCURVE",
"435 47 CURVE SMOOTH",
"387 47 OFFCURVE",
"340 57 OFFCURVE",
"306 79 CURVE SMOOTH",
"271 100 OFFCURVE",
"249 133 OFFCURVE",
"249 179 CURVE SMOOTH",
"249 189 OFFCURVE",
"249 199 OFFCURVE",
"250 208 CURVE SMOOTH",
"253 225 OFFCURVE",
"256 240 OFFCURVE",
"259 252 CURVE SMOOTH",
"260 258 OFFCURVE",
"261 264 OFFCURVE",
"261 270 CURVE SMOOTH",
"261 293 OFFCURVE",
"245 305 OFFCURVE",
"224 305 CURVE SMOOTH",
"204 305 OFFCURVE",
"179 294 OFFCURVE",
"159 273 CURVE SMOOTH",
"139 251 OFFCURVE",
"124 220 OFFCURVE",
"124 178 CURVE SMOOTH",
"124 98 OFFCURVE",
"163 38 OFFCURVE",
"223 -2 CURVE SMOOTH",
"283 -42 OFFCURVE",
"363 -63 OFFCURVE",
"444 -63 CURVE SMOOTH",
"502 -63 OFFCURVE",
"561 -52 OFFCURVE",
"613 -33 CURVE SMOOTH",
"665 -13 OFFCURVE",
"711 17 OFFCURVE",
"744 56 CURVE SMOOTH",
"777 95 OFFCURVE",
"797 145 OFFCURVE",
"797 203 CURVE SMOOTH",
"797 235 OFFCURVE",
"791 264 OFFCURVE",
"778 289 CURVE SMOOTH",
"753 339 OFFCURVE",
"710 378 OFFCURVE",
"658 410 CURVE SMOOTH",
"605 441 OFFCURVE",
"549 469 OFFCURVE",
"497 495 CURVE SMOOTH",
"471 508 OFFCURVE",
"447 521 OFFCURVE",
"427 536 CURVE SMOOTH",
"385 565 OFFCURVE",
"358 598 OFFCURVE",
"358 641 CURVE SMOOTH"
);
}
);
width = 828;
}
);
note = S;
unicode = 0053;
},
{
color = 3;
glyphname = Germandbls;
lastChange = "2016-07-22 21:25:23 +0000";
layers = (
{
background = {
paths = (
{
closed = 1;
nodes = (
"1993 -19 OFFCURVE",
"1992 23 OFFCURVE",
"1992 78 CURVE SMOOTH",
"1992 140 OFFCURVE",
"1993 211 OFFCURVE",
"1999 284 CURVE SMOOTH",
"2019 526 OFFCURVE",
"2080 742 OFFCURVE",
"2262 742 CURVE SMOOTH",
"2332 742 OFFCURVE",
"2387 712 OFFCURVE",
"2387 652 CURVE SMOOTH",
"2387 558 OFFCURVE",
"2302 506 OFFCURVE",
"2191 506 CURVE SMOOTH",
"2166 506 OFFCURVE",
"2153 502 OFFCURVE",
"2145 492 CURVE SMOOTH",
"2109 447 OFFCURVE",
"2118 380 OFFCURVE",
"2185 380 CURVE SMOOTH",
"2292 380 OFFCURVE",
"2369 341 OFFCURVE",
"2369 254 CURVE SMOOTH",
"2369 169 OFFCURVE",
"2270 106 OFFCURVE",
"2154 106 CURVE SMOOTH",
"2095 106 OFFCURVE",
"2061 -6 OFFCURVE",
"2181 -6 CURVE SMOOTH",
"2373 -6 OFFCURVE",
"2527 90 OFFCURVE",
"2527 262 CURVE SMOOTH",
"2527 372 OFFCURVE",
"2430 469 OFFCURVE",
"2299 465 CURVE",
"2296 436 LINE",
"2398 435 OFFCURVE",
"2546 513 OFFCURVE",
"2546 655 CURVE SMOOTH",
"2546 771 OFFCURVE",
"2425 846 OFFCURVE",
"2281 846 CURVE SMOOTH",
"2002 846 OFFCURVE",
"1902 590 OFFCURVE",
"1867 270 CURVE SMOOTH",
"1856 169 OFFCURVE",
"1852 60 OFFCURVE",
"1852 -37 CURVE SMOOTH",
"1852 -74 OFFCURVE",
"1884 -91 OFFCURVE",
"1917 -91 CURVE SMOOTH",
"1961 -91 OFFCURVE",
"1993 -69 OFFCURVE",
"1993 -28 CURVE SMOOTH"
);
},
{
closed = 1;
nodes = (
"908 227 OFFCURVE",
"898 222 OFFCURVE",
"888 209 CURVE SMOOTH",
"836 141 OFFCURVE",
"798 114 OFFCURVE",
"754 114 CURVE SMOOTH",
"711 114 OFFCURVE",
"681 141 OFFCURVE",
"681 198 CURVE SMOOTH",
"681 229 OFFCURVE",
"685 255 OFFCURVE",
"691 284 CURVE SMOOTH",
"752 570 LINE SMOOTH",
"760 609 OFFCURVE",
"764 645 OFFCURVE",
"764 677 CURVE SMOOTH",
"764 776 OFFCURVE",
"710 848 OFFCURVE",
"591 848 CURVE SMOOTH",
"451 848 OFFCURVE",
"351 744 OFFCURVE",
"270 527 CURVE",
"295 647 OFFCURVE",
"317 724 OFFCURVE",
"329 782 CURVE SMOOTH",
"339 829 OFFCURVE",
"324 852 OFFCURVE",
"267 852 CURVE SMOOTH",
"222 852 OFFCURVE",
"187 839 OFFCURVE",
"176 794 CURVE SMOOTH",
"129 602 OFFCURVE",
"89 328 OFFCURVE",
"75 103 CURVE SMOOTH",
"70 24 OFFCURVE",
"97 -5 OFFCURVE",
"142 -5 CURVE SMOOTH",
"198 -5 OFFCURVE",
"223 26 OFFCURVE",
"230 86 CURVE SMOOTH",
"280 513 OFFCURVE",
"427 721 OFFCURVE",
"542 721 CURVE SMOOTH",
"587 721 OFFCURVE",
"609 692 OFFCURVE",
"609 647 CURVE SMOOTH",
"609 619 OFFCURVE",
"601 572 OFFCURVE",
"593 535 CURVE SMOOTH",
"552 352 LINE SMOOTH",
"534 273 OFFCURVE",
"528 224 OFFCURVE",
"528 181 CURVE SMOOTH",
"528 69 OFFCURVE",
"595 -5 OFFCURVE",
"707 -5 CURVE SMOOTH",
"785 -5 OFFCURVE",
"873 40 OFFCURVE",
"919 124 CURVE SMOOTH",
"931 146 OFFCURVE",
"936 169 OFFCURVE",
"936 187 CURVE SMOOTH",
"936 210 OFFCURVE",
"928 227 OFFCURVE",
"915 227 CURVE SMOOTH"
);
},
{
closed = 1;
nodes = (
"1193 8 OFFCURVE",
"1194 218 OFFCURVE",
"1199 284 CURVE SMOOTH",
"1217 526 OFFCURVE",
"1280 735 OFFCURVE",
"1472 735 CURVE SMOOTH",
"1547 735 OFFCURVE",
"1587 703 OFFCURVE",
"1587 642 CURVE SMOOTH",
"1587 558 OFFCURVE",
"1502 490 OFFCURVE",
"1391 490 CURVE SMOOTH",
"1325 490 OFFCURVE",
"1317 380 OFFCURVE",
"1385 380 CURVE SMOOTH",
"1492 380 OFFCURVE",
"1569 351 OFFCURVE",
"1569 244 CURVE SMOOTH",
"1569 149 OFFCURVE",
"1470 89 OFFCURVE",
"1364 75 CURVE SMOOTH",
"1275 63 OFFCURVE",
"1291 -33 OFFCURVE",
"1417 -26 CURVE SMOOTH",
"1593 -16 OFFCURVE",
"1727 100 OFFCURVE",
"1727 262 CURVE SMOOTH",
"1727 372 OFFCURVE",
"1630 457 OFFCURVE",
"1489 453 CURVE",
"1486 436 LINE",
"1598 435 OFFCURVE",
"1746 513 OFFCURVE",
"1746 655 CURVE SMOOTH",
"1746 781 OFFCURVE",
"1645 856 OFFCURVE",
"1481 856 CURVE SMOOTH",
"1202 856 OFFCURVE",
"1102 590 OFFCURVE",
"1067 270 CURVE SMOOTH",
"1056 169 OFFCURVE",
"1052 60 OFFCURVE",
"1052 -37 CURVE SMOOTH",
"1052 -74 OFFCURVE",
"1084 -91 OFFCURVE",
"1117 -91 CURVE SMOOTH",
"1161 -91 OFFCURVE",
"1193 -69 OFFCURVE",
"1193 -28 CURVE SMOOTH"
);
}
);
};
layerId = "ECEFE970-1BBB-4E0A-A452-CEB55884B4A3";
paths = (
{
closed = 1;
nodes = (
"701 475 OFFCURVE",
"815 560 OFFCURVE",
"815 686 CURVE SMOOTH",
"815 781 OFFCURVE",
"734 848 OFFCURVE",
"622 848 CURVE SMOOTH",
"464 848 OFFCURVE",
"333 739 OFFCURVE",
"256 479 CURVE",
"259 469 LINE",
"290 630 OFFCURVE",
"316 718 OFFCURVE",
"329 782 CURVE SMOOTH",
"339 829 OFFCURVE",
"324 852 OFFCURVE",
"267 852 CURVE SMOOTH",
"224 852 OFFCURVE",
"189 839 OFFCURVE",
"178 794 CURVE SMOOTH",
"131 602 OFFCURVE",
"90 328 OFFCURVE",
"76 93 CURVE SMOOTH",
"72 24 OFFCURVE",
"99 -5 OFFCURVE",
"142 -5 CURVE SMOOTH",
"198 -5 OFFCURVE",
"223 26 OFFCURVE",
"230 86 CURVE SMOOTH",
"281 481 OFFCURVE",
"422 725 OFFCURVE",
"577 725 CURVE SMOOTH",
"627 725 OFFCURVE",
"656 698 OFFCURVE",
"656 652 CURVE SMOOTH",
"656 574 OFFCURVE",
"570 519 OFFCURVE",
"455 492 CURVE SMOOTH",
"400 479 OFFCURVE",
"391 382 OFFCURVE",
"449 380 CURVE SMOOTH",
"556 376 OFFCURVE",
"638 348 OFFCURVE",
"638 244 CURVE SMOOTH",
"638 159 OFFCURVE",
"562 76 OFFCURVE",
"413 46 CURVE SMOOTH",
"328 29 OFFCURVE",
"341 -63 OFFCURVE",
"468 -46 CURVE SMOOTH",
"652 -22 OFFCURVE",
"796 100 OFFCURVE",
"796 252 CURVE SMOOTH",
"796 368 OFFCURVE",
"705 449 OFFCURVE",
"567 451 CURVE",
"571 440 LINE"
);
}
);
width = 816;
}
);
unicode = 1E9E;
},
{
glyphname = T;
lastChange = "2016-07-18 14:46:18 +0000";
layers = (
{
layerId = "ECEFE970-1BBB-4E0A-A452-CEB55884B4A3";
paths = (
{
closed = 1;
nodes = (
"98 638 OFFCURVE",
"101 627 OFFCURVE",
"107 618 CURVE SMOOTH",
"117 603 OFFCURVE",
"137 587 OFFCURVE",
"176 587 CURVE SMOOTH",
"195 587 OFFCURVE",
"210 590 OFFCURVE",
"221 597 CURVE SMOOTH",
"242 609 OFFCURVE",
"251 625 OFFCURVE",
"253 639 CURVE",
"253 645 OFFCURVE",
"254 649 OFFCURVE",
"254 649 CURVE SMOOTH",
"254 674 OFFCURVE",
"268 692 OFFCURVE",
"290 705 CURVE SMOOTH",
"311 718 OFFCURVE",
"341 726 OFFCURVE",
"375 732 CURVE SMOOTH",
"408 737 OFFCURVE",
"444 740 OFFCURVE",
"479 743 CURVE",
"439 619 OFFCURVE",
"405 520 OFFCURVE",
"375 436 CURVE SMOOTH",
"346 352 OFFCURVE",
"322 284 OFFCURVE",
"303 222 CURVE SMOOTH",
"284 160 OFFCURVE",
"270 104 OFFCURVE",
"262 45 CURVE",
"260 38 OFFCURVE",
"259 31 OFFCURVE",
"259 24 CURVE SMOOTH",
"259 -15 OFFCURVE",
"286 -31 OFFCURVE",
"323 -31 CURVE SMOOTH",
"335 -31 OFFCURVE",
"350 -23 OFFCURVE",
"364 -10 CURVE SMOOTH",
"377 4 OFFCURVE",
"388 23 OFFCURVE",
"394 45 CURVE SMOOTH",
"400 69 OFFCURVE",
"408 98 OFFCURVE",
"417 131 CURVE SMOOTH",
"427 165 OFFCURVE",
"437 202 OFFCURVE",
"448 241 CURVE SMOOTH",
"470 320 OFFCURVE",
"495 409 OFFCURVE",
"517 497 CURVE SMOOTH",
"539 584 OFFCURVE",
"558 670 OFFCURVE",
"569 743 CURVE",
"636 739 OFFCURVE",
"698 732 OFFCURVE",
"757 726 CURVE SMOOTH",
"816 719 OFFCURVE",
"870 713 OFFCURVE",
"920 713 CURVE SMOOTH",
"935 713 OFFCURVE",
"948 720 OFFCURVE",
"958 730 CURVE SMOOTH",
"968 740 OFFCURVE",
"974 753 OFFCURVE",
"974 766 CURVE SMOOTH",
"974 787 OFFCURVE",
"963 806 OFFCURVE",
"932 812 CURVE SMOOTH",
"797 836 OFFCURVE",
"673 844 OFFCURVE",
"560 844 CURVE SMOOTH",
"476 844 OFFCURVE",
"397 840 OFFCURVE",
"329 830 CURVE SMOOTH",
"260 820 OFFCURVE",
"202 802 OFFCURVE",
"162 773 CURVE SMOOTH",
"121 744 OFFCURVE",
"97 704 OFFCURVE",
"97 649 CURVE"
);
}
);
width = 750;
}
);
note = T;
unicode = 0054;
},
{
glyphname = U;
lastChange = "2016-07-18 14:46:18 +0000";
layers = (
{
layerId = "ECEFE970-1BBB-4E0A-A452-CEB55884B4A3";
paths = (
{
closed = 1;
nodes = (
"605 680 OFFCURVE",
"595 591 OFFCURVE",
"580 506 CURVE SMOOTH",
"564 421 OFFCURVE",
"545 340 OFFCURVE",
"520 270 CURVE SMOOTH",
"495 199 OFFCURVE",
"465 140 OFFCURVE",
"432 98 CURVE SMOOTH",
"398 56 OFFCURVE",
"360 31 OFFCURVE",
"318 31 CURVE SMOOTH",
"263 31 OFFCURVE",
"227 54 OFFCURVE",
"204 91 CURVE SMOOTH",
"181 128 OFFCURVE",
"172 180 OFFCURVE",
"172 238 CURVE SMOOTH",
"172 267 OFFCURVE",
"174 296 OFFCURVE",
"178 328 CURVE SMOOTH",
"186 391 OFFCURVE",
"200 455 OFFCURVE",
"216 516 CURVE SMOOTH",
"232 576 OFFCURVE",
"248 629 OFFCURVE",
"262 670 CURVE SMOOTH",
"268 690 OFFCURVE",
"273 707 OFFCURVE",
"277 719 CURVE",
"279 724 OFFCURVE",
"280 729 OFFCURVE",
"280 734 CURVE SMOOTH",
"281 738 OFFCURVE",
"281 743 OFFCURVE",
"282 747 CURVE",
"282 750 LINE SMOOTH",
"282 771 OFFCURVE",
"275 782 OFFCURVE",
"262 789 CURVE SMOOTH",
"249 795 OFFCURVE",
"230 797 OFFCURVE",
"205 797 CURVE SMOOTH",
"192 797 OFFCURVE",
"180 796 OFFCURVE",
"167 786 CURVE SMOOTH",
"155 776 OFFCURVE",
"142 756 OFFCURVE",
"130 719 CURVE SMOOTH",
"110 665 OFFCURVE",
"89 596 OFFCURVE",
"74 521 CURVE SMOOTH",
"58 446 OFFCURVE",
"47 365 OFFCURVE",
"47 287 CURVE SMOOTH",
"47 189 OFFCURVE",
"62 98 OFFCURVE",
"102 31 CURVE SMOOTH",
"141 -36 OFFCURVE",
"205 -78 OFFCURVE",
"303 -78 CURVE SMOOTH",
"384 -78 OFFCURVE",
"461 -43 OFFCURVE",
"528 23 CURVE SMOOTH",
"594 90 OFFCURVE",
"649 188 OFFCURVE",
"688 315 CURVE SMOOTH",
"728 442 OFFCURVE",
"750 598 OFFCURVE",
"750 778 CURVE SMOOTH",
"750 804 OFFCURVE",
"745 820 OFFCURVE",
"736 831 CURVE",
"726 840 OFFCURVE",
"712 844 OFFCURVE",
"695 844 CURVE SMOOTH",
"675 844 OFFCURVE",
"654 841 OFFCURVE",
"639 830 CURVE SMOOTH",
"623 818 OFFCURVE",
"611 799 OFFCURVE",
"609 766 CURVE SMOOTH"
);
}
);
width = 675;
}
);
note = U;
unicode = 0055;
},
{
glyphname = V;
lastChange = "2016-07-18 14:46:18 +0000";
layers = (
{
layerId = "ECEFE970-1BBB-4E0A-A452-CEB55884B4A3";
paths = (
{
closed = 1;
nodes = (
"46 213 OFFCURVE",
"48 193 OFFCURVE",
"48 172 CURVE SMOOTH",
"49 152 OFFCURVE",
"50 132 OFFCURVE",
"52 114 CURVE SMOOTH",
"55 77 OFFCURVE",
"61 44 OFFCURVE",
"75 21 CURVE SMOOTH",
"90 -2 OFFCURVE",
"113 -16 OFFCURVE",
"152 -16 CURVE SMOOTH",
"181 -16 OFFCURVE",
"210 -2 OFFCURVE",
"241 34 CURVE SMOOTH",
"272 70 OFFCURVE",
"305 129 OFFCURVE",
"344 219 CURVE",
"342 208 OFFCURVE",
"341 197 OFFCURVE",
"341 187 CURVE SMOOTH",
"341 148 OFFCURVE",
"354 117 OFFCURVE",
"377 95 CURVE SMOOTH",
"401 73 OFFCURVE",
"436 60 OFFCURVE",
"480 60 CURVE SMOOTH",
"527 60 OFFCURVE",
"582 88 OFFCURVE",
"636 131 CURVE",
"647 232 LINE",
"631 217 OFFCURVE",
"615 204 OFFCURVE",
"599 192 CURVE SMOOTH",
"585 182 OFFCURVE",
"571 172 OFFCURVE",
"557 165 CURVE SMOOTH",
"543 157 OFFCURVE",
"530 152 OFFCURVE",
"520 152 CURVE SMOOTH",
"477 152 OFFCURVE",
"445 164 OFFCURVE",
"425 182 CURVE SMOOTH",
"404 200 OFFCURVE",
"395 224 OFFCURVE",
"395 249 CURVE SMOOTH",
"395 265 OFFCURVE",
"398 282 OFFCURVE",
"406 297 CURVE SMOOTH",
"434 347 OFFCURVE",
"465 405 OFFCURVE",
"495 463 CURVE SMOOTH",
"524 521 OFFCURVE",
"553 579 OFFCURVE",
"573 627 CURVE SMOOTH",
"594 676 OFFCURVE",
"607 717 OFFCURVE",
"607 740 CURVE SMOOTH",
"607 773 OFFCURVE",
"593 796 OFFCURVE",
"569 796 CURVE SMOOTH",
"549 796 OFFCURVE",
"530 790 OFFCURVE",
"514 779 CURVE SMOOTH",
"499 768 OFFCURVE",
"487 753 OFFCURVE",
"482 737 CURVE",
"165 127 LINE",
"143 708 LINE",
"143 730 OFFCURVE",
"141 749 OFFCURVE",
"132 762 CURVE SMOOTH",
"123 774 OFFCURVE",
"108 781 OFFCURVE",
"84 781 CURVE SMOOTH",
"72 781 OFFCURVE",
"55 781 OFFCURVE",
"41 771 CURVE SMOOTH",
"27 761 OFFCURVE",
"15 741 OFFCURVE",
"15 701 CURVE SMOOTH",
"15 688 OFFCURVE",
"16 671 OFFCURVE",
"17 651 CURVE SMOOTH",
"18 610 OFFCURVE",
"21 561 OFFCURVE",
"24 508 CURVE SMOOTH",
"28 455 OFFCURVE",
"31 403 OFFCURVE",
"35 356 CURVE SMOOTH",
"37 333 OFFCURVE",
"38 313 OFFCURVE",
"40 294 CURVE SMOOTH",
"41 276 OFFCURVE",
"42 262 OFFCURVE",
"43 251 CURVE SMOOTH",
"44 241 OFFCURVE",
"44 235 OFFCURVE",
"44 234 CURVE"
);
}
);
width = 516;
}
);
note = V;
unicode = 0056;
},
{
glyphname = W;
lastChange = "2016-07-18 14:46:18 +0000";
layers = (
{
layerId = "ECEFE970-1BBB-4E0A-A452-CEB55884B4A3";
paths = (
{
closed = 1;
nodes = (
"422 772 OFFCURVE",
"417 783 OFFCURVE",
"410 790 CURVE",
"401 795 OFFCURVE",
"389 797 OFFCURVE",
"375 797 CURVE SMOOTH",
"357 797 OFFCURVE",
"340 796 OFFCURVE",
"323 787 CURVE SMOOTH",
"306 776 OFFCURVE",
"290 756 OFFCURVE",
"274 719 CURVE SMOOTH",
"247 651 OFFCURVE",
"225 579 OFFCURVE",
"210 506 CURVE SMOOTH",
"196 433 OFFCURVE",
"188 359 OFFCURVE",
"188 291 CURVE SMOOTH",
"188 178 OFFCURVE",
"207 94 OFFCURVE",
"237 38 CURVE SMOOTH",
"266 -19 OFFCURVE",
"307 -47 OFFCURVE",
"350 -47 CURVE SMOOTH",
"424 -47 OFFCURVE",
"486 -23 OFFCURVE",
"534 37 CURVE SMOOTH",
"582 98 OFFCURVE",
"617 195 OFFCURVE",
"641 344 CURVE",
"640 333 OFFCURVE",
"638 321 OFFCURVE",
"637 307 CURVE SMOOTH",
"635 293 OFFCURVE",
"634 279 OFFCURVE",
"634 263 CURVE SMOOTH",
"634 178 OFFCURVE",
"646 100 OFFCURVE",
"673 44 CURVE SMOOTH",
"700 -12 OFFCURVE",
"743 -47 OFFCURVE",
"805 -47 CURVE SMOOTH",
"854 -47 OFFCURVE",
"900 -27 OFFCURVE",
"942 7 CURVE SMOOTH",
"984 41 OFFCURVE",
"1021 90 OFFCURVE",
"1054 150 CURVE",
"1058 119 OFFCURVE",
"1068 96 OFFCURVE",
"1083 82 CURVE SMOOTH",
"1097 68 OFFCURVE",
"1116 61 OFFCURVE",
"1138 61 CURVE SMOOTH",
"1183 61 OFFCURVE",
"1236 95 OFFCURVE",
"1284 150 CURVE",
"1276 251 LINE",
"1266 225 OFFCURVE",
"1250 203 OFFCURVE",
"1231 187 CURVE SMOOTH",
"1213 171 OFFCURVE",
"1193 162 OFFCURVE",
"1174 162 CURVE SMOOTH",
"1155 162 OFFCURVE",
"1138 167 OFFCURVE",
"1126 179 CURVE SMOOTH",
"1114 190 OFFCURVE",
"1106 208 OFFCURVE",
"1106 233 CURVE SMOOTH",
"1106 239 OFFCURVE",
"1108 251 OFFCURVE",
"1112 270 CURVE SMOOTH",
"1116 289 OFFCURVE",
"1121 313 OFFCURVE",
"1127 341 CURVE SMOOTH",
"1139 397 OFFCURVE",
"1154 469 OFFCURVE",
"1167 542 CURVE SMOOTH",
"1178 616 OFFCURVE",
"1188 692 OFFCURVE",
"1188 755 CURVE SMOOTH",
"1188 778 OFFCURVE",
"1182 792 OFFCURVE",
"1172 801 CURVE SMOOTH",
"1163 810 OFFCURVE",
"1149 813 OFFCURVE",
"1133 813 CURVE SMOOTH",
"1112 813 OFFCURVE",
"1091 810 OFFCURVE",
"1076 799 CURVE SMOOTH",
"1060 788 OFFCURVE",
"1049 769 OFFCURVE",
"1047 735 CURVE SMOOTH",
"1045 704 OFFCURVE",
"1041 645 OFFCURVE",
"1032 574 CURVE SMOOTH",
"1024 503 OFFCURVE",
"1011 421 OFFCURVE",
"994 343 CURVE SMOOTH",
"977 265 OFFCURVE",
"955 191 OFFCURVE",
"926 137 CURVE SMOOTH",
"898 82 OFFCURVE",
"864 47 OFFCURVE",
"822 47 CURVE SMOOTH",
"798 47 OFFCURVE",
"782 65 OFFCURVE",
"772 98 CURVE SMOOTH",
"762 131 OFFCURVE",
"758 179 OFFCURVE",
"758 238 CURVE SMOOTH",
"758 267 OFFCURVE",
"760 298 OFFCURVE",
"762 332 CURVE SMOOTH",
"768 400 OFFCURVE",
"776 472 OFFCURVE",
"786 538 CURVE SMOOTH",
"795 604 OFFCURVE",
"803 658 OFFCURVE",
"809 692 CURVE SMOOTH",
"811 708 OFFCURVE",
"813 718 OFFCURVE",
"813 720 CURVE SMOOTH",
"813 734 OFFCURVE",
"809 745 OFFCURVE",
"800 753 CURVE SMOOTH",
"790 761 OFFCURVE",
"775 766 OFFCURVE",
"750 766 CURVE SMOOTH",
"724 766 OFFCURVE",
"705 760 OFFCURVE",
"689 746 CURVE SMOOTH",
"674 732 OFFCURVE",
"664 708 OFFCURVE",
"656 672 CURVE SMOOTH",
"635 562 OFFCURVE",
"611 462 OFFCURVE",
"583 375 CURVE SMOOTH",
"568 326 OFFCURVE",
"550 276 OFFCURVE",
"531 232 CURVE SMOOTH",
"511 188 OFFCURVE",
"489 149 OFFCURVE",
"466 122 CURVE SMOOTH",
"442 95 OFFCURVE",
"417 78 OFFCURVE",
"391 78 CURVE SMOOTH",
"364 78 OFFCURVE",
"345 96 OFFCURVE",
"332 126 CURVE SMOOTH",
"318 155 OFFCURVE",
"313 196 OFFCURVE",
"313 243 CURVE SMOOTH",
"313 299 OFFCURVE",
"325 367 OFFCURVE",
"341 436 CURVE SMOOTH",
"357 504 OFFCURVE",
"377 572 OFFCURVE",
"394 629 CURVE SMOOTH",
"410 686 OFFCURVE",
"422 731 OFFCURVE",
"422 753 CURVE SMOOTH"
);
}
);
width = 1171;
}
);
note = W;
unicode = 0057;
},
{
glyphname = X;
lastChange = "2016-07-18 14:46:18 +0000";
layers = (
{
layerId = "ECEFE970-1BBB-4E0A-A452-CEB55884B4A3";
paths = (
{
closed = 1;
nodes = (
"467 441 OFFCURVE",
"464 437 OFFCURVE",
"457 428 CURVE SMOOTH",
"449 419 OFFCURVE",
"439 407 OFFCURVE",
"426 392 CURVE SMOOTH",
"414 376 OFFCURVE",
"399 358 OFFCURVE",
"383 338 CURVE SMOOTH",
"366 318 OFFCURVE",
"349 296 OFFCURVE",
"331 274 CURVE SMOOTH",
"313 252 OFFCURVE",
"294 230 OFFCURVE",
"276 208 CURVE SMOOTH",
"239 162 OFFCURVE",
"206 122 OFFCURVE",
"181 90 CURVE SMOOTH",
"155 59 OFFCURVE",
"128 32 OFFCURVE",
"128 -2 CURVE SMOOTH",
"128 -31 OFFCURVE",
"150 -51 OFFCURVE",
"195 -51 CURVE SMOOTH",
"227 -51 OFFCURVE",
"259 -37 OFFCURVE",
"274 -15 CURVE SMOOTH",
"286 0 OFFCURVE",
"305 29 OFFCURVE",
"329 64 CURVE SMOOTH",
"353 100 OFFCURVE",
"380 141 OFFCURVE",
"406 180 CURVE SMOOTH",
"437 226 OFFCURVE",
"470 275 OFFCURVE",
"505 328 CURVE",
"526 227 OFFCURVE",
"544 153 OFFCURVE",
"564 100 CURVE SMOOTH",
"583 47 OFFCURVE",
"603 14 OFFCURVE",
"627 -5 CURVE SMOOTH",
"651 -25 OFFCURVE",
"680 -31 OFFCURVE",
"716 -31 CURVE SMOOTH",
"748 -31 OFFCURVE",
"787 -18 OFFCURVE",
"829 9 CURVE SMOOTH",
"870 35 OFFCURVE",
"915 74 OFFCURVE",
"958 125 CURVE",
"965 133 OFFCURVE",
"969 141 OFFCURVE",
"969 151 CURVE SMOOTH",
"969 165 OFFCURVE",
"963 180 OFFCURVE",
"954 191 CURVE SMOOTH",
"945 203 OFFCURVE",
"934 210 OFFCURVE",
"922 210 CURVE SMOOTH",
"916 210 OFFCURVE",
"911 208 OFFCURVE",
"906 203 CURVE",
"848 114 OFFCURVE",
"799 78 OFFCURVE",
"759 78 CURVE SMOOTH",
"744 78 OFFCURVE",
"731 81 OFFCURVE",
"721 88 CURVE SMOOTH",
"700 102 OFFCURVE",
"686 130 OFFCURVE",
"676 171 CURVE SMOOTH",
"666 211 OFFCURVE",
"655 265 OFFCURVE",
"641 332 CURVE SMOOTH",
"634 365 OFFCURVE",
"625 401 OFFCURVE",
"615 440 CURVE",
"643 480 OFFCURVE",
"671 521 OFFCURVE",
"699 559 CURVE SMOOTH",
"727 596 OFFCURVE",
"754 628 OFFCURVE",
"777 652 CURVE SMOOTH",
"800 675 OFFCURVE",
"818 689 OFFCURVE",
"832 689 CURVE SMOOTH",
"834 689 OFFCURVE",
"836 688 OFFCURVE",
"838 684 CURVE",
"840 676 OFFCURVE",
"841 665 OFFCURVE",
"841 652 CURVE",
"840 645 OFFCURVE",
"840 639 OFFCURVE",
"841 633 CURVE",
"841 622 OFFCURVE",
"844 614 OFFCURVE",
"850 614 CURVE SMOOTH",
"905 614 OFFCURVE",
"943 646 OFFCURVE",
"943 708 CURVE SMOOTH",
"943 739 OFFCURVE",
"936 771 OFFCURVE",
"924 795 CURVE SMOOTH",
"912 819 OFFCURVE",
"895 835 OFFCURVE",
"875 835 CURVE SMOOTH",
"853 835 OFFCURVE",
"824 819 OFFCURVE",
"791 792 CURVE SMOOTH",
"758 765 OFFCURVE",
"721 727 OFFCURVE",
"684 684 CURVE SMOOTH",
"647 641 OFFCURVE",
"610 593 OFFCURVE",
"579 545 CURVE",
"561 633 OFFCURVE",
"536 695 OFFCURVE",
"507 740 CURVE SMOOTH",
"478 784 OFFCURVE",
"446 811 OFFCURVE",
"413 825 CURVE SMOOTH",
"379 840 OFFCURVE",
"345 844 OFFCURVE",
"313 844 CURVE SMOOTH",
"275 844 OFFCURVE",
"243 832 OFFCURVE",
"220 809 CURVE SMOOTH",
"196 785 OFFCURVE",
"183 750 OFFCURVE",
"183 701 CURVE SMOOTH",
"183 694 OFFCURVE",
"184 680 OFFCURVE",
"187 664 CURVE SMOOTH",
"188 648 OFFCURVE",
"192 630 OFFCURVE",
"197 616 CURVE SMOOTH",
"201 603 OFFCURVE",
"208 593 OFFCURVE",
"214 593 CURVE SMOOTH",
"218 593 OFFCURVE",
"223 598 OFFCURVE",
"229 607 CURVE SMOOTH",
"236 623 OFFCURVE",
"245 637 OFFCURVE",
"254 650 CURVE SMOOTH",
"273 677 OFFCURVE",
"291 698 OFFCURVE",
"305 710 CURVE",
"311 716 OFFCURVE",
"315 719 OFFCURVE",
"317 719 CURVE SMOOTH",
"350 719 OFFCURVE",
"375 702 OFFCURVE",
"396 675 CURVE SMOOTH",
"415 647 OFFCURVE",
"430 611 OFFCURVE",
"440 572 CURVE SMOOTH",
"450 533 OFFCURVE",
"457 492 OFFCURVE",
"462 456 CURVE",
"467 441 LINE"
);
}
);
width = 828;
}
);
note = X;
unicode = 0058;
},
{
glyphname = Y;
lastChange = "2016-07-18 14:46:18 +0000";
layers = (
{
layerId = "ECEFE970-1BBB-4E0A-A452-CEB55884B4A3";
paths = (
{
closed = 1;
nodes = (
"604 334 OFFCURVE",
"627 373 OFFCURVE",
"650 411 CURVE SMOOTH",
"695 487 OFFCURVE",
"732 556 OFFCURVE",
"759 611 CURVE SMOOTH",
"786 666 OFFCURVE",
"803 701 OFFCURVE",
"803 728 CURVE SMOOTH",
"803 748 OFFCURVE",
"796 762 OFFCURVE",
"786 770 CURVE SMOOTH",
"776 778 OFFCURVE",
"762 782 OFFCURVE",
"749 782 CURVE SMOOTH",
"723 782 OFFCURVE",
"697 771 OFFCURVE",
"689 756 CURVE SMOOTH",
"681 741 OFFCURVE",
"671 722 OFFCURVE",
"660 699 CURVE SMOOTH",
"647 675 OFFCURVE",
"634 648 OFFCURVE",
"619 619 CURVE SMOOTH",
"589 561 OFFCURVE",
"553 492 OFFCURVE",
"515 422 CURVE",
"472 520 OFFCURVE",
"427 610 OFFCURVE",
"375 675 CURVE SMOOTH",
"322 739 OFFCURVE",
"261 779 OFFCURVE",
"187 779 CURVE SMOOTH",
"160 779 OFFCURVE",
"141 772 OFFCURVE",
"128 763 CURVE SMOOTH",
"116 753 OFFCURVE",
"110 741 OFFCURVE",
"110 729 CURVE SMOOTH",
"110 694 OFFCURVE",
"114 659 OFFCURVE",
"121 633 CURVE SMOOTH",
"128 607 OFFCURVE",
"139 590 OFFCURVE",
"152 590 CURVE SMOOTH",
"159 590 OFFCURVE",
"166 591 OFFCURVE",
"166 602 CURVE SMOOTH",
"166 605 OFFCURVE",
"165 610 OFFCURVE",
"165 615 CURVE SMOOTH",
"164 620 OFFCURVE",
"164 625 OFFCURVE",
"164 629 CURVE SMOOTH",
"164 638 OFFCURVE",
"165 647 OFFCURVE",
"170 653 CURVE SMOOTH",
"176 660 OFFCURVE",
"185 664 OFFCURVE",
"200 664 CURVE SMOOTH",
"229 664 OFFCURVE",
"259 645 OFFCURVE",
"288 612 CURVE SMOOTH",
"316 579 OFFCURVE",
"343 534 OFFCURVE",
"369 482 CURVE SMOOTH",
"395 430 OFFCURVE",
"418 372 OFFCURVE",
"441 315 CURVE",
"435 304 OFFCURVE",
"428 290 OFFCURVE",
"420 274 CURVE SMOOTH",
"413 258 OFFCURVE",
"404 241 OFFCURVE",
"394 223 CURVE SMOOTH",
"375 188 OFFCURVE",
"350 151 OFFCURVE",
"319 124 CURVE SMOOTH",
"288 97 OFFCURVE",
"249 78 OFFCURVE",
"200 78 CURVE SMOOTH",
"183 78 OFFCURVE",
"163 83 OFFCURVE",
"143 96 CURVE",
"140 97 OFFCURVE",
"138 98 OFFCURVE",
"136 98 CURVE SMOOTH",
"125 98 OFFCURVE",
"121 89 OFFCURVE",
"121 79 CURVE SMOOTH",
"121 69 OFFCURVE",
"125 58 OFFCURVE",
"128 53 CURVE",
"131 45 OFFCURVE",
"148 28 OFFCURVE",
"170 12 CURVE SMOOTH",
"192 -3 OFFCURVE",
"220 -17 OFFCURVE",
"246 -17 CURVE SMOOTH",
"275 -17 OFFCURVE",
"300 -12 OFFCURVE",
"327 3 CURVE SMOOTH",
"354 18 OFFCURVE",
"383 42 OFFCURVE",
"419 82 CURVE SMOOTH",
"454 121 OFFCURVE",
"497 174 OFFCURVE",
"550 247 CURVE",
"579 295 LINE SMOOTH"
);
}
);
width = 719;
}
);
note = Y;
unicode = 0059;
},
{
glyphname = Z;
lastChange = "2016-07-18 14:46:18 +0000";
layers = (
{
layerId = "ECEFE970-1BBB-4E0A-A452-CEB55884B4A3";
paths = (
{
closed = 1;
nodes = (
"321 640 OFFCURVE",
"332 640 OFFCURVE",
"342 640 CURVE SMOOTH",
"350 640 OFFCURVE",
"358 640 OFFCURVE",
"367 640 CURVE SMOOTH",
"375 641 OFFCURVE",
"382 641 OFFCURVE",
"390 641 CURVE",
"31 172 LINE",
"-8 134 OFFCURVE",
"-23 101 OFFCURVE",
"-23 76 CURVE SMOOTH",
"-23 44 OFFCURVE",
"1 25 OFFCURVE",
"36 25 CURVE SMOOTH",
"63 25 OFFCURVE",
"98 37 OFFCURVE",
"131 66 CURVE",
"164 51 OFFCURVE",
"193 38 OFFCURVE",
"218 28 CURVE SMOOTH",
"268 7 OFFCURVE",
"304 -5 OFFCURVE",
"325 -11 CURVE SMOOTH",
"336 -13 OFFCURVE",
"344 -15 OFFCURVE",
"348 -15 CURVE SMOOTH",
"405 -15 OFFCURVE",
"461 4 OFFCURVE",
"510 27 CURVE SMOOTH",
"559 51 OFFCURVE",
"600 79 OFFCURVE",
"624 99 CURVE",
"629 105 OFFCURVE",
"632 114 OFFCURVE",
"632 125 CURVE SMOOTH",
"632 140 OFFCURVE",
"625 156 OFFCURVE",
"615 168 CURVE SMOOTH",
"605 181 OFFCURVE",
"591 189 OFFCURVE",
"577 189 CURVE SMOOTH",
"569 189 OFFCURVE",
"563 187 OFFCURVE",
"555 182 CURVE",
"543 175 OFFCURVE",
"530 167 OFFCURVE",
"517 158 CURVE SMOOTH",
"502 149 OFFCURVE",
"487 141 OFFCURVE",
"470 133 CURVE SMOOTH",
"436 117 OFFCURVE",
"395 104 OFFCURVE",
"342 104 CURVE SMOOTH",
"334 104 OFFCURVE",
"326 105 OFFCURVE",
"315 108 CURVE SMOOTH",
"295 113 OFFCURVE",
"273 121 OFFCURVE",
"253 130 CURVE SMOOTH",
"232 139 OFFCURVE",
"215 146 OFFCURVE",
"205 152 CURVE",
"200 154 OFFCURVE",
"197 156 OFFCURVE",
"197 156 CURVE",
"199 167 LINE",
"203 172 OFFCURVE",
"210 182 OFFCURVE",
"219 198 CURVE SMOOTH",
"229 213 OFFCURVE",
"240 233 OFFCURVE",
"255 257 CURVE SMOOTH",
"284 305 OFFCURVE",
"325 368 OFFCURVE",
"376 437 CURVE SMOOTH",
"428 505 OFFCURVE",
"491 581 OFFCURVE",
"567 654 CURVE",
"576 660 OFFCURVE",
"583 665 OFFCURVE",
"587 669 CURVE",
"591 673 OFFCURVE",
"594 676 OFFCURVE",
"594 678 CURVE",
"596 689 OFFCURVE",
"598 700 OFFCURVE",
"598 710 CURVE SMOOTH",
"598 741 OFFCURVE",
"586 761 OFFCURVE",
"559 761 CURVE SMOOTH",
"558 761 OFFCURVE",
"556 760 OFFCURVE",
"552 760 CURVE SMOOTH",
"549 759 OFFCURVE",
"543 758 OFFCURVE",
"534 758 CURVE SMOOTH",
"524 757 OFFCURVE",
"511 756 OFFCURVE",
"494 756 CURVE SMOOTH",
"476 755 OFFCURVE",
"453 755 OFFCURVE",
"423 755 CURVE SMOOTH",
"414 755 OFFCURVE",
"403 755 OFFCURVE",
"393 755 CURVE SMOOTH",
"382 755 OFFCURVE",
"371 755 OFFCURVE",
"359 755 CURVE SMOOTH",
"326 756 OFFCURVE",
"296 767 OFFCURVE",
"268 777 CURVE SMOOTH",
"238 787 OFFCURVE",
"211 797 OFFCURVE",
"182 797 CURVE SMOOTH",
"157 797 OFFCURVE",
"127 789 OFFCURVE",
"100 760 CURVE SMOOTH",
"73 730 OFFCURVE",
"50 679 OFFCURVE",
"39 595 CURVE SMOOTH",
"37 586 OFFCURVE",
"36 578 OFFCURVE",
"36 570 CURVE SMOOTH",
"36 552 OFFCURVE",
"41 541 OFFCURVE",
"53 541 CURVE SMOOTH",
"60 541 OFFCURVE",
"68 544 OFFCURVE",
"78 552 CURVE SMOOTH",
"87 559 OFFCURVE",
"96 572 OFFCURVE",
"105 592 CURVE SMOOTH",
"120 624 OFFCURVE",
"132 645 OFFCURVE",
"144 658 CURVE SMOOTH",
"155 670 OFFCURVE",
"166 675 OFFCURVE",
"177 675 CURVE SMOOTH",
"191 675 OFFCURVE",
"208 668 OFFCURVE",
"229 661 CURVE SMOOTH",
"250 653 OFFCURVE",
"275 645 OFFCURVE",
"310 641 CURVE SMOOTH"
);
}
);
width = 500;
}
);
note = Z;
unicode = 005A;
},
{
color = 9;
glyphname = A.ss01;
lastChange = "2016-07-22 21:29:15 +0000";
layers = (
{
background = {
paths = (
{
closed = 1;
nodes = (
"438 -4 OFFCURVE",
"517 82 OFFCURVE",
"565 237 CURVE",
"679 626 LINE",
"578 513 LINE",
"511 220 OFFCURVE",
"444 117 OFFCURVE",
"338 117 CURVE SMOOTH",
"270 117 OFFCURVE",
"217 167 OFFCURVE",
"217 290 CURVE SMOOTH",
"217 514 OFFCURVE",
"346 728 OFFCURVE",
"618 728 CURVE SMOOTH",
"665 728 OFFCURVE",
"702 724 OFFCURVE",
"748 715 CURVE SMOOTH",
"839 697 OFFCURVE",
"867 805 OFFCURVE",
"806 824 CURVE SMOOTH",
"750 841 OFFCURVE",
"687 848 OFFCURVE",
"630 848 CURVE SMOOTH",
"255 848 OFFCURVE",
"65 576 OFFCURVE",
"65 280 CURVE SMOOTH",
"65 102 OFFCURVE",
"166 -4 OFFCURVE",
"312 -4 CURVE SMOOTH"
);
},
{
closed = 1;
nodes = (
"617 -52 OFFCURVE",
"664 -33 OFFCURVE",
"664 18 CURVE",
"666 47 LINE",
"673 224 OFFCURVE",
"719 492 OFFCURVE",
"755 611 CURVE SMOOTH",
"757 617 OFFCURVE",
"758 623 OFFCURVE",
"758 628 CURVE SMOOTH",
"758 661 OFFCURVE",
"725 672 OFFCURVE",
"695 672 CURVE SMOOTH",
"658 672 OFFCURVE",
"616 659 OFFCURVE",
"606 623 CURVE SMOOTH",
"596 588 OFFCURVE",
"587 551 OFFCURVE",
"578 513 CURVE SMOOTH",
"539 347 OFFCURVE",
"520 165 OFFCURVE",
"508 13 CURVE SMOOTH",
"505 -26 OFFCURVE",
"523 -52 OFFCURVE",
"575 -52 CURVE SMOOTH"
);
}
);
};
guideLines = (
{
angle = 255.7189;
position = "{592, 568}";
}
);
layerId = "ECEFE970-1BBB-4E0A-A452-CEB55884B4A3";
paths = (
{
closed = 1;
nodes = (
"438 -4 OFFCURVE",
"514 82 OFFCURVE",
"557 237 CURVE",
"679 626 LINE",
"559 437 LINE",
"501 211 OFFCURVE",
"441 117 OFFCURVE",
"337 117 CURVE SMOOTH",
"268 117 OFFCURVE",
"217 167 OFFCURVE",
"217 290 CURVE SMOOTH",
"217 514 OFFCURVE",
"346 728 OFFCURVE",
"618 728 CURVE SMOOTH",
"665 728 OFFCURVE",
"702 724 OFFCURVE",
"748 715 CURVE SMOOTH",
"839 697 OFFCURVE",
"867 805 OFFCURVE",
"806 824 CURVE SMOOTH",
"750 841 OFFCURVE",
"687 848 OFFCURVE",
"630 848 CURVE SMOOTH",
"255 848 OFFCURVE",
"65 576 OFFCURVE",
"65 280 CURVE SMOOTH",
"65 75 OFFCURVE",
"194 -4 OFFCURVE",
"310 -4 CURVE SMOOTH"
);
},
{
closed = 1;
nodes = (
"619 -5 OFFCURVE",
"666 14 OFFCURVE",
"666 65 CURVE",
"669 94 LINE",
"675 231 OFFCURVE",
"719 492 OFFCURVE",
"755 611 CURVE SMOOTH",
"757 617 OFFCURVE",
"758 623 OFFCURVE",
"758 628 CURVE SMOOTH",
"758 661 OFFCURVE",
"725 672 OFFCURVE",
"695 672 CURVE SMOOTH",
"658 672 OFFCURVE",
"615 659 OFFCURVE",
"606 623 CURVE SMOOTH",
"559 437 LINE",
"542 347 OFFCURVE",
"522 172 OFFCURVE",
"511 60 CURVE SMOOTH",
"507 21 OFFCURVE",
"525 -5 OFFCURVE",
"577 -5 CURVE SMOOTH"
);
}
);
width = 773;
}
);
leftMetricsKey = A;
note = A;
},
{
color = 9;
glyphname = AE.ss01;
lastChange = "2016-07-22 21:29:59 +0000";
layers = (
{
background = {
paths = (
{
closed = 1;
nodes = (
"438 -4 OFFCURVE",
"529 64 OFFCURVE",
"583 237 CURVE",
"679 626 LINE",
"556 431 LINE",
"498 220 OFFCURVE",
"434 117 OFFCURVE",
"336 117 CURVE SMOOTH",
"270 117 OFFCURVE",
"217 167 OFFCURVE",
"217 290 CURVE SMOOTH",
"217 514 OFFCURVE",
"337 698 OFFCURVE",
"568 726 CURVE SMOOTH",
"625 733 OFFCURVE",
"647 857 OFFCURVE",
"530 843 CURVE SMOOTH",
"246 809 OFFCURVE",
"65 576 OFFCURVE",
"65 280 CURVE SMOOTH",
"65 97 OFFCURVE",
"166 -4 OFFCURVE",
"315 -4 CURVE SMOOTH"
);
},
{
closed = 1;
nodes = (
"1059 720 OFFCURVE",
"1089 751 OFFCURVE",
"1089 787 CURVE SMOOTH",
"1089 824 OFFCURVE",
"1064 849 OFFCURVE",
"1005 849 CURVE SMOOTH",
"929 849 OFFCURVE",
"859 845 OFFCURVE",
"805 842 CURVE SMOOTH",
"718 837 OFFCURVE",
"657 801 OFFCURVE",
"627 691 CURVE SMOOTH",
"556 431 LINE",
"547 264 LINE",
"541 121 OFFCURVE",
"623 -5 OFFCURVE",
"848 -5 CURVE SMOOTH",
"939 -5 OFFCURVE",
"1022 20 OFFCURVE",
"1098 59 CURVE SMOOTH",
"1182 102 OFFCURVE",
"1179 199 OFFCURVE",
"1100 174 CURVE SMOOTH",
"1029 151 OFFCURVE",
"955 120 OFFCURVE",
"871 120 CURVE SMOOTH",
"704 120 OFFCURVE",
"668 212 OFFCURVE",
"702 361 CURVE",
"811 363 OFFCURVE",
"859 365 OFFCURVE",
"937 367 CURVE SMOOTH",
"1000 369 OFFCURVE",
"1023 396 OFFCURVE",
"1023 436 CURVE SMOOTH",
"1023 464 OFFCURVE",
"1008 490 OFFCURVE",
"959 490 CURVE SMOOTH",
"888 490 OFFCURVE",
"815 486 OFFCURVE",
"726 483 CURVE",
"742 556 OFFCURVE",
"764 651 OFFCURVE",
"784 713 CURVE",
"825 716 OFFCURVE",
"925 720 OFFCURVE",
"977 720 CURVE SMOOTH"
);
}
);
};
guideLines = (
{
angle = 254.6088;
position = "{1073, 602}";
}
);
layerId = "ECEFE970-1BBB-4E0A-A452-CEB55884B4A3";
paths = (
{
closed = 1;
nodes = (
"438 -4 OFFCURVE",
"529 64 OFFCURVE",
"583 237 CURVE",
"679 626 LINE",
"556 431 LINE",
"498 220 OFFCURVE",
"434 117 OFFCURVE",
"336 117 CURVE SMOOTH",
"270 117 OFFCURVE",
"217 167 OFFCURVE",
"217 290 CURVE SMOOTH",
"217 514 OFFCURVE",
"337 698 OFFCURVE",
"568 726 CURVE SMOOTH",
"625 733 OFFCURVE",
"647 857 OFFCURVE",
"530 843 CURVE SMOOTH",
"246 809 OFFCURVE",
"65 576 OFFCURVE",
"65 280 CURVE SMOOTH",
"65 97 OFFCURVE",
"166 -4 OFFCURVE",
"315 -4 CURVE SMOOTH"
);
},
{
closed = 1;
nodes = (
"1048 48 OFFCURVE",
"1065 79 OFFCURVE",
"1065 108 CURVE SMOOTH",
"1065 136 OFFCURVE",
"1043 151 OFFCURVE",
"997 139 CURVE SMOOTH",
"952 128 OFFCURVE",
"913 120 OFFCURVE",
"861 120 CURVE SMOOTH",
"704 120 OFFCURVE",
"668 212 OFFCURVE",
"702 361 CURVE",
"811 363 OFFCURVE",
"859 365 OFFCURVE",
"937 367 CURVE SMOOTH",
"1000 369 OFFCURVE",
"1023 396 OFFCURVE",
"1023 436 CURVE SMOOTH",
"1023 464 OFFCURVE",
"1008 490 OFFCURVE",
"959 490 CURVE SMOOTH",
"888 490 OFFCURVE",
"815 486 OFFCURVE",
"726 483 CURVE",
"742 556 OFFCURVE",
"764 651 OFFCURVE",
"784 713 CURVE",
"825 716 OFFCURVE",
"925 720 OFFCURVE",
"977 720 CURVE SMOOTH",
"1059 720 OFFCURVE",
"1089 751 OFFCURVE",
"1089 787 CURVE SMOOTH",
"1089 824 OFFCURVE",
"1064 849 OFFCURVE",
"1005 849 CURVE SMOOTH",
"929 849 OFFCURVE",
"859 845 OFFCURVE",
"805 842 CURVE SMOOTH",
"718 837 OFFCURVE",
"657 801 OFFCURVE",
"627 691 CURVE SMOOTH",
"556 431 LINE",
"547 264 LINE",
"541 121 OFFCURVE",
"623 -5 OFFCURVE",
"838 -5 CURVE SMOOTH",
"905 -5 OFFCURVE",
"959 6 OFFCURVE",
"1006 28 CURVE SMOOTH"
);
}
);
width = 1049;
}
);
leftMetricsKey = A;
note = AE;
},
{
color = 9;
glyphname = B.ss01;
lastChange = "2016-07-22 18:47:52 +0000";
layers = (
{
background = {
paths = (
{
closed = 1;
nodes = (
"174 7 LINE",
"192 6 OFFCURVE",
"210 3 OFFCURVE",
"269 3 CURVE SMOOTH",
"560 3 OFFCURVE",
"712 104 OFFCURVE",
"712 251 CURVE SMOOTH",
"712 338 OFFCURVE",
"651 394 OFFCURVE",
"545 414 CURVE",
"544 395 LINE",
"723 423 OFFCURVE",
"822 516 OFFCURVE",
"822 640 CURVE SMOOTH",
"822 765 OFFCURVE",
"702 862 OFFCURVE",
"462 862 CURVE SMOOTH",
"305 862 OFFCURVE",
"146 825 OFFCURVE",
"41 764 CURVE SMOOTH",
"-9 735 OFFCURVE",
"-27 704 OFFCURVE",
"-27 675 CURVE SMOOTH",
"-27 638 OFFCURVE",
"12 616 OFFCURVE",
"71 651 CURVE SMOOTH",
"150 698 OFFCURVE",
"289 744 OFFCURVE",
"441 744 CURVE SMOOTH",
"598 744 OFFCURVE",
"663 692 OFFCURVE",
"663 623 CURVE SMOOTH",
"663 529 OFFCURVE",
"555 474 OFFCURVE",
"421 470 CURVE SMOOTH",
"382 469 OFFCURVE",
"363 438 OFFCURVE",
"362 406 CURVE SMOOTH",
"361 375 OFFCURVE",
"371 362 OFFCURVE",
"401 361 CURVE SMOOTH",
"521 357 OFFCURVE",
"554 307 OFFCURVE",
"554 260 CURVE SMOOTH",
"554 181 OFFCURVE",
"484 112 OFFCURVE",
"273 112 CURVE SMOOTH",
"249 112 OFFCURVE",
"201 117 OFFCURVE",
"176 119 CURVE"
);
},
{
closed = 1;
nodes = (
"174 -52 OFFCURVE",
"221 -33 OFFCURVE",
"221 18 CURVE SMOOTH",
"221 25 OFFCURVE",
"222 20 OFFCURVE",
"223 47 CURVE SMOOTH",
"230 227 OFFCURVE",
"279 472 OFFCURVE",
"319 591 CURVE SMOOTH",
"321 597 OFFCURVE",
"322 603 OFFCURVE",
"322 608 CURVE SMOOTH",
"322 641 OFFCURVE",
"285 652 OFFCURVE",
"265 652 CURVE SMOOTH",
"218 652 OFFCURVE",
"176 639 OFFCURVE",
"166 603 CURVE SMOOTH",
"113 411 OFFCURVE",
"77 199 OFFCURVE",
"65 13 CURVE SMOOTH",
"62 -26 OFFCURVE",
"80 -52 OFFCURVE",
"132 -52 CURVE SMOOTH"
);
}
);
};
layerId = "ECEFE970-1BBB-4E0A-A452-CEB55884B4A3";
paths = (
{
closed = 1;
nodes = (
"175 817 OFFCURVE",
"149 789 OFFCURVE",
"149 748 CURVE SMOOTH",
"149 719 OFFCURVE",
"171 698 OFFCURVE",
"215 710 CURVE SMOOTH",
"282 728 OFFCURVE",
"360 744 OFFCURVE",
"441 744 CURVE SMOOTH",
"578 744 OFFCURVE",
"638 692 OFFCURVE",
"638 623 CURVE SMOOTH",
"638 529 OFFCURVE",
"535 474 OFFCURVE",
"421 470 CURVE SMOOTH",
"382 469 OFFCURVE",
"363 438 OFFCURVE",
"362 406 CURVE SMOOTH",
"361 375 OFFCURVE",
"371 361 OFFCURVE",
"401 361 CURVE SMOOTH",
"538 359 OFFCURVE",
"571 317 OFFCURVE",
"571 260 CURVE SMOOTH",
"571 181 OFFCURVE",
"501 112 OFFCURVE",
"313 112 CURVE SMOOTH",
"262 112 OFFCURVE",
"245 113 OFFCURVE",
"227 115 CURVE",
"242 284 OFFCURVE",
"284 486 OFFCURVE",
"319 591 CURVE SMOOTH",
"321 597 OFFCURVE",
"322 603 OFFCURVE",
"322 608 CURVE SMOOTH",
"322 641 OFFCURVE",
"285 652 OFFCURVE",
"265 652 CURVE SMOOTH",
"218 652 OFFCURVE",
"176 639 OFFCURVE",
"166 603 CURVE SMOOTH",
"113 411 OFFCURVE",
"87 262 OFFCURVE",
"73 76 CURVE SMOOTH",
"70 37 OFFCURVE",
"88 19 OFFCURVE",
"140 13 CURVE SMOOTH",
"191 7 OFFCURVE",
"220 3 OFFCURVE",
"309 3 CURVE SMOOTH",
"577 3 OFFCURVE",
"729 104 OFFCURVE",
"729 251 CURVE SMOOTH",
"729 337 OFFCURVE",
"670 399 OFFCURVE",
"539 419 CURVE",
"536 402 LINE",
"705 432 OFFCURVE",
"797 517 OFFCURVE",
"797 640 CURVE SMOOTH",
"797 765 OFFCURVE",
"682 862 OFFCURVE",
"462 862 CURVE SMOOTH",
"369 862 OFFCURVE",
"273 844 OFFCURVE",
"236 834 CURVE SMOOTH"
);
}
);
width = 784;
}
);
note = B;
},
{
color = 9;
glyphname = C.ss01;
lastChange = "2016-07-22 21:30:37 +0000";
layers = (
{
background = {
paths = (
{
closed = 1;
nodes = (
"2010 121 OFFCURVE",
"1920 221 OFFCURVE",
"1920 383 CURVE SMOOTH",
"1920 604 OFFCURVE",
"2057 730 OFFCURVE",
"2181 730 CURVE SMOOTH",
"2242 730 OFFCURVE",
"2269 694 OFFCURVE",
"2269 635 CURVE SMOOTH",
"2269 611 OFFCURVE",
"2259 584 OFFCURVE",
"2259 562 CURVE SMOOTH",
"2259 526 OFFCURVE",
"2283 506 OFFCURVE",
"2319 506 CURVE SMOOTH",
"2386 506 OFFCURVE",
"2414 567 OFFCURVE",
"2414 646 CURVE SMOOTH",
"2414 762 OFFCURVE",
"2342 848 OFFCURVE",
"2200 848 CURVE SMOOTH",
"1976 848 OFFCURVE",
"1769 663 OFFCURVE",
"1769 361 CURVE SMOOTH",
"1769 146 OFFCURVE",
"1910 -5 OFFCURVE",
"2145 -5 CURVE SMOOTH",
"2258 -5 OFFCURVE",
"2388 29 OFFCURVE",
"2504 121 CURVE SMOOTH",
"2562 167 OFFCURVE",
"2535 265 OFFCURVE",
"2467 218 CURVE SMOOTH",
"2372 152 OFFCURVE",
"2268 121 OFFCURVE",
"2168 121 CURVE SMOOTH"
);
},
{
closed = 1;
nodes = (
"1417 -5 OFFCURVE",
"1603 217 OFFCURVE",
"1603 505 CURVE SMOOTH",
"1603 724 OFFCURVE",
"1461 848 OFFCURVE",
"1287 848 CURVE SMOOTH",
"1012 848 OFFCURVE",
"869 592 OFFCURVE",
"869 338 CURVE SMOOTH",
"869 119 OFFCURVE",
"1001 -5 OFFCURVE",
"1185 -5 CURVE SMOOTH"
);
},
{
closed = 1;
nodes = (
"1096 115 OFFCURVE",
"1018 191 OFFCURVE",
"1018 356 CURVE SMOOTH",
"1018 570 OFFCURVE",
"1122 728 OFFCURVE",
"1276 728 CURVE SMOOTH",
"1376 728 OFFCURVE",
"1454 651 OFFCURVE",
"1454 487 CURVE SMOOTH",
"1454 245 OFFCURVE",
"1332 115 OFFCURVE",
"1196 115 CURVE SMOOTH"
);
},
{
closed = 1;
nodes = (
"296 121 OFFCURVE",
"220 193 OFFCURVE",
"220 357 CURVE SMOOTH",
"220 604 OFFCURVE",
"347 730 OFFCURVE",
"479 730 CURVE SMOOTH",
"542 730 OFFCURVE",
"569 694 OFFCURVE",
"569 635 CURVE SMOOTH",
"569 611 OFFCURVE",
"559 584 OFFCURVE",
"559 562 CURVE SMOOTH",
"559 526 OFFCURVE",
"583 506 OFFCURVE",
"619 506 CURVE SMOOTH",
"686 506 OFFCURVE",
"714 567 OFFCURVE",
"714 646 CURVE SMOOTH",
"714 762 OFFCURVE",
"642 848 OFFCURVE",
"489 848 CURVE SMOOTH",
"268 848 OFFCURVE",
"69 663 OFFCURVE",
"69 340 CURVE SMOOTH",
"69 119 OFFCURVE",
"201 -5 OFFCURVE",
"395 -5 CURVE SMOOTH",
"478 -5 OFFCURVE",
"591 34 OFFCURVE",
"672 121 CURVE SMOOTH",
"723 175 OFFCURVE",
"697 273 OFFCURVE",
"635 218 CURVE SMOOTH",
"560 152 OFFCURVE",
"496 121 OFFCURVE",
"415 121 CURVE SMOOTH"
);
}
);
};
layerId = "ECEFE970-1BBB-4E0A-A452-CEB55884B4A3";
paths = (
{
closed = 1;
nodes = (
"296 121 OFFCURVE",
"220 197 OFFCURVE",
"220 367 CURVE SMOOTH",
"220 604 OFFCURVE",
"347 730 OFFCURVE",
"483 730 CURVE SMOOTH",
"550 730 OFFCURVE",
"578 694 OFFCURVE",
"578 635 CURVE SMOOTH",
"578 611 OFFCURVE",
"568 584 OFFCURVE",
"568 562 CURVE SMOOTH",
"568 526 OFFCURVE",
"592 506 OFFCURVE",
"628 506 CURVE SMOOTH",
"695 506 OFFCURVE",
"723 567 OFFCURVE",
"723 646 CURVE SMOOTH",
"723 762 OFFCURVE",
"650 848 OFFCURVE",
"493 848 CURVE SMOOTH",
"268 848 OFFCURVE",
"69 663 OFFCURVE",
"69 350 CURVE SMOOTH",
"69 119 OFFCURVE",
"201 -5 OFFCURVE",
"399 -5 CURVE SMOOTH",
"486 -5 OFFCURVE",
"599 34 OFFCURVE",
"680 121 CURVE SMOOTH",
"731 175 OFFCURVE",
"705 273 OFFCURVE",
"643 218 CURVE SMOOTH",
"568 152 OFFCURVE",
"504 121 OFFCURVE",
"419 121 CURVE SMOOTH"
);
}
);
width = 692;
}
);
note = C;
},
{
color = 9;
glyphname = D.ss01;
lastChange = "2016-07-22 21:29:46 +0000";
layers = (
{
background = {
paths = (
{
closed = 1;
nodes = (
"175 -52 OFFCURVE",
"222 -33 OFFCURVE",
"222 18 CURVE SMOOTH",
"222 25 OFFCURVE",
"223 20 OFFCURVE",
"224 47 CURVE SMOOTH",
"231 227 OFFCURVE",
"280 472 OFFCURVE",
"320 591 CURVE SMOOTH",
"322 597 OFFCURVE",
"323 603 OFFCURVE",
"323 608 CURVE SMOOTH",
"323 641 OFFCURVE",
"286 652 OFFCURVE",
"266 652 CURVE SMOOTH",
"219 652 OFFCURVE",
"177 639 OFFCURVE",
"167 603 CURVE SMOOTH",
"114 411 OFFCURVE",
"80 199 OFFCURVE",
"66 13 CURVE SMOOTH",
"63 -26 OFFCURVE",
"81 -52 OFFCURVE",
"133 -52 CURVE SMOOTH"
);
},
{
closed = 1;
nodes = (
"276 860 OFFCURVE",
"147 830 OFFCURVE",
"42 764 CURVE SMOOTH",
"-63 698 OFFCURVE",
"-35 582 OFFCURVE",
"72 651 CURVE SMOOTH",
"151 702 OFFCURVE",
"260 742 OFFCURVE",
"382 742 CURVE SMOOTH",
"541 742 OFFCURVE",
"630 655 OFFCURVE",
"630 480 CURVE SMOOTH",
"630 255 OFFCURVE",
"491 120 OFFCURVE",
"284 120 CURVE SMOOTH",
"250 120 OFFCURVE",
"202 125 OFFCURVE",
"177 127 CURVE",
"175 7 LINE",
"193 5 OFFCURVE",
"211 1 OFFCURVE",
"270 1 CURVE SMOOTH",
"590 1 OFFCURVE",
"779 217 OFFCURVE",
"779 495 CURVE SMOOTH",
"779 704 OFFCURVE",
"655 860 OFFCURVE",
"383 860 CURVE SMOOTH"
);
}
);
};
layerId = "ECEFE970-1BBB-4E0A-A452-CEB55884B4A3";
paths = (
{
closed = 1;
nodes = (
"336 860 OFFCURVE",
"277 850 OFFCURVE",
"232 834 CURVE SMOOTH",
"172 813 OFFCURVE",
"145 789 OFFCURVE",
"145 748 CURVE SMOOTH",
"145 719 OFFCURVE",
"167 696 OFFCURVE",
"211 710 CURVE SMOOTH",
"292 736 OFFCURVE",
"340 742 OFFCURVE",
"390 742 CURVE SMOOTH",
"533 742 OFFCURVE",
"630 665 OFFCURVE",
"630 479 CURVE SMOOTH",
"630 247 OFFCURVE",
"491 112 OFFCURVE",
"284 112 CURVE SMOOTH",
"268 112 OFFCURVE",
"248 113 OFFCURVE",
"227 115 CURVE",
"241 276 OFFCURVE",
"283 488 OFFCURVE",
"318 591 CURVE SMOOTH",
"320 597 OFFCURVE",
"321 603 OFFCURVE",
"321 608 CURVE SMOOTH",
"321 641 OFFCURVE",
"284 652 OFFCURVE",
"264 652 CURVE SMOOTH",
"217 652 OFFCURVE",
"175 639 OFFCURVE",
"165 603 CURVE SMOOTH",
"112 411 OFFCURVE",
"86 254 OFFCURVE",
"72 68 CURVE SMOOTH",
"69 29 OFFCURVE",
"86 12 OFFCURVE",
"139 5 CURVE SMOOTH",
"190 -2 OFFCURVE",
"219 -5 OFFCURVE",
"270 -5 CURVE SMOOTH",
"590 -5 OFFCURVE",
"779 209 OFFCURVE",
"779 494 CURVE SMOOTH",
"779 714 OFFCURVE",
"643 860 OFFCURVE",
"403 860 CURVE SMOOTH"
);
}
);
width = 790;
}
);
note = D;
},
{
color = 9;
glyphname = E.ss01;
lastChange = "2016-07-22 21:30:40 +0000";
layers = (
{
background = {
paths = (
{
closed = 1;
nodes = (
"523 733 OFFCURVE",
"560 705 OFFCURVE",
"587 653 CURVE SMOOTH",
"608 613 OFFCURVE",
"627 596 OFFCURVE",
"666 596 CURVE SMOOTH",
"708 596 OFFCURVE",
"732 625 OFFCURVE",
"732 664 CURVE SMOOTH",
"732 754 OFFCURVE",
"639 848 OFFCURVE",
"459 848 CURVE SMOOTH",
"278 848 OFFCURVE",
"134 753 OFFCURVE",
"134 603 CURVE SMOOTH",
"134 527 OFFCURVE",
"193 450 OFFCURVE",
"302 441 CURVE",
"303 460 LINE",
"131 432 OFFCURVE",
"37 341 OFFCURVE",
"37 215 CURVE SMOOTH",
"37 90 OFFCURVE",
"156 -7 OFFCURVE",
"400 -7 CURVE SMOOTH",
"542 -7 OFFCURVE",
"693 46 OFFCURVE",
"788 121 CURVE SMOOTH",
"846 167 OFFCURVE",
"819 265 OFFCURVE",
"751 218 CURVE SMOOTH",
"675 166 OFFCURVE",
"552 119 OFFCURVE",
"411 119 CURVE SMOOTH",
"262 119 OFFCURVE",
"196 165 OFFCURVE",
"196 239 CURVE SMOOTH",
"196 309 OFFCURVE",
"258 380 OFFCURVE",
"427 384 CURVE SMOOTH",
"466 385 OFFCURVE",
"485 417 OFFCURVE",
"486 449 CURVE SMOOTH",
"487 480 OFFCURVE",
"477 494 OFFCURVE",
"447 495 CURVE SMOOTH",
"323 499 OFFCURVE",
"288 548 OFFCURVE",
"288 600 CURVE SMOOTH",
"288 677 OFFCURVE",
"355 733 OFFCURVE",
"453 733 CURVE SMOOTH"
);
}
);
};
layerId = "ECEFE970-1BBB-4E0A-A452-CEB55884B4A3";
paths = (
{
closed = 1;
nodes = (
"514 733 OFFCURVE",
"551 705 OFFCURVE",
"578 653 CURVE SMOOTH",
"599 613 OFFCURVE",
"618 596 OFFCURVE",
"657 596 CURVE SMOOTH",
"699 596 OFFCURVE",
"723 625 OFFCURVE",
"723 664 CURVE SMOOTH",
"723 754 OFFCURVE",
"630 848 OFFCURVE",
"453 848 CURVE SMOOTH",
"265 848 OFFCURVE",
"121 753 OFFCURVE",
"121 607 CURVE SMOOTH",
"121 527 OFFCURVE",
"183 446 OFFCURVE",
"302 439 CURVE",
"303 458 LINE",
"141 430 OFFCURVE",
"51 341 OFFCURVE",
"51 215 CURVE SMOOTH",
"51 90 OFFCURVE",
"168 -5 OFFCURVE",
"364 -5 CURVE SMOOTH",
"481 -5 OFFCURVE",
"603 35 OFFCURVE",
"687 121 CURVE SMOOTH",
"739 174 OFFCURVE",
"713 272 OFFCURVE",
"650 218 CURVE SMOOTH",
"573 152 OFFCURVE",
"489 121 OFFCURVE",
"391 121 CURVE SMOOTH",
"275 121 OFFCURVE",
"210 165 OFFCURVE",
"210 239 CURVE SMOOTH",
"210 309 OFFCURVE",
"271 380 OFFCURVE",
"426 384 CURVE SMOOTH",
"466 385 OFFCURVE",
"485 417 OFFCURVE",
"486 449 CURVE SMOOTH",
"487 480 OFFCURVE",
"477 494 OFFCURVE",
"442 495 CURVE SMOOTH",
"311 499 OFFCURVE",
"275 548 OFFCURVE",
"275 603 CURVE SMOOTH",
"275 677 OFFCURVE",
"342 733 OFFCURVE",
"447 733 CURVE SMOOTH"
);
}
);
width = 688;
}
);
note = E;
},
{
color = 9;
glyphname = M.ss01;
lastChange = "2016-07-22 21:30:27 +0000";
layers = (
{
background = {
paths = (
{
closed = 1;
nodes = (
"2644 227 OFFCURVE",
"2634 222 OFFCURVE",
"2624 209 CURVE SMOOTH",
"2572 141 OFFCURVE",
"2534 114 OFFCURVE",
"2490 114 CURVE SMOOTH",
"2447 114 OFFCURVE",
"2417 141 OFFCURVE",
"2417 198 CURVE SMOOTH",
"2417 229 OFFCURVE",
"2421 254 OFFCURVE",
"2427 284 CURVE SMOOTH",
"2488 570 LINE SMOOTH",
"2496 609 OFFCURVE",
"2501 645 OFFCURVE",
"2501 677 CURVE SMOOTH",
"2501 783 OFFCURVE",
"2451 848 OFFCURVE",
"2350 848 CURVE SMOOTH",
"2222 848 OFFCURVE",
"2119 760 OFFCURVE",
"2047 493 CURVE",
"2058 502 LINE",
"2083 610 OFFCURVE",
"2086 633 OFFCURVE",
"2086 669 CURVE SMOOTH",
"2086 785 OFFCURVE",
"2037 848 OFFCURVE",
"1936 848 CURVE SMOOTH",
"1807 848 OFFCURVE",
"1704 760 OFFCURVE",
"1631 493 CURVE",
"1642 502 LINE",
"1660 602 OFFCURVE",
"1666 668 OFFCURVE",
"1666 715 CURVE SMOOTH",
"1666 801 OFFCURVE",
"1630 848 OFFCURVE",
"1545 848 CURVE SMOOTH",
"1440 848 OFFCURVE",
"1354 773 OFFCURVE",
"1307 708 CURVE SMOOTH",
"1286 679 OFFCURVE",
"1277 649 OFFCURVE",
"1277 626 CURVE SMOOTH",
"1277 601 OFFCURVE",
"1288 584 OFFCURVE",
"1304 584 CURVE SMOOTH",
"1315 584 OFFCURVE",
"1330 593 OFFCURVE",
"1345 613 CURVE SMOOTH",
"1404 691 OFFCURVE",
"1455 729 OFFCURVE",
"1485 729 CURVE SMOOTH",
"1505 729 OFFCURVE",
"1521 718 OFFCURVE",
"1521 679 CURVE SMOOTH",
"1521 653 OFFCURVE",
"1517 615 OFFCURVE",
"1509 559 CURVE SMOOTH",
"1480 353 OFFCURVE",
"1442 179 OFFCURVE",
"1442 94 CURVE SMOOTH",
"1442 26 OFFCURVE",
"1467 -5 OFFCURVE",
"1509 -5 CURVE SMOOTH",
"1560 -5 OFFCURVE",
"1588 25 OFFCURVE",
"1597 86 CURVE SMOOTH",
"1669 575 OFFCURVE",
"1799 721 OFFCURVE",
"1883 721 CURVE SMOOTH",
"1914 721 OFFCURVE",
"1933 698 OFFCURVE",
"1933 647 CURVE SMOOTH",
"1933 587 OFFCURVE",
"1907 456 OFFCURVE",
"1884 335 CURVE SMOOTH",
"1872 272 OFFCURVE",
"1845 135 OFFCURVE",
"1845 81 CURVE SMOOTH",
"1845 20 OFFCURVE",
"1876 -5 OFFCURVE",
"1919 -5 CURVE SMOOTH",
"1974 -5 OFFCURVE",
"2002 25 OFFCURVE",
"2011 86 CURVE SMOOTH",
"2083 574 OFFCURVE",
"2213 721 OFFCURVE",
"2297 721 CURVE SMOOTH",
"2328 721 OFFCURVE",
"2347 698 OFFCURVE",
"2347 651 CURVE SMOOTH",
"2347 607 OFFCURVE",
"2337 572 OFFCURVE",
"2329 535 CURVE SMOOTH",
"2288 352 LINE SMOOTH",
"2270 273 OFFCURVE",
"2264 221 OFFCURVE",
"2264 181 CURVE SMOOTH",
"2264 69 OFFCURVE",
"2331 -5 OFFCURVE",
"2443 -5 CURVE SMOOTH",
"2521 -5 OFFCURVE",
"2608 38 OFFCURVE",
"2655 124 CURVE SMOOTH",
"2667 146 OFFCURVE",
"2672 169 OFFCURVE",
"2672 187 CURVE SMOOTH",
"2672 210 OFFCURVE",
"2664 227 OFFCURVE",
"2651 227 CURVE SMOOTH"
);
},
{
closed = 1;
nodes = (
"911 227 OFFCURVE",
"901 222 OFFCURVE",
"891 209 CURVE SMOOTH",
"838 142 OFFCURVE",
"801 114 OFFCURVE",
"757 114 CURVE SMOOTH",
"714 114 OFFCURVE",
"684 141 OFFCURVE",
"684 198 CURVE SMOOTH",
"684 229 OFFCURVE",
"688 255 OFFCURVE",
"694 284 CURVE SMOOTH",
"755 570 LINE SMOOTH",
"763 609 OFFCURVE",
"767 645 OFFCURVE",
"767 677 CURVE SMOOTH",
"767 776 OFFCURVE",
"713 848 OFFCURVE",
"594 848 CURVE SMOOTH",
"454 848 OFFCURVE",
"354 744 OFFCURVE",
"273 527 CURVE",
"298 647 OFFCURVE",
"320 724 OFFCURVE",
"332 782 CURVE SMOOTH",
"342 829 OFFCURVE",
"327 852 OFFCURVE",
"270 852 CURVE SMOOTH",
"225 852 OFFCURVE",
"190 839 OFFCURVE",
"179 794 CURVE SMOOTH",
"134 602 OFFCURVE",
"91 328 OFFCURVE",
"78 103 CURVE SMOOTH",
"73 24 OFFCURVE",
"100 -5 OFFCURVE",
"145 -5 CURVE SMOOTH",
"201 -5 OFFCURVE",
"226 26 OFFCURVE",
"233 86 CURVE SMOOTH",
"286 513 OFFCURVE",
"430 721 OFFCURVE",
"545 721 CURVE SMOOTH",
"590 721 OFFCURVE",
"612 692 OFFCURVE",
"612 647 CURVE SMOOTH",
"612 619 OFFCURVE",
"604 572 OFFCURVE",
"596 535 CURVE SMOOTH",
"555 352 LINE SMOOTH",
"537 273 OFFCURVE",
"531 224 OFFCURVE",
"531 181 CURVE SMOOTH",
"531 69 OFFCURVE",
"598 -5 OFFCURVE",
"710 -5 CURVE SMOOTH",
"788 -5 OFFCURVE",
"876 40 OFFCURVE",
"922 124 CURVE SMOOTH",
"934 146 OFFCURVE",
"939 169 OFFCURVE",
"939 187 CURVE SMOOTH",
"939 210 OFFCURVE",
"931 227 OFFCURVE",
"918 227 CURVE SMOOTH"
);
}
);
};
layerId = "ECEFE970-1BBB-4E0A-A452-CEB55884B4A3";
paths = (
{
closed = 1;
nodes = (
"1280 227 OFFCURVE",
"1270 222 OFFCURVE",
"1260 209 CURVE SMOOTH",
"1208 141 OFFCURVE",
"1170 114 OFFCURVE",
"1126 114 CURVE SMOOTH",
"1083 114 OFFCURVE",
"1053 141 OFFCURVE",
"1053 198 CURVE SMOOTH",
"1053 229 OFFCURVE",
"1057 254 OFFCURVE",
"1063 284 CURVE SMOOTH",
"1124 570 LINE SMOOTH",
"1132 609 OFFCURVE",
"1137 645 OFFCURVE",
"1137 677 CURVE SMOOTH",
"1137 783 OFFCURVE",
"1087 848 OFFCURVE",
"986 848 CURVE SMOOTH",
"875 848 OFFCURVE",
"783 782 OFFCURVE",
"713 590 CURVE",
"721 628 OFFCURVE",
"722 646 OFFCURVE",
"722 669 CURVE SMOOTH",
"722 785 OFFCURVE",
"673 848 OFFCURVE",
"572 848 CURVE SMOOTH",
"455 848 OFFCURVE",
"358 776 OFFCURVE",
"282 553 CURVE",
"298 647 OFFCURVE",
"320 724 OFFCURVE",
"332 782 CURVE SMOOTH",
"342 829 OFFCURVE",
"327 852 OFFCURVE",
"270 852 CURVE SMOOTH",
"225 852 OFFCURVE",
"190 839 OFFCURVE",
"179 794 CURVE SMOOTH",
"132 602 OFFCURVE",
"91 328 OFFCURVE",
"78 103 CURVE SMOOTH",
"73 24 OFFCURVE",
"100 -5 OFFCURVE",
"145 -5 CURVE SMOOTH",
"196 -5 OFFCURVE",
"224 25 OFFCURVE",
"233 86 CURVE SMOOTH",
"305 575 OFFCURVE",
"435 721 OFFCURVE",
"519 721 CURVE SMOOTH",
"550 721 OFFCURVE",
"569 698 OFFCURVE",
"569 647 CURVE SMOOTH",
"569 587 OFFCURVE",
"543 456 OFFCURVE",
"520 335 CURVE SMOOTH",
"508 272 OFFCURVE",
"481 135 OFFCURVE",
"481 81 CURVE SMOOTH",
"481 20 OFFCURVE",
"512 -5 OFFCURVE",
"555 -5 CURVE SMOOTH",
"610 -5 OFFCURVE",
"638 25 OFFCURVE",
"647 86 CURVE SMOOTH",
"719 574 OFFCURVE",
"849 721 OFFCURVE",
"933 721 CURVE SMOOTH",
"964 721 OFFCURVE",
"983 698 OFFCURVE",
"983 651 CURVE SMOOTH",
"983 607 OFFCURVE",
"973 572 OFFCURVE",
"965 535 CURVE SMOOTH",
"924 352 LINE SMOOTH",
"906 273 OFFCURVE",
"900 221 OFFCURVE",
"900 181 CURVE SMOOTH",
"900 69 OFFCURVE",
"967 -5 OFFCURVE",
"1079 -5 CURVE SMOOTH",
"1157 -5 OFFCURVE",
"1244 38 OFFCURVE",
"1291 124 CURVE SMOOTH",
"1303 146 OFFCURVE",
"1308 169 OFFCURVE",
"1308 187 CURVE SMOOTH",
"1308 210 OFFCURVE",
"1300 227 OFFCURVE",
"1287 227 CURVE SMOOTH"
);
}
);
width = 1176;
}
);
leftMetricsKey = N.ss01;
note = M;
rightMetricsKey = N.ss01;
},
{
color = 9;
glyphname = N.ss01;
lastChange = "2016-07-22 21:30:25 +0000";
layers = (
{
background = {
paths = (
{
closed = 1;
nodes = (
"454 848 OFFCURVE",
"350 741 OFFCURVE",
"279 540 CURVE",
"141 -5 LINE",
"196 -5 OFFCURVE",
"225 26 OFFCURVE",
"233 86 CURVE SMOOTH",
"294 526 OFFCURVE",
"430 721 OFFCURVE",
"545 721 CURVE SMOOTH",
"590 721 OFFCURVE",
"612 692 OFFCURVE",
"612 647 CURVE SMOOTH",
"612 619 OFFCURVE",
"604 572 OFFCURVE",
"596 535 CURVE SMOOTH",
"555 352 LINE SMOOTH",
"537 273 OFFCURVE",
"531 224 OFFCURVE",
"531 181 CURVE SMOOTH",
"531 69 OFFCURVE",
"598 -5 OFFCURVE",
"710 -5 CURVE SMOOTH",
"788 -5 OFFCURVE",
"876 40 OFFCURVE",
"922 124 CURVE SMOOTH",
"934 146 OFFCURVE",
"939 169 OFFCURVE",
"939 187 CURVE SMOOTH",
"939 210 OFFCURVE",
"931 227 OFFCURVE",
"918 227 CURVE SMOOTH",
"911 227 OFFCURVE",
"901 222 OFFCURVE",
"891 209 CURVE SMOOTH",
"838 142 OFFCURVE",
"801 114 OFFCURVE",
"757 114 CURVE SMOOTH",
"714 114 OFFCURVE",
"684 141 OFFCURVE",
"684 198 CURVE SMOOTH",
"684 229 OFFCURVE",
"688 255 OFFCURVE",
"694 284 CURVE SMOOTH",
"755 570 LINE SMOOTH",
"763 609 OFFCURVE",
"767 645 OFFCURVE",
"767 677 CURVE SMOOTH",
"767 776 OFFCURVE",
"713 848 OFFCURVE",
"594 848 CURVE SMOOTH"
);
},
{
closed = 1;
nodes = (
"221 87 LINE",
"279 540 LINE",
"298 647 OFFCURVE",
"314 715 OFFCURVE",
"332 782 CURVE SMOOTH",
"342 828 OFFCURVE",
"327 852 OFFCURVE",
"270 852 CURVE SMOOTH",
"228 852 OFFCURVE",
"193 839 OFFCURVE",
"182 794 CURVE SMOOTH",
"137 612 OFFCURVE",
"91 328 OFFCURVE",
"75 63 CURVE SMOOTH",
"72 14 OFFCURVE",
"94 -5 OFFCURVE",
"140 -5 CURVE"
);
}
);
};
layerId = "ECEFE970-1BBB-4E0A-A452-CEB55884B4A3";
paths = (
{
closed = 1;
nodes = (
"911 227 OFFCURVE",
"901 222 OFFCURVE",
"891 209 CURVE SMOOTH",
"838 142 OFFCURVE",
"801 114 OFFCURVE",
"757 114 CURVE SMOOTH",
"714 114 OFFCURVE",
"684 141 OFFCURVE",
"684 198 CURVE SMOOTH",
"684 229 OFFCURVE",
"688 255 OFFCURVE",
"694 284 CURVE SMOOTH",
"755 570 LINE SMOOTH",
"763 609 OFFCURVE",
"767 645 OFFCURVE",
"767 677 CURVE SMOOTH",
"767 776 OFFCURVE",
"713 848 OFFCURVE",
"594 848 CURVE SMOOTH",
"454 848 OFFCURVE",
"354 744 OFFCURVE",
"273 527 CURVE",
"298 647 OFFCURVE",
"320 724 OFFCURVE",
"332 782 CURVE SMOOTH",
"342 829 OFFCURVE",
"327 852 OFFCURVE",
"270 852 CURVE SMOOTH",
"225 852 OFFCURVE",
"190 839 OFFCURVE",
"179 794 CURVE SMOOTH",
"134 602 OFFCURVE",
"91 328 OFFCURVE",
"78 103 CURVE SMOOTH",
"73 24 OFFCURVE",
"100 -5 OFFCURVE",
"145 -5 CURVE SMOOTH",
"201 -5 OFFCURVE",
"226 26 OFFCURVE",
"233 86 CURVE SMOOTH",
"286 513 OFFCURVE",
"430 721 OFFCURVE",
"545 721 CURVE SMOOTH",
"590 721 OFFCURVE",
"612 692 OFFCURVE",
"612 647 CURVE SMOOTH",
"612 619 OFFCURVE",
"604 572 OFFCURVE",
"596 535 CURVE SMOOTH",
"555 352 LINE SMOOTH",
"537 273 OFFCURVE",
"531 224 OFFCURVE",
"531 181 CURVE SMOOTH",
"531 69 OFFCURVE",
"598 -5 OFFCURVE",
"710 -5 CURVE SMOOTH",
"788 -5 OFFCURVE",
"876 40 OFFCURVE",
"922 124 CURVE SMOOTH",
"934 146 OFFCURVE",
"939 169 OFFCURVE",
"939 187 CURVE SMOOTH",
"939 210 OFFCURVE",
"931 227 OFFCURVE",
"918 227 CURVE SMOOTH"
);
}
);
width = 807;
}
);
note = N;
},
{
color = 9;
glyphname = OE.ss01;
lastChange = "2016-07-22 21:30:04 +0000";
layers = (
{
background = {
paths = (
{
closed = 1;
nodes = (
"617 -5 OFFCURVE",
"787 217 OFFCURVE",
"787 505 CURVE SMOOTH",
"787 724 OFFCURVE",
"661 848 OFFCURVE",
"487 848 CURVE SMOOTH",
"212 848 OFFCURVE",
"69 592 OFFCURVE",
"69 338 CURVE SMOOTH",
"69 119 OFFCURVE",
"201 -5 OFFCURVE",
"385 -5 CURVE SMOOTH"
);
},
{
closed = 1;
nodes = (
"296 115 OFFCURVE",
"218 191 OFFCURVE",
"218 356 CURVE SMOOTH",
"218 570 OFFCURVE",
"322 728 OFFCURVE",
"476 728 CURVE SMOOTH",
"576 728 OFFCURVE",
"654 651 OFFCURVE",
"654 487 CURVE SMOOTH",
"654 245 OFFCURVE",
"532 115 OFFCURVE",
"396 115 CURVE SMOOTH"
);
},
{
closed = 1;
nodes = (
"1160 720 OFFCURVE",
"1190 751 OFFCURVE",
"1190 787 CURVE SMOOTH",
"1190 824 OFFCURVE",
"1165 849 OFFCURVE",
"1106 849 CURVE SMOOTH",
"1030 849 OFFCURVE",
"960 845 OFFCURVE",
"906 842 CURVE SMOOTH",
"819 837 OFFCURVE",
"758 801 OFFCURVE",
"728 691 CURVE SMOOTH",
"681 520 LINE",
"648 264 LINE",
"642 121 OFFCURVE",
"724 -5 OFFCURVE",
"949 -5 CURVE SMOOTH",
"1040 -5 OFFCURVE",
"1123 20 OFFCURVE",
"1199 59 CURVE SMOOTH",
"1283 102 OFFCURVE",
"1280 200 OFFCURVE",
"1201 174 CURVE SMOOTH",
"1130 151 OFFCURVE",
"1056 120 OFFCURVE",
"972 120 CURVE SMOOTH",
"805 120 OFFCURVE",
"769 212 OFFCURVE",
"803 361 CURVE",
"912 363 OFFCURVE",
"960 365 OFFCURVE",
"1038 367 CURVE SMOOTH",
"1101 369 OFFCURVE",
"1124 396 OFFCURVE",
"1124 436 CURVE SMOOTH",
"1124 464 OFFCURVE",
"1109 490 OFFCURVE",
"1060 490 CURVE SMOOTH",
"989 490 OFFCURVE",
"916 486 OFFCURVE",
"827 483 CURVE",
"843 556 OFFCURVE",
"865 651 OFFCURVE",
"885 713 CURVE",
"926 716 OFFCURVE",
"1026 720 OFFCURVE",
"1078 720 CURVE SMOOTH"
);
}
);
};
layerId = "ECEFE970-1BBB-4E0A-A452-CEB55884B4A3";
paths = (
{
closed = 1;
nodes = (
"617 -5 OFFCURVE",
"787 217 OFFCURVE",
"787 505 CURVE SMOOTH",
"787 724 OFFCURVE",
"661 848 OFFCURVE",
"487 848 CURVE SMOOTH",
"212 848 OFFCURVE",
"69 592 OFFCURVE",
"69 338 CURVE SMOOTH",
"69 119 OFFCURVE",
"201 -5 OFFCURVE",
"385 -5 CURVE SMOOTH"
);
},
{
closed = 1;
nodes = (
"296 115 OFFCURVE",
"218 191 OFFCURVE",
"218 356 CURVE SMOOTH",
"218 570 OFFCURVE",
"322 728 OFFCURVE",
"476 728 CURVE SMOOTH",
"576 728 OFFCURVE",
"654 651 OFFCURVE",
"654 487 CURVE SMOOTH",
"654 245 OFFCURVE",
"532 115 OFFCURVE",
"396 115 CURVE SMOOTH"
);
},
{
closed = 1;
nodes = (
"1006 -5 OFFCURVE",
"1060 6 OFFCURVE",
"1107 28 CURVE SMOOTH",
"1149 48 OFFCURVE",
"1166 79 OFFCURVE",
"1166 108 CURVE SMOOTH",
"1166 136 OFFCURVE",
"1144 151 OFFCURVE",
"1098 139 CURVE SMOOTH",
"1053 127 OFFCURVE",
"1014 120 OFFCURVE",
"962 120 CURVE SMOOTH",
"805 120 OFFCURVE",
"769 212 OFFCURVE",
"803 361 CURVE",
"912 363 OFFCURVE",
"960 365 OFFCURVE",
"1038 367 CURVE SMOOTH",
"1101 369 OFFCURVE",
"1124 396 OFFCURVE",
"1124 436 CURVE SMOOTH",
"1124 464 OFFCURVE",
"1109 490 OFFCURVE",
"1060 490 CURVE SMOOTH",
"989 490 OFFCURVE",
"916 486 OFFCURVE",
"827 483 CURVE",
"843 556 OFFCURVE",
"865 651 OFFCURVE",
"885 713 CURVE",
"926 716 OFFCURVE",
"1026 720 OFFCURVE",
"1078 720 CURVE SMOOTH",
"1160 720 OFFCURVE",
"1190 751 OFFCURVE",
"1190 787 CURVE SMOOTH",
"1190 824 OFFCURVE",
"1165 849 OFFCURVE",
"1106 849 CURVE SMOOTH",
"1030 849 OFFCURVE",
"960 845 OFFCURVE",
"906 842 CURVE SMOOTH",
"819 837 OFFCURVE",
"759 802 OFFCURVE",
"728 691 CURVE SMOOTH",
"681 520 LINE",
"648 264 LINE",
"642 121 OFFCURVE",
"724 -5 OFFCURVE",
"939 -5 CURVE SMOOTH"
);
}
);
width = 1150;
}
);
note = OE;
},
{
color = 4;
glyphname = a;
lastChange = "2016-07-20 22:14:31 +0000";
layers = (
{
background = {
paths = (
{
closed = 1;
nodes = (
"1223 172 OFFCURVE",
"1163 105 OFFCURVE",
"1130 105 CURVE SMOOTH",
"1114 105 OFFCURVE",
"1103 118 OFFCURVE",
"1103 138 CURVE SMOOTH",
"1103 214 OFFCURVE",
"1141 352 OFFCURVE",
"1141 388 CURVE SMOOTH",
"1141 416 OFFCURVE",
"1126 433 OFFCURVE",
"1092 433 CURVE SMOOTH",
"1078 433 OFFCURVE",
"1064 432 OFFCURVE",
"1050 430 CURVE",
"1038 456 OFFCURVE",
"1028 468 OFFCURVE",
"1006 468 CURVE SMOOTH",
"865 468 OFFCURVE",
"740 320 OFFCURVE",
"740 158 CURVE SMOOTH",
"740 61 OFFCURVE",
"792 -5 OFFCURVE",
"876 -5 CURVE SMOOTH",
"939 -5 OFFCURVE",
"981 37 OFFCURVE",
"1007 79 CURVE",
"1026 26 OFFCURVE",
"1066 -5 OFFCURVE",
"1109 -5 CURVE SMOOTH",
"1172 -5 OFFCURVE",
"1242 60 OFFCURVE",
"1285 120 CURVE SMOOTH",
"1334 189 OFFCURVE",
"1290 267 OFFCURVE",
"1249 209 CURVE SMOOTH"
);
},
{
closed = 1;
nodes = (
"865 270 OFFCURVE",
"935 373 OFFCURVE",
"1020 375 CURVE",
"983 191 LINE SMOOTH",
"971 131 OFFCURVE",
"940 96 OFFCURVE",
"912 96 CURVE SMOOTH",
"883 96 OFFCURVE",
"865 115 OFFCURVE",
"865 157 CURVE SMOOTH"
);
},
{
closed = 1;
nodes = (
"315 466 OFFCURVE",
"222 410 OFFCURVE",
"151 236 CURVE",
"157 294 OFFCURVE",
"169 338 OFFCURVE",
"177 370 CURVE SMOOTH",
"185 400 OFFCURVE",
"189 422 OFFCURVE",
"189 432 CURVE SMOOTH",
"189 450 OFFCURVE",
"181 466 OFFCURVE",
"140 466 CURVE SMOOTH",
"94 466 OFFCURVE",
"76 448 OFFCURVE",
"64 410 CURVE SMOOTH",
"38 328 OFFCURVE",
"27 243 OFFCURVE",
"27 163 CURVE SMOOTH",
"27 49 OFFCURVE",
"44 -5 OFFCURVE",
"98 -5 CURVE SMOOTH",
"141 -5 OFFCURVE",
"157 12 OFFCURVE",
"172 75 CURVE SMOOTH",
"203 204 OFFCURVE",
"268 311 OFFCURVE",
"291 311 CURVE SMOOTH",
"297 311 OFFCURVE",
"301 306 OFFCURVE",
"301 295 CURVE SMOOTH",
"301 252 OFFCURVE",
"274 160 OFFCURVE",
"274 110 CURVE SMOOTH",
"274 37 OFFCURVE",
"308 -5 OFFCURVE",
"390 -5 CURVE SMOOTH",
"473 -5 OFFCURVE",
"542 60 OFFCURVE",
"585 120 CURVE SMOOTH",
"634 189 OFFCURVE",
"593 262 OFFCURVE",
"549 209 CURVE SMOOTH",
"493 142 OFFCURVE",
"457 105 OFFCURVE",
"428 105 CURVE SMOOTH",
"411 105 OFFCURVE",
"400 118 OFFCURVE",
"400 145 CURVE SMOOTH",
"400 200 OFFCURVE",
"441 332 OFFCURVE",
"441 401 CURVE SMOOTH",
"441 443 OFFCURVE",
"420 466 OFFCURVE",
"375 466 CURVE SMOOTH"
);
}
);
};
layerId = "ECEFE970-1BBB-4E0A-A452-CEB55884B4A3";
paths = (
{
closed = 1;
nodes = (
"493 142 OFFCURVE",
"457 105 OFFCURVE",
"430 105 CURVE SMOOTH",
"414 105 OFFCURVE",
"403 118 OFFCURVE",
"403 138 CURVE SMOOTH",
"403 214 OFFCURVE",
"441 352 OFFCURVE",
"441 388 CURVE SMOOTH",
"441 416 OFFCURVE",
"426 433 OFFCURVE",
"392 433 CURVE SMOOTH",
"378 433 OFFCURVE",
"364 432 OFFCURVE",
"350 430 CURVE",
"338 456 OFFCURVE",
"328 468 OFFCURVE",
"306 468 CURVE SMOOTH",
"165 468 OFFCURVE",
"40 320 OFFCURVE",
"40 158 CURVE SMOOTH",
"40 61 OFFCURVE",
"92 -5 OFFCURVE",
"176 -5 CURVE SMOOTH",
"239 -5 OFFCURVE",
"281 37 OFFCURVE",
"307 79 CURVE",
"326 26 OFFCURVE",
"366 -5 OFFCURVE",
"409 -5 CURVE SMOOTH",
"472 -5 OFFCURVE",
"542 60 OFFCURVE",
"585 120 CURVE SMOOTH",
"634 189 OFFCURVE",
"593 262 OFFCURVE",
"549 209 CURVE SMOOTH"
);
},
{
closed = 1;
nodes = (
"165 270 OFFCURVE",
"235 373 OFFCURVE",
"320 375 CURVE",
"283 191 LINE SMOOTH",
"271 131 OFFCURVE",
"240 96 OFFCURVE",
"212 96 CURVE SMOOTH",
"183 96 OFFCURVE",
"165 115 OFFCURVE",
"165 157 CURVE SMOOTH"
);
}
);
width = 470;
}
);
note = a;
unicode = 0061;
},
{
color = 4;
glyphname = ae;
lastChange = "2016-07-22 13:06:19 +0000";
layers = (
{
background = {
paths = (
{
closed = 1;
nodes = (
"664 121 OFFCURVE",
"594 95 OFFCURVE",
"545 95 CURVE SMOOTH",
"459 95 OFFCURVE",
"424 137 OFFCURVE",
"424 211 CURVE SMOOTH",
"424 301 OFFCURVE",
"462 368 OFFCURVE",
"512 368 CURVE SMOOTH",
"536 368 OFFCURVE",
"551 352 OFFCURVE",
"551 326 CURVE SMOOTH",
"551 272 OFFCURVE",
"493 229 OFFCURVE",
"398 214 CURVE",
"418 136 LINE",
"604 176 OFFCURVE",
"659 248 OFFCURVE",
"659 336 CURVE SMOOTH",
"659 417 OFFCURVE",
"604 466 OFFCURVE",
"519 466 CURVE SMOOTH",
"472 466 OFFCURVE",
"425 448 OFFCURVE",
"387 414 CURVE",
"388 418 OFFCURVE",
"388 422 OFFCURVE",
"388 427 CURVE SMOOTH",
"388 454 OFFCURVE",
"373 468 OFFCURVE",
"346 468 CURVE SMOOTH",
"154 468 OFFCURVE",
"39 330 OFFCURVE",
"40 168 CURVE SMOOTH",
"41 64 OFFCURVE",
"95 -5 OFFCURVE",
"189 -5 CURVE SMOOTH",
"253 -5 OFFCURVE",
"304 26 OFFCURVE",
"331 83 CURVE",
"366 29 OFFCURVE",
"432 -5 OFFCURVE",
"524 -5 CURVE SMOOTH",
"609 -5 OFFCURVE",
"705 24 OFFCURVE",
"773 120 CURVE SMOOTH",
"822 189 OFFCURVE",
"781 262 OFFCURVE",
"737 209 CURVE SMOOTH"
);
},
{
closed = 1;
nodes = (
"280 131 OFFCURVE",
"255 96 OFFCURVE",
"219 96 CURVE SMOOTH",
"185 96 OFFCURVE",
"164 125 OFFCURVE",
"164 177 CURVE SMOOTH",
"164 290 OFFCURVE",
"233 375 OFFCURVE",
"352 375 CURVE",
"328 342 OFFCURVE",
"314 300 OFFCURVE",
"304 251 CURVE SMOOTH",
"292 191 LINE SMOOTH"
);
}
);
};
layerId = "ECEFE970-1BBB-4E0A-A452-CEB55884B4A3";
paths = (
{
closed = 1;
nodes = (
"658 121 OFFCURVE",
"588 95 OFFCURVE",
"539 95 CURVE SMOOTH",
"453 95 OFFCURVE",
"418 137 OFFCURVE",
"418 211 CURVE SMOOTH",
"418 301 OFFCURVE",
"456 368 OFFCURVE",
"506 368 CURVE SMOOTH",
"530 368 OFFCURVE",
"545 352 OFFCURVE",
"545 326 CURVE SMOOTH",
"545 272 OFFCURVE",
"487 229 OFFCURVE",
"392 214 CURVE",
"412 136 LINE",
"598 176 OFFCURVE",
"653 248 OFFCURVE",
"653 336 CURVE SMOOTH",
"653 417 OFFCURVE",
"598 466 OFFCURVE",
"513 466 CURVE SMOOTH",
"466 466 OFFCURVE",
"419 448 OFFCURVE",
"381 414 CURVE",
"382 418 OFFCURVE",
"382 422 OFFCURVE",
"382 427 CURVE SMOOTH",
"382 454 OFFCURVE",
"367 468 OFFCURVE",
"340 468 CURVE SMOOTH",
"154 468 OFFCURVE",
"39 330 OFFCURVE",
"40 168 CURVE SMOOTH",
"41 64 OFFCURVE",
"95 -5 OFFCURVE",
"186 -5 CURVE SMOOTH",
"247 -5 OFFCURVE",
"298 26 OFFCURVE",
"325 83 CURVE",
"360 29 OFFCURVE",
"426 -5 OFFCURVE",
"518 -5 CURVE SMOOTH",
"603 -5 OFFCURVE",
"699 24 OFFCURVE",
"767 120 CURVE SMOOTH",
"816 189 OFFCURVE",
"775 262 OFFCURVE",
"731 209 CURVE SMOOTH"
);
},
{
closed = 1;
nodes = (
"274 131 OFFCURVE",
"246 96 OFFCURVE",
"213 96 CURVE SMOOTH",
"182 96 OFFCURVE",
"164 125 OFFCURVE",
"164 177 CURVE SMOOTH",
"164 290 OFFCURVE",
"233 375 OFFCURVE",
"346 375 CURVE",
"322 342 OFFCURVE",
"308 300 OFFCURVE",
"298 251 CURVE SMOOTH",
"288 201 LINE SMOOTH"
);
}
);
width = 652;
}
);
leftMetricsKey = a;
note = ae;
rightMetricsKey = e;
unicode = 00E6;
},
{
color = 4;
glyphname = b;
lastChange = "2016-07-21 09:48:37 +0000";
layers = (
{
background = {
paths = (
{
closed = 1;
nodes = (
"1848 282 LINE",
"1848 194 OFFCURVE",
"1772 105 OFFCURVE",
"1739 105 CURVE SMOOTH",
"1701 105 OFFCURVE",
"1685 171 OFFCURVE",
"1685 281 CURVE SMOOTH",
"1685 553 OFFCURVE",
"1761 841 OFFCURVE",
"1809 841 CURVE SMOOTH",
"1826 841 OFFCURVE",
"1837 818 OFFCURVE",
"1837 775 CURVE SMOOTH",
"1837 661 OFFCURVE",
"1750 507 OFFCURVE",
"1653 414 CURVE",
"1677 326 LINE",
"1858 523 OFFCURVE",
"1934 660 OFFCURVE",
"1934 798 CURVE SMOOTH",
"1934 881 OFFCURVE",
"1894 940 OFFCURVE",
"1832 940 CURVE SMOOTH",
"1650 940 OFFCURVE",
"1560 530 OFFCURVE",
"1560 305 CURVE SMOOTH",
"1560 108 OFFCURVE",
"1611 -5 OFFCURVE",
"1730 -5 CURVE SMOOTH",
"1825 -5 OFFCURVE",
"1954 143 OFFCURVE",
"1954 282 CURVE SMOOTH",
"1954 368 OFFCURVE",
"1911 457 OFFCURVE",
"1856 457 CURVE"
);
},
{
closed = 1;
nodes = (
"2126 222 OFFCURVE",
"2116 318 OFFCURVE",
"2064 305 CURVE SMOOTH",
"2021 294 OFFCURVE",
"1970 283 OFFCURVE",
"1934 283 CURVE",
"1856 457 LINE",
"1815 457 OFFCURVE",
"1771 396 OFFCURVE",
"1771 329 CURVE SMOOTH",
"1771 257 OFFCURVE",
"1820 179 OFFCURVE",
"1927 179 CURVE SMOOTH",
"1983 179 OFFCURVE",
"2030 189 OFFCURVE",
"2059 199 CURVE SMOOTH"
);
},
{
closed = 1;
nodes = (
"1328 222 OFFCURVE",
"1318 318 OFFCURVE",
"1266 305 CURVE SMOOTH",
"1223 294 OFFCURVE",
"1172 283 OFFCURVE",
"1136 283 CURVE",
"1058 457 LINE",
"1017 457 OFFCURVE",
"973 396 OFFCURVE",
"973 329 CURVE SMOOTH",
"973 257 OFFCURVE",
"1022 179 OFFCURVE",
"1129 179 CURVE SMOOTH",
"1185 179 OFFCURVE",
"1232 189 OFFCURVE",
"1261 199 CURVE SMOOTH"
);
},
{
closed = 1;
nodes = (
"1154 402 OFFCURVE",
"1093 466 OFFCURVE",
"1015 466 CURVE SMOOTH",
"983 466 OFFCURVE",
"957 456 OFFCURVE",
"932 439 CURVE",
"882 381 LINE",
"885 231 LINE",
"885 342 OFFCURVE",
"943 367 OFFCURVE",
"978 367 CURVE SMOOTH",
"1012 367 OFFCURVE",
"1048 344 OFFCURVE",
"1048 272 CURVE SMOOTH",
"1048 184 OFFCURVE",
"1002 105 OFFCURVE",
"951 105 CURVE SMOOTH",
"901 105 OFFCURVE",
"885 171 OFFCURVE",
"885 231 CURVE SMOOTH",
"885 553 OFFCURVE",
"961 841 OFFCURVE",
"1009 841 CURVE SMOOTH",
"1026 841 OFFCURVE",
"1037 818 OFFCURVE",
"1037 775 CURVE SMOOTH",
"1037 661 OFFCURVE",
"950 504 OFFCURVE",
"882 381 CURVE",
"930 388 LINE",
"1087 547 OFFCURVE",
"1134 674 OFFCURVE",
"1134 798 CURVE SMOOTH",
"1134 881 OFFCURVE",
"1094 940 OFFCURVE",
"1032 940 CURVE SMOOTH",
"850 940 OFFCURVE",
"760 530 OFFCURVE",
"760 305 CURVE SMOOTH",
"760 108 OFFCURVE",
"811 -5 OFFCURVE",
"930 -5 CURVE SMOOTH",
"1065 -5 OFFCURVE",
"1154 143 OFFCURVE",
"1154 282 CURVE SMOOTH"
);
},
{
closed = 1;
nodes = (
"642 221 OFFCURVE",
"632 318 OFFCURVE",
"574 304 CURVE SMOOTH",
"531 294 OFFCURVE",
"480 283 OFFCURVE",
"444 283 CURVE",
"303 404 LINE",
"293 382 OFFCURVE",
"286 356 OFFCURVE",
"286 329 CURVE SMOOTH",
"286 257 OFFCURVE",
"333 179 OFFCURVE",
"437 179 CURVE SMOOTH",
"493 179 OFFCURVE",
"540 189 OFFCURVE",
"569 198 CURVE SMOOTH"
);
},
{
closed = 1;
nodes = (
"157 467 OFFCURVE",
"60 360 OFFCURVE",
"60 205 CURVE SMOOTH",
"60 99 OFFCURVE",
"121 -5 OFFCURVE",
"248 -5 CURVE SMOOTH",
"369 -5 OFFCURVE",
"469 102 OFFCURVE",
"469 257 CURVE SMOOTH",
"469 363 OFFCURVE",
"408 467 OFFCURVE",
"280 467 CURVE SMOOTH"
);
},
{
closed = 1;
nodes = (
"222 101 OFFCURVE",
"185 137 OFFCURVE",
"185 214 CURVE SMOOTH",
"185 310 OFFCURVE",
"227 361 OFFCURVE",
"281 361 CURVE SMOOTH",
"320 361 OFFCURVE",
"357 325 OFFCURVE",
"357 248 CURVE SMOOTH",
"357 152 OFFCURVE",
"315 101 OFFCURVE",
"260 101 CURVE SMOOTH"
);
}
);
};
layerId = "ECEFE970-1BBB-4E0A-A452-CEB55884B4A3";
paths = (
{
closed = 1;
nodes = (
"635 222 OFFCURVE",
"625 318 OFFCURVE",
"573 305 CURVE SMOOTH",
"530 294 OFFCURVE",
"479 283 OFFCURVE",
"443 283 CURVE",
"365 457 LINE",
"324 457 OFFCURVE",
"286 396 OFFCURVE",
"286 329 CURVE SMOOTH",
"286 257 OFFCURVE",
"335 179 OFFCURVE",
"436 179 CURVE SMOOTH",
"492 179 OFFCURVE",
"539 189 OFFCURVE",
"568 199 CURVE SMOOTH"
);
},
{
closed = 1;
nodes = (
"466 402 OFFCURVE",
"405 466 OFFCURVE",
"318 466 CURVE SMOOTH",
"283 466 OFFCURVE",
"257 456 OFFCURVE",
"232 439 CURVE",
"182 379 LINE",
"185 221 LINE",
"185 328 OFFCURVE",
"243 367 OFFCURVE",
"281 367 CURVE SMOOTH",
"319 367 OFFCURVE",
"355 344 OFFCURVE",
"355 272 CURVE SMOOTH",
"355 168 OFFCURVE",
"310 103 OFFCURVE",
"259 103 CURVE SMOOTH",
"212 103 OFFCURVE",
"185 151 OFFCURVE",
"185 221 CURVE SMOOTH",
"185 553 OFFCURVE",
"261 841 OFFCURVE",
"309 841 CURVE SMOOTH",
"326 841 OFFCURVE",
"337 818 OFFCURVE",
"337 775 CURVE SMOOTH",
"337 661 OFFCURVE",
"250 502 OFFCURVE",
"182 379 CURVE",
"230 388 LINE",
"387 547 OFFCURVE",
"434 674 OFFCURVE",
"434 798 CURVE SMOOTH",
"434 881 OFFCURVE",
"394 940 OFFCURVE",
"332 940 CURVE SMOOTH",
"150 940 OFFCURVE",
"60 530 OFFCURVE",
"60 295 CURVE SMOOTH",
"60 108 OFFCURVE",
"113 -5 OFFCURVE",
"243 -5 CURVE SMOOTH",
"381 -5 OFFCURVE",
"466 143 OFFCURVE",
"466 282 CURVE SMOOTH"
);
}
);
width = 474;
}
);
note = b;
unicode = 0062;
},
{
color = 4;
glyphname = c;
lastChange = "2016-07-20 22:14:31 +0000";
layers = (
{
background = {
paths = (
{
closed = 1;
nodes = (
"1021 -5 OFFCURVE",
"1123 31 OFFCURVE",
"1186 120 CURVE SMOOTH",
"1235 189 OFFCURVE",
"1192 263 OFFCURVE",
"1150 209 CURVE SMOOTH",
"1081 120 OFFCURVE",
"1010 99 OFFCURVE",
"969 99 CURVE SMOOTH",
"900 99 OFFCURVE",
"867 139 OFFCURVE",
"867 215 CURVE SMOOTH",
"867 301 OFFCURVE",
"909 368 OFFCURVE",
"954 368 CURVE SMOOTH",
"970 368 OFFCURVE",
"979 358 OFFCURVE",
"979 341 CURVE SMOOTH",
"979 321 OFFCURVE",
"969 304 OFFCURVE",
"969 284 CURVE SMOOTH",
"969 256 OFFCURVE",
"986 244 OFFCURVE",
"1011 244 CURVE SMOOTH",
"1052 244 OFFCURVE",
"1078 290 OFFCURVE",
"1078 350 CURVE SMOOTH",
"1078 416 OFFCURVE",
"1038 466 OFFCURVE",
"962 466 CURVE SMOOTH",
"852 466 OFFCURVE",
"740 365 OFFCURVE",
"740 197 CURVE SMOOTH",
"740 79 OFFCURVE",
"813 -5 OFFCURVE",
"947 -5 CURVE SMOOTH"
);
},
{
closed = 1;
nodes = (
"216 466 OFFCURVE",
"123 410 OFFCURVE",
"52 236 CURVE",
"58 294 OFFCURVE",
"70 338 OFFCURVE",
"78 370 CURVE SMOOTH",
"86 400 OFFCURVE",
"90 422 OFFCURVE",
"90 432 CURVE SMOOTH",
"90 450 OFFCURVE",
"82 466 OFFCURVE",
"41 466 CURVE SMOOTH",
"-5 466 OFFCURVE",
"-23 448 OFFCURVE",
"-35 410 CURVE SMOOTH",
"-61 328 OFFCURVE",
"-72 243 OFFCURVE",
"-72 163 CURVE SMOOTH",
"-72 49 OFFCURVE",
"-55 -5 OFFCURVE",
"-1 -5 CURVE SMOOTH",
"42 -5 OFFCURVE",
"58 12 OFFCURVE",
"73 75 CURVE SMOOTH",
"104 204 OFFCURVE",
"169 311 OFFCURVE",
"192 311 CURVE SMOOTH",
"198 311 OFFCURVE",
"202 306 OFFCURVE",
"202 295 CURVE SMOOTH",
"202 252 OFFCURVE",
"175 160 OFFCURVE",
"175 110 CURVE SMOOTH",
"175 37 OFFCURVE",
"209 -5 OFFCURVE",
"291 -5 CURVE SMOOTH",
"374 -5 OFFCURVE",
"443 60 OFFCURVE",
"486 120 CURVE SMOOTH",
"535 189 OFFCURVE",
"494 262 OFFCURVE",
"450 209 CURVE SMOOTH",
"394 142 OFFCURVE",
"358 105 OFFCURVE",
"329 105 CURVE SMOOTH",
"312 105 OFFCURVE",
"301 118 OFFCURVE",
"301 145 CURVE SMOOTH",
"301 200 OFFCURVE",
"342 332 OFFCURVE",
"342 401 CURVE SMOOTH",
"342 443 OFFCURVE",
"321 466 OFFCURVE",
"276 466 CURVE SMOOTH"
);
}
);
};
layerId = "ECEFE970-1BBB-4E0A-A452-CEB55884B4A3";
paths = (
{
closed = 1;
nodes = (
"321 -5 OFFCURVE",
"423 31 OFFCURVE",
"486 120 CURVE SMOOTH",
"535 189 OFFCURVE",
"494 262 OFFCURVE",
"450 209 CURVE SMOOTH",
"378 122 OFFCURVE",
"320 99 OFFCURVE",
"269 99 CURVE SMOOTH",
"200 99 OFFCURVE",
"167 139 OFFCURVE",
"167 215 CURVE SMOOTH",
"167 301 OFFCURVE",
"209 368 OFFCURVE",
"254 368 CURVE SMOOTH",
"270 368 OFFCURVE",
"279 358 OFFCURVE",
"279 341 CURVE SMOOTH",
"279 321 OFFCURVE",
"269 304 OFFCURVE",
"269 284 CURVE SMOOTH",
"269 256 OFFCURVE",
"286 244 OFFCURVE",
"311 244 CURVE SMOOTH",
"352 244 OFFCURVE",
"378 290 OFFCURVE",
"378 350 CURVE SMOOTH",
"378 416 OFFCURVE",
"338 466 OFFCURVE",
"262 466 CURVE SMOOTH",
"152 466 OFFCURVE",
"40 365 OFFCURVE",
"40 197 CURVE SMOOTH",
"40 79 OFFCURVE",
"113 -5 OFFCURVE",
"247 -5 CURVE SMOOTH"
);
}
);
width = 373;
}
);
note = c;
unicode = 0063;
},
{
color = 4;
glyphname = d;
lastChange = "2016-07-20 22:14:31 +0000";
layers = (
{
background = {
paths = (
{
closed = 1;
nodes = (
"995 38 OFFCURVE",
"1071 153 CURVE",
"1208 367 OFFCURVE",
"1314 610 OFFCURVE",
"1314 783 CURVE SMOOTH",
"1314 896 OFFCURVE",
"1266 940 OFFCURVE",
"1214 940 CURVE SMOOTH",
"1050 940 OFFCURVE",
"986 530 OFFCURVE",
"986 292 CURVE SMOOTH",
"986 136 OFFCURVE",
"1038 -5 OFFCURVE",
"1143 -5 CURVE SMOOTH",
"1213 -5 OFFCURVE",
"1285 57 OFFCURVE",
"1330 120 CURVE SMOOTH",
"1379 189 OFFCURVE",
"1335 267 OFFCURVE",
"1294 209 CURVE SMOOTH",
"1254 152 OFFCURVE",
"1199 105 OFFCURVE",
"1164 105 CURVE SMOOTH",
"1130 105 OFFCURVE",
"1108 151 OFFCURVE",
"1111 293 CURVE SMOOTH",
"1116 552 OFFCURVE",
"1156 842 OFFCURVE",
"1200 842 CURVE SMOOTH",
"1212 842 OFFCURVE",
"1225 815 OFFCURVE",
"1225 762 CURVE SMOOTH",
"1225 617 OFFCURVE",
"1146 429 OFFCURVE",
"1062 267 CURVE",
"978 125 OFFCURVE",
"950 96 OFFCURVE",
"915 96 CURVE SMOOTH",
"887 96 OFFCURVE",
"865 122 OFFCURVE",
"865 172 CURVE SMOOTH",
"865 268 OFFCURVE",
"934 368 OFFCURVE",
"1018 372 CURVE",
"1009 473 LINE",
"865 453 OFFCURVE",
"740 326 OFFCURVE",
"740 160 CURVE SMOOTH",
"740 61 OFFCURVE",
"807 -5 OFFCURVE",
"882 -5 CURVE SMOOTH",
"946 -5 OFFCURVE"
);
},
{
closed = 1;
nodes = (
"360 466 OFFCURVE",
"267 410 OFFCURVE",
"196 236 CURVE",
"202 294 OFFCURVE",
"214 338 OFFCURVE",
"222 370 CURVE SMOOTH",
"230 400 OFFCURVE",
"234 422 OFFCURVE",
"234 432 CURVE SMOOTH",
"234 450 OFFCURVE",
"226 466 OFFCURVE",
"185 466 CURVE SMOOTH",
"139 466 OFFCURVE",
"121 448 OFFCURVE",
"109 410 CURVE SMOOTH",
"83 328 OFFCURVE",
"72 243 OFFCURVE",
"72 163 CURVE SMOOTH",
"72 49 OFFCURVE",
"89 -5 OFFCURVE",
"143 -5 CURVE SMOOTH",
"186 -5 OFFCURVE",
"202 12 OFFCURVE",
"217 75 CURVE SMOOTH",
"248 204 OFFCURVE",
"313 311 OFFCURVE",
"336 311 CURVE SMOOTH",
"342 311 OFFCURVE",
"346 306 OFFCURVE",
"346 295 CURVE SMOOTH",
"346 252 OFFCURVE",
"319 160 OFFCURVE",
"319 110 CURVE SMOOTH",
"319 37 OFFCURVE",
"353 -5 OFFCURVE",
"435 -5 CURVE SMOOTH",
"518 -5 OFFCURVE",
"587 60 OFFCURVE",
"630 120 CURVE SMOOTH",
"679 189 OFFCURVE",
"638 262 OFFCURVE",
"594 209 CURVE SMOOTH",
"538 142 OFFCURVE",
"502 105 OFFCURVE",
"473 105 CURVE SMOOTH",
"456 105 OFFCURVE",
"445 118 OFFCURVE",
"445 145 CURVE SMOOTH",
"445 200 OFFCURVE",
"486 332 OFFCURVE",
"486 401 CURVE SMOOTH",
"486 443 OFFCURVE",
"465 466 OFFCURVE",
"420 466 CURVE SMOOTH"
);
}
);
};
layerId = "ECEFE970-1BBB-4E0A-A452-CEB55884B4A3";
paths = (
{
closed = 1;
nodes = (
"295 38 OFFCURVE",
"371 153 CURVE",
"508 367 OFFCURVE",
"614 610 OFFCURVE",
"614 783 CURVE SMOOTH",
"614 896 OFFCURVE",
"566 940 OFFCURVE",
"514 940 CURVE SMOOTH",
"350 940 OFFCURVE",
"286 530 OFFCURVE",
"286 292 CURVE SMOOTH",
"286 136 OFFCURVE",
"338 -5 OFFCURVE",
"443 -5 CURVE SMOOTH",
"513 -5 OFFCURVE",
"585 57 OFFCURVE",
"630 120 CURVE SMOOTH",
"679 189 OFFCURVE",
"638 262 OFFCURVE",
"594 209 CURVE SMOOTH",
"538 142 OFFCURVE",
"502 105 OFFCURVE",
"464 105 CURVE SMOOTH",
"430 105 OFFCURVE",
"408 151 OFFCURVE",
"411 293 CURVE SMOOTH",
"417 552 OFFCURVE",
"456 842 OFFCURVE",
"500 842 CURVE SMOOTH",
"512 842 OFFCURVE",
"525 815 OFFCURVE",
"525 762 CURVE SMOOTH",
"525 617 OFFCURVE",
"446 429 OFFCURVE",
"362 267 CURVE",
"278 125 OFFCURVE",
"250 96 OFFCURVE",
"215 96 CURVE SMOOTH",
"187 96 OFFCURVE",
"165 122 OFFCURVE",
"165 172 CURVE SMOOTH",
"165 268 OFFCURVE",
"234 368 OFFCURVE",
"318 372 CURVE",
"309 473 LINE",
"165 453 OFFCURVE",
"40 326 OFFCURVE",
"40 160 CURVE SMOOTH",
"40 61 OFFCURVE",
"107 -5 OFFCURVE",
"182 -5 CURVE SMOOTH",
"246 -5 OFFCURVE"
);
}
);
width = 515;
}
);
note = d;
unicode = 0064;
},
{
color = 4;
glyphname = eth;
lastChange = "2016-07-22 20:06:42 +0000";
layers = (
{
background = {
paths = (
{
closed = 1;
nodes = (
"1206 -5 OFFCURVE",
"1275 60 OFFCURVE",
"1318 120 CURVE SMOOTH",
"1367 189 OFFCURVE",
"1326 262 OFFCURVE",
"1282 209 CURVE SMOOTH",
"1226 142 OFFCURVE",
"1190 105 OFFCURVE",
"1152 105 CURVE SMOOTH",
"1131 105 OFFCURVE",
"1086 115 OFFCURVE",
"1053 148 CURVE",
"1011 56 LINE",
"1027 26 OFFCURVE",
"1058 -5 OFFCURVE",
"1123 -5 CURVE SMOOTH"
);
},
{
closed = 1;
nodes = (
"1228 775 OFFCURVE",
"1250 813 OFFCURVE",
"1227 854 CURVE SMOOTH",
"1217 872 OFFCURVE",
"1198 882 OFFCURVE",
"1174 868 CURVE SMOOTH",
"1116 834 OFFCURVE",
"1103 814 OFFCURVE",
"1023 768 CURVE SMOOTH",
"976 741 OFFCURVE",
"928 719 OFFCURVE",
"858 679 CURVE SMOOTH",
"802 647 OFFCURVE",
"843 563 OFFCURVE",
"918 602 CURVE SMOOTH",
"1004 647 OFFCURVE",
"1033 661 OFFCURVE",
"1103 702 CURVE SMOOTH"
);
},
{
closed = 1;
nodes = (
"893 949 OFFCURVE",
"828 909 OFFCURVE",
"881 854 CURVE SMOOTH",
"918 815 OFFCURVE",
"952 768 OFFCURVE",
"989 693 CURVE SMOOTH",
"1025 619 OFFCURVE",
"1046 529 OFFCURVE",
"1046 392 CURVE SMOOTH",
"1046 185 OFFCURVE",
"990 98 OFFCURVE",
"933 98 CURVE SMOOTH",
"891 98 OFFCURVE",
"867 132 OFFCURVE",
"867 191 CURVE SMOOTH",
"867 296 OFFCURVE",
"927 350 OFFCURVE",
"995 366 CURVE SMOOTH",
"1020 372 OFFCURVE",
"1024 386 OFFCURVE",
"1024 409 CURVE SMOOTH",
"1024 444 OFFCURVE",
"1006 467 OFFCURVE",
"978 467 CURVE SMOOTH",
"881 467 OFFCURVE",
"742 363 OFFCURVE",
"742 185 CURVE SMOOTH",
"742 61 OFFCURVE",
"824 -5 OFFCURVE",
"918 -5 CURVE SMOOTH",
"1090 -5 OFFCURVE",
"1171 186 OFFCURVE",
"1171 383 CURVE SMOOTH",
"1171 535 OFFCURVE",
"1140 655 OFFCURVE",
"1090 746 CURVE SMOOTH",
"1047 824 OFFCURVE",
"989 900 OFFCURVE",
"938 926 CURVE SMOOTH"
);
},
{
closed = 1;
nodes = (
"137 467 OFFCURVE",
"40 360 OFFCURVE",
"40 205 CURVE SMOOTH",
"40 99 OFFCURVE",
"101 -5 OFFCURVE",
"228 -5 CURVE SMOOTH",
"349 -5 OFFCURVE",
"449 102 OFFCURVE",
"449 257 CURVE SMOOTH",
"449 363 OFFCURVE",
"388 467 OFFCURVE",
"260 467 CURVE SMOOTH"
);
},
{
closed = 1;
nodes = (
"199 101 OFFCURVE",
"165 137 OFFCURVE",
"165 214 CURVE SMOOTH",
"165 310 OFFCURVE",
"204 361 OFFCURVE",
"254 361 CURVE SMOOTH",
"290 361 OFFCURVE",
"324 325 OFFCURVE",
"324 248 CURVE SMOOTH",
"324 152 OFFCURVE",
"285 101 OFFCURVE",
"234 101 CURVE SMOOTH"
);
}
);
};
layerId = "ECEFE970-1BBB-4E0A-A452-CEB55884B4A3";
paths = (
{
closed = 1;
nodes = (
"504 -5 OFFCURVE",
"573 60 OFFCURVE",
"616 120 CURVE SMOOTH",
"665 189 OFFCURVE",
"624 262 OFFCURVE",
"580 209 CURVE SMOOTH",
"524 142 OFFCURVE",
"488 105 OFFCURVE",
"450 105 CURVE SMOOTH",
"429 105 OFFCURVE",
"384 115 OFFCURVE",
"351 148 CURVE",
"309 56 LINE",
"325 26 OFFCURVE",
"356 -5 OFFCURVE",
"421 -5 CURVE SMOOTH"
);
},
{
closed = 1;
nodes = (
"526 775 OFFCURVE",
"548 813 OFFCURVE",
"525 854 CURVE SMOOTH",
"515 872 OFFCURVE",
"496 882 OFFCURVE",
"472 868 CURVE SMOOTH",
"414 834 OFFCURVE",
"401 814 OFFCURVE",
"321 768 CURVE SMOOTH",
"274 741 OFFCURVE",
"226 719 OFFCURVE",
"156 679 CURVE SMOOTH",
"100 647 OFFCURVE",
"141 563 OFFCURVE",
"216 602 CURVE SMOOTH",
"302 647 OFFCURVE",
"331 661 OFFCURVE",
"401 702 CURVE SMOOTH"
);
},
{
closed = 1;
nodes = (
"191 949 OFFCURVE",
"126 909 OFFCURVE",
"179 854 CURVE SMOOTH",
"216 815 OFFCURVE",
"250 768 OFFCURVE",
"287 693 CURVE SMOOTH",
"323 619 OFFCURVE",
"344 529 OFFCURVE",
"344 392 CURVE SMOOTH",
"344 185 OFFCURVE",
"292 99 OFFCURVE",
"237 99 CURVE SMOOTH",
"193 99 OFFCURVE",
"165 139 OFFCURVE",
"165 214 CURVE SMOOTH",
"165 311 OFFCURVE",
"203 361 OFFCURVE",
"260 361 CURVE SMOOTH",
"291 361 OFFCURVE",
"327 344 OFFCURVE",
"352 301 CURVE",
"370 412 LINE",
"342 449 OFFCURVE",
"308 467 OFFCURVE",
"250 467 CURVE SMOOTH",
"141 467 OFFCURVE",
"40 372 OFFCURVE",
"40 205 CURVE SMOOTH",
"40 99 OFFCURVE",
"103 -5 OFFCURVE",
"232 -5 CURVE SMOOTH",
"390 -5 OFFCURVE",
"469 166 OFFCURVE",
"469 403 CURVE SMOOTH",
"469 535 OFFCURVE",
"438 655 OFFCURVE",
"388 746 CURVE SMOOTH",
"345 824 OFFCURVE",
"287 900 OFFCURVE",
"236 926 CURVE SMOOTH"
);
}
);
width = 501;
}
);
note = eth;
unicode = 00F0;
},
{
color = 4;
glyphname = dcroat;
lastChange = "2016-07-22 14:16:31 +0000";
layers = (
{
background = {
paths = (
{
closed = 1;
nodes = (
"493 142 OFFCURVE",
"457 105 OFFCURVE",
"430 105 CURVE SMOOTH",
"414 105 OFFCURVE",
"403 118 OFFCURVE",
"403 138 CURVE SMOOTH",
"403 172 OFFCURVE",
"411 219 OFFCURVE",
"419 263 CURVE SMOOTH",
"449 436 OFFCURVE",
"508 734 OFFCURVE",
"535 868 CURVE SMOOTH",
"545 917 OFFCURVE",
"529 936 OFFCURVE",
"480 936 CURVE SMOOTH",
"440 936 OFFCURVE",
"410 921 OFFCURVE",
"400 864 CURVE SMOOTH",
"385 777 OFFCURVE",
"349 534 OFFCURVE",
"337 447 CURVE",
"329 461 OFFCURVE",
"318 468 OFFCURVE",
"302 468 CURVE SMOOTH",
"165 468 OFFCURVE",
"40 320 OFFCURVE",
"40 158 CURVE SMOOTH",
"40 61 OFFCURVE",
"92 -5 OFFCURVE",
"176 -5 CURVE SMOOTH",
"239 -5 OFFCURVE",
"281 37 OFFCURVE",
"307 79 CURVE",
"326 26 OFFCURVE",
"366 -5 OFFCURVE",
"409 -5 CURVE SMOOTH",
"472 -5 OFFCURVE",
"542 60 OFFCURVE",
"585 120 CURVE SMOOTH",
"634 189 OFFCURVE",
"593 262 OFFCURVE",
"549 209 CURVE SMOOTH"
);
},
{
closed = 1;
nodes = (
"271 131 OFFCURVE",
"240 96 OFFCURVE",
"212 96 CURVE SMOOTH",
"183 96 OFFCURVE",
"165 115 OFFCURVE",
"165 157 CURVE SMOOTH",
"165 270 OFFCURVE",
"235 373 OFFCURVE",
"320 375 CURVE",
"283 191 LINE SMOOTH"
);
},
{
closed = 1;
nodes = (
"528 609 OFFCURVE",
"567 634 OFFCURVE",
"567 680 CURVE SMOOTH",
"567 701 OFFCURVE",
"555 719 OFFCURVE",
"527 719 CURVE SMOOTH",
"461 719 OFFCURVE",
"439 708 OFFCURVE",
"397 708 CURVE SMOOTH",
"343 708 OFFCURVE",
"290 711 OFFCURVE",
"235 711 CURVE SMOOTH",
"181 711 OFFCURVE",
"172 684 OFFCURVE",
"172 655 CURVE SMOOTH",
"172 625 OFFCURVE",
"181 607 OFFCURVE",
"251 607 CURVE SMOOTH",
"325 607 OFFCURVE",
"352 609 OFFCURVE",
"414 609 CURVE SMOOTH"
);
}
);
};
layerId = "ECEFE970-1BBB-4E0A-A452-CEB55884B4A3";
paths = (
{
closed = 1;
nodes = (
"493 142 OFFCURVE",
"457 105 OFFCURVE",
"430 105 CURVE SMOOTH",
"414 105 OFFCURVE",
"403 118 OFFCURVE",
"403 138 CURVE SMOOTH",
"403 172 OFFCURVE",
"411 219 OFFCURVE",
"419 263 CURVE SMOOTH",
"449 436 OFFCURVE",
"489 626 OFFCURVE",
"516 760 CURVE SMOOTH",
"526 809 OFFCURVE",
"510 828 OFFCURVE",
"461 828 CURVE SMOOTH",
"421 828 OFFCURVE",
"390 813 OFFCURVE",
"381 756 CURVE SMOOTH",
"368 669 OFFCURVE",
"349 534 OFFCURVE",
"337 447 CURVE",
"329 461 OFFCURVE",
"318 468 OFFCURVE",
"302 468 CURVE SMOOTH",
"165 468 OFFCURVE",
"40 320 OFFCURVE",
"40 158 CURVE SMOOTH",
"40 61 OFFCURVE",
"92 -5 OFFCURVE",
"176 -5 CURVE SMOOTH",
"239 -5 OFFCURVE",
"281 37 OFFCURVE",
"307 79 CURVE",
"326 26 OFFCURVE",
"366 -5 OFFCURVE",
"409 -5 CURVE SMOOTH",
"472 -5 OFFCURVE",
"542 60 OFFCURVE",
"585 120 CURVE SMOOTH",
"634 189 OFFCURVE",
"593 262 OFFCURVE",
"549 209 CURVE SMOOTH"
);
},
{
closed = 1;
nodes = (
"271 131 OFFCURVE",
"240 96 OFFCURVE",
"212 96 CURVE SMOOTH",
"183 96 OFFCURVE",
"165 115 OFFCURVE",
"165 157 CURVE SMOOTH",
"165 270 OFFCURVE",
"235 373 OFFCURVE",
"320 375 CURVE",
"283 191 LINE SMOOTH"
);
},
{
closed = 1;
nodes = (
"518 571 OFFCURVE",
"557 594 OFFCURVE",
"557 640 CURVE SMOOTH",
"557 661 OFFCURVE",
"545 679 OFFCURVE",
"517 679 CURVE SMOOTH",
"451 679 OFFCURVE",
"429 668 OFFCURVE",
"387 668 CURVE SMOOTH",
"333 668 OFFCURVE",
"280 673 OFFCURVE",
"225 673 CURVE SMOOTH",
"171 673 OFFCURVE",
"162 646 OFFCURVE",
"162 617 CURVE SMOOTH",
"162 587 OFFCURVE",
"171 571 OFFCURVE",
"241 571 CURVE SMOOTH",
"315 571 OFFCURVE",
"342 571 OFFCURVE",
"404 571 CURVE SMOOTH"
);
}
);
width = 470;
}
);
unicode = 0111;
},
{
color = 4;
glyphname = e;
lastChange = "2016-07-21 13:04:48 +0000";
layers = (
{
background = {
paths = (
{
closed = 1;
nodes = (
"350 -5 OFFCURVE",
"446 24 OFFCURVE",
"514 120 CURVE SMOOTH",
"563 189 OFFCURVE",
"519 267 OFFCURVE",
"478 209 CURVE SMOOTH",
"412 116 OFFCURVE",
"335 95 OFFCURVE",
"276 95 CURVE SMOOTH",
"200 95 OFFCURVE",
"165 137 OFFCURVE",
"165 211 CURVE SMOOTH",
"165 301 OFFCURVE",
"203 368 OFFCURVE",
"253 368 CURVE SMOOTH",
"277 368 OFFCURVE",
"292 352 OFFCURVE",
"292 326 CURVE SMOOTH",
"292 272 OFFCURVE",
"234 229 OFFCURVE",
"139 214 CURVE",
"159 136 LINE",
"345 176 OFFCURVE",
"400 248 OFFCURVE",
"400 336 CURVE SMOOTH",
"400 417 OFFCURVE",
"345 466 OFFCURVE",
"260 466 CURVE SMOOTH",
"148 466 OFFCURVE",
"40 364 OFFCURVE",
"40 197 CURVE SMOOTH",
"40 79 OFFCURVE",
"119 -5 OFFCURVE",
"265 -5 CURVE SMOOTH"
);
},
{
closed = 1;
nodes = (
"-356 466 OFFCURVE",
"-449 410 OFFCURVE",
"-520 236 CURVE",
"-514 294 OFFCURVE",
"-502 338 OFFCURVE",
"-494 370 CURVE SMOOTH",
"-486 400 OFFCURVE",
"-482 422 OFFCURVE",
"-482 432 CURVE SMOOTH",
"-482 450 OFFCURVE",
"-490 466 OFFCURVE",
"-531 466 CURVE SMOOTH",
"-577 466 OFFCURVE",
"-595 448 OFFCURVE",
"-607 410 CURVE SMOOTH",
"-633 328 OFFCURVE",
"-644 243 OFFCURVE",
"-644 163 CURVE SMOOTH",
"-644 49 OFFCURVE",
"-627 -5 OFFCURVE",
"-573 -5 CURVE SMOOTH",
"-530 -5 OFFCURVE",
"-514 12 OFFCURVE",
"-499 75 CURVE SMOOTH",
"-468 204 OFFCURVE",
"-403 311 OFFCURVE",
"-380 311 CURVE SMOOTH",
"-374 311 OFFCURVE",
"-370 306 OFFCURVE",
"-370 295 CURVE SMOOTH",
"-370 252 OFFCURVE",
"-397 160 OFFCURVE",
"-397 110 CURVE SMOOTH",
"-397 37 OFFCURVE",
"-363 -5 OFFCURVE",
"-281 -5 CURVE SMOOTH",
"-198 -5 OFFCURVE",
"-129 60 OFFCURVE",
"-86 120 CURVE SMOOTH",
"-37 189 OFFCURVE",
"-78 262 OFFCURVE",
"-122 209 CURVE SMOOTH",
"-178 142 OFFCURVE",
"-214 105 OFFCURVE",
"-243 105 CURVE SMOOTH",
"-260 105 OFFCURVE",
"-271 118 OFFCURVE",
"-271 145 CURVE SMOOTH",
"-271 200 OFFCURVE",
"-230 332 OFFCURVE",
"-230 401 CURVE SMOOTH",
"-230 443 OFFCURVE",
"-251 466 OFFCURVE",
"-296 466 CURVE SMOOTH"
);
}
);
};
layerId = "ECEFE970-1BBB-4E0A-A452-CEB55884B4A3";
paths = (
{
closed = 1;
nodes = (
"350 -5 OFFCURVE",
"446 24 OFFCURVE",
"514 120 CURVE SMOOTH",
"563 189 OFFCURVE",
"522 262 OFFCURVE",
"478 209 CURVE SMOOTH",
"405 121 OFFCURVE",
"335 95 OFFCURVE",
"286 95 CURVE SMOOTH",
"200 95 OFFCURVE",
"165 137 OFFCURVE",
"165 211 CURVE SMOOTH",
"165 301 OFFCURVE",
"203 368 OFFCURVE",
"253 368 CURVE SMOOTH",
"277 368 OFFCURVE",
"292 352 OFFCURVE",
"292 326 CURVE SMOOTH",
"292 272 OFFCURVE",
"234 229 OFFCURVE",
"139 214 CURVE",
"159 136 LINE",
"345 176 OFFCURVE",
"400 248 OFFCURVE",
"400 336 CURVE SMOOTH",
"400 417 OFFCURVE",
"345 466 OFFCURVE",
"260 466 CURVE SMOOTH",
"148 466 OFFCURVE",
"40 364 OFFCURVE",
"40 197 CURVE SMOOTH",
"40 79 OFFCURVE",
"119 -5 OFFCURVE",
"265 -5 CURVE SMOOTH"
);
}
);
width = 399;
}
);
note = e;
unicode = 0065;
},
{
color = 4;
glyphname = f;
lastChange = "2016-07-20 22:14:31 +0000";
layers = (
{
background = {
paths = (
{
closed = 1;
nodes = (
"255 -296 OFFCURVE",
"317 -220 OFFCURVE",
"317 -84 CURVE SMOOTH",
"317 -15 OFFCURVE",
"300 141 OFFCURVE",
"229 223 CURVE",
"180 190 LINE",
"221 104 OFFCURVE",
"241 1 OFFCURVE",
"241 -105 CURVE SMOOTH",
"241 -164 OFFCURVE",
"231 -192 OFFCURVE",
"219 -192 CURVE SMOOTH",
"188 -192 OFFCURVE",
"181 15 OFFCURVE",
"181 101 CURVE SMOOTH",
"181 407 OFFCURVE",
"297 841 OFFCURVE",
"351 841 CURVE SMOOTH",
"367 841 OFFCURVE",
"371 824 OFFCURVE",
"371 780 CURVE SMOOTH",
"370 657 OFFCURVE",
"306 500 OFFCURVE",
"171 369 CURVE",
"181 261 LINE",
"408 484 OFFCURVE",
"467 656 OFFCURVE",
"467 785 CURVE SMOOTH",
"467 879 OFFCURVE",
"435 940 OFFCURVE",
"372 940 CURVE SMOOTH",
"190 940 OFFCURVE",
"57 481 OFFCURVE",
"57 74 CURVE SMOOTH",
"57 -89 OFFCURVE",
"82 -296 OFFCURVE",
"186 -296 CURVE SMOOTH"
);
},
{
closed = 1;
nodes = (
"439 159 OFFCURVE",
"475 189 OFFCURVE",
"475 238 CURVE SMOOTH",
"475 261 OFFCURVE",
"463 280 OFFCURVE",
"441 280 CURVE SMOOTH",
"417 280 OFFCURVE",
"390 264 OFFCURVE",
"328 264 CURVE SMOOTH",
"295 264 OFFCURVE",
"264 273 OFFCURVE",
"237 273 CURVE SMOOTH",
"204 273 OFFCURVE",
"177 216 OFFCURVE",
"180 190 CURVE",
"253 168 OFFCURVE",
"307 159 OFFCURVE",
"356 159 CURVE SMOOTH"
);
}
);
};
layerId = "ECEFE970-1BBB-4E0A-A452-CEB55884B4A3";
paths = (
{
closed = 1;
nodes = (
"263 -316 OFFCURVE",
"317 -240 OFFCURVE",
"317 -94 CURVE SMOOTH",
"317 -15 OFFCURVE",
"300 141 OFFCURVE",
"243 223 CURVE",
"180 190 LINE",
"221 104 OFFCURVE",
"241 1 OFFCURVE",
"241 -115 CURVE SMOOTH",
"241 -184 OFFCURVE",
"229 -212 OFFCURVE",
"215 -212 CURVE SMOOTH",
"186 -212 OFFCURVE",
"181 15 OFFCURVE",
"181 101 CURVE SMOOTH",
"181 407 OFFCURVE",
"297 841 OFFCURVE",
"351 841 CURVE SMOOTH",
"367 841 OFFCURVE",
"376 824 OFFCURVE",
"376 780 CURVE SMOOTH",
"375 657 OFFCURVE",
"306 499 OFFCURVE",
"171 366 CURVE",
"181 263 LINE",
"408 484 OFFCURVE",
"472 656 OFFCURVE",
"472 785 CURVE SMOOTH",
"472 879 OFFCURVE",
"435 940 OFFCURVE",
"372 940 CURVE SMOOTH",
"190 940 OFFCURVE",
"57 471 OFFCURVE",
"57 94 CURVE SMOOTH",
"57 -169 OFFCURVE",
"90 -316 OFFCURVE",
"193 -316 CURVE SMOOTH"
);
},
{
closed = 1;
nodes = (
"444 159 OFFCURVE",
"480 189 OFFCURVE",
"480 238 CURVE SMOOTH",
"480 261 OFFCURVE",
"468 280 OFFCURVE",
"446 280 CURVE SMOOTH",
"422 280 OFFCURVE",
"395 264 OFFCURVE",
"328 264 CURVE SMOOTH",
"295 264 OFFCURVE",
"264 273 OFFCURVE",
"237 273 CURVE SMOOTH",
"204 273 OFFCURVE",
"177 216 OFFCURVE",
"180 190 CURVE",
"253 168 OFFCURVE",
"307 159 OFFCURVE",
"356 159 CURVE SMOOTH"
);
}
);
width = 362;
}
);
note = f;
unicode = 0066;
},
{
color = 4;
glyphname = g;
lastChange = "2016-07-20 22:14:31 +0000";
layers = (
{
background = {
paths = (
{
closed = 1;
nodes = (
"890 97 OFFCURVE",
"868 123 OFFCURVE",
"868 175 CURVE SMOOTH",
"868 270 OFFCURVE",
"928 373 OFFCURVE",
"1015 375 CURVE",
"984 183 LINE SMOOTH",
"974 123 OFFCURVE",
"950 97 OFFCURVE",
"917 97 CURVE SMOOTH"
);
},
{
closed = 1;
nodes = (
"1094 108 OFFCURVE",
"1034 61 CURVE",
"763 -136 OFFCURVE",
"703 -250 OFFCURVE",
"703 -344 CURVE SMOOTH",
"703 -413 OFFCURVE",
"749 -455 OFFCURVE",
"818 -455 CURVE SMOOTH",
"973 -455 OFFCURVE",
"1061 -181 OFFCURVE",
"1105 102 CURVE SMOOTH",
"1118 185 OFFCURVE",
"1132 275 OFFCURVE",
"1143 377 CURVE SMOOTH",
"1147 414 OFFCURVE",
"1118 433 OFFCURVE",
"1089 433 CURVE SMOOTH",
"1075 433 OFFCURVE",
"1057 432 OFFCURVE",
"1043 429 CURVE",
"1031 456 OFFCURVE",
"1021 468 OFFCURVE",
"993 468 CURVE SMOOTH",
"845 468 OFFCURVE",
"743 320 OFFCURVE",
"743 168 CURVE SMOOTH",
"743 59 OFFCURVE",
"805 -3 OFFCURVE",
"881 -3 CURVE SMOOTH",
"915 -3 OFFCURVE",
"951 14 OFFCURVE",
"975 47 CURVE",
"927 -266 OFFCURVE",
"865 -355 OFFCURVE",
"829 -355 CURVE SMOOTH",
"808 -355 OFFCURVE",
"800 -337 OFFCURVE",
"801 -315 CURVE SMOOTH",
"804 -259 OFFCURVE",
"848 -175 OFFCURVE",
"1034 -39 CURVE",
"1102 8 OFFCURVE",
"1185 64 OFFCURVE",
"1266 118 CURVE SMOOTH",
"1326 158 OFFCURVE",
"1315 260 OFFCURVE",
"1244 213 CURVE SMOOTH",
"1164 160 OFFCURVE"
);
},
{
closed = 1;
nodes = (
"313 466 OFFCURVE",
"220 410 OFFCURVE",
"149 236 CURVE",
"155 294 OFFCURVE",
"167 338 OFFCURVE",
"175 370 CURVE SMOOTH",
"183 400 OFFCURVE",
"187 422 OFFCURVE",
"187 432 CURVE SMOOTH",
"187 450 OFFCURVE",
"179 466 OFFCURVE",
"138 466 CURVE SMOOTH",
"92 466 OFFCURVE",
"74 448 OFFCURVE",
"62 410 CURVE SMOOTH",
"36 328 OFFCURVE",
"25 243 OFFCURVE",
"25 163 CURVE SMOOTH",
"25 49 OFFCURVE",
"42 -5 OFFCURVE",
"96 -5 CURVE SMOOTH",
"139 -5 OFFCURVE",
"155 12 OFFCURVE",
"170 75 CURVE SMOOTH",
"201 204 OFFCURVE",
"266 311 OFFCURVE",
"289 311 CURVE SMOOTH",
"295 311 OFFCURVE",
"299 306 OFFCURVE",
"299 295 CURVE SMOOTH",
"299 252 OFFCURVE",
"272 160 OFFCURVE",
"272 110 CURVE SMOOTH",
"272 37 OFFCURVE",
"306 -5 OFFCURVE",
"388 -5 CURVE SMOOTH",
"471 -5 OFFCURVE",
"540 60 OFFCURVE",
"583 120 CURVE SMOOTH",
"632 189 OFFCURVE",
"591 262 OFFCURVE",
"547 209 CURVE SMOOTH",
"491 142 OFFCURVE",
"455 105 OFFCURVE",
"426 105 CURVE SMOOTH",
"409 105 OFFCURVE",
"398 118 OFFCURVE",
"398 145 CURVE SMOOTH",
"398 200 OFFCURVE",
"439 332 OFFCURVE",
"439 401 CURVE SMOOTH",
"439 443 OFFCURVE",
"418 466 OFFCURVE",
"373 466 CURVE SMOOTH"
);
}
);
};
layerId = "ECEFE970-1BBB-4E0A-A452-CEB55884B4A3";
paths = (
{
closed = 1;
nodes = (
"190 97 OFFCURVE",
"168 123 OFFCURVE",
"168 175 CURVE SMOOTH",
"168 270 OFFCURVE",
"228 373 OFFCURVE",
"315 375 CURVE",
"284 183 LINE SMOOTH",
"274 123 OFFCURVE",
"250 97 OFFCURVE",
"217 97 CURVE SMOOTH"
);
},
{
closed = 1;
nodes = (
"394 108 OFFCURVE",
"334 61 CURVE",
"63 -136 OFFCURVE",
"3 -250 OFFCURVE",
"3 -344 CURVE SMOOTH",
"3 -413 OFFCURVE",
"49 -455 OFFCURVE",
"118 -455 CURVE SMOOTH",
"273 -455 OFFCURVE",
"361 -181 OFFCURVE",
"405 102 CURVE SMOOTH",
"418 185 OFFCURVE",
"432 275 OFFCURVE",
"443 377 CURVE SMOOTH",
"447 414 OFFCURVE",
"418 433 OFFCURVE",
"389 433 CURVE SMOOTH",
"375 433 OFFCURVE",
"357 432 OFFCURVE",
"343 429 CURVE",
"331 456 OFFCURVE",
"321 468 OFFCURVE",
"293 468 CURVE SMOOTH",
"145 468 OFFCURVE",
"43 320 OFFCURVE",
"43 168 CURVE SMOOTH",
"43 59 OFFCURVE",
"105 -3 OFFCURVE",
"181 -3 CURVE SMOOTH",
"215 -3 OFFCURVE",
"251 14 OFFCURVE",
"275 47 CURVE",
"227 -266 OFFCURVE",
"165 -355 OFFCURVE",
"129 -355 CURVE SMOOTH",
"108 -355 OFFCURVE",
"100 -337 OFFCURVE",
"101 -315 CURVE SMOOTH",
"104 -259 OFFCURVE",
"148 -175 OFFCURVE",
"334 -39 CURVE",
"402 8 OFFCURVE",
"485 64 OFFCURVE",
"566 118 CURVE SMOOTH",
"626 158 OFFCURVE",
"615 260 OFFCURVE",
"544 213 CURVE SMOOTH",
"464 160 OFFCURVE"
);
}
);
width = 477;
}
);
note = g;
unicode = 0067;
},
{
color = 4;
glyphname = h;
lastChange = "2016-07-20 22:14:31 +0000";
layers = (
{
background = {
paths = (
{
closed = 1;
nodes = (
"884 532 OFFCURVE",
"961 841 OFFCURVE",
"1010 841 CURVE SMOOTH",
"1027 841 OFFCURVE",
"1039 818 OFFCURVE",
"1039 775 CURVE SMOOTH",
"1039 661 OFFCURVE",
"950 507 OFFCURVE",
"853 414 CURVE",
"877 326 LINE",
"1058 523 OFFCURVE",
"1136 660 OFFCURVE",
"1136 798 CURVE SMOOTH",
"1136 881 OFFCURVE",
"1095 940 OFFCURVE",
"1033 940 CURVE SMOOTH",
"850 940 OFFCURVE",
"760 530 OFFCURVE",
"760 265 CURVE SMOOTH",
"760 49 OFFCURVE",
"769 -5 OFFCURVE",
"831 -5 CURVE SMOOTH",
"874 -5 OFFCURVE",
"890 12 OFFCURVE",
"905 75 CURVE SMOOTH",
"936 204 OFFCURVE",
"1001 311 OFFCURVE",
"1024 311 CURVE SMOOTH",
"1030 311 OFFCURVE",
"1034 306 OFFCURVE",
"1034 295 CURVE SMOOTH",
"1034 252 OFFCURVE",
"1007 160 OFFCURVE",
"1007 110 CURVE SMOOTH",
"1007 37 OFFCURVE",
"1041 -5 OFFCURVE",
"1123 -5 CURVE SMOOTH",
"1206 -5 OFFCURVE",
"1275 60 OFFCURVE",
"1318 120 CURVE SMOOTH",
"1367 189 OFFCURVE",
"1323 267 OFFCURVE",
"1282 209 CURVE SMOOTH",
"1256 172 OFFCURVE",
"1198 105 OFFCURVE",
"1161 105 CURVE SMOOTH",
"1144 105 OFFCURVE",
"1133 118 OFFCURVE",
"1133 145 CURVE SMOOTH",
"1133 200 OFFCURVE",
"1174 332 OFFCURVE",
"1174 401 CURVE SMOOTH",
"1174 443 OFFCURVE",
"1153 466 OFFCURVE",
"1108 466 CURVE SMOOTH",
"1048 466 OFFCURVE",
"955 410 OFFCURVE",
"884 236 CURVE"
);
},
{
closed = 1;
nodes = (
"348 466 OFFCURVE",
"255 410 OFFCURVE",
"184 236 CURVE",
"190 294 OFFCURVE",
"202 338 OFFCURVE",
"210 370 CURVE SMOOTH",
"218 400 OFFCURVE",
"222 422 OFFCURVE",
"222 432 CURVE SMOOTH",
"222 450 OFFCURVE",
"214 466 OFFCURVE",
"173 466 CURVE SMOOTH",
"127 466 OFFCURVE",
"109 448 OFFCURVE",
"97 410 CURVE SMOOTH",
"71 328 OFFCURVE",
"60 243 OFFCURVE",
"60 163 CURVE SMOOTH",
"60 49 OFFCURVE",
"77 -5 OFFCURVE",
"131 -5 CURVE SMOOTH",
"174 -5 OFFCURVE",
"190 12 OFFCURVE",
"205 75 CURVE SMOOTH",
"236 204 OFFCURVE",
"301 311 OFFCURVE",
"324 311 CURVE SMOOTH",
"330 311 OFFCURVE",
"334 306 OFFCURVE",
"334 295 CURVE SMOOTH",
"334 252 OFFCURVE",
"307 160 OFFCURVE",
"307 110 CURVE SMOOTH",
"307 37 OFFCURVE",
"341 -5 OFFCURVE",
"423 -5 CURVE SMOOTH",
"506 -5 OFFCURVE",
"575 60 OFFCURVE",
"618 120 CURVE SMOOTH",
"667 189 OFFCURVE",
"626 262 OFFCURVE",
"582 209 CURVE SMOOTH",
"526 142 OFFCURVE",
"490 105 OFFCURVE",
"461 105 CURVE SMOOTH",
"444 105 OFFCURVE",
"433 118 OFFCURVE",
"433 145 CURVE SMOOTH",
"433 200 OFFCURVE",
"474 332 OFFCURVE",
"474 401 CURVE SMOOTH",
"474 443 OFFCURVE",
"453 466 OFFCURVE",
"408 466 CURVE SMOOTH"
);
}
);
};
layerId = "ECEFE970-1BBB-4E0A-A452-CEB55884B4A3";
paths = (
{
closed = 1;
nodes = (
"184 532 OFFCURVE",
"261 841 OFFCURVE",
"310 841 CURVE SMOOTH",
"327 841 OFFCURVE",
"339 818 OFFCURVE",
"339 775 CURVE SMOOTH",
"339 661 OFFCURVE",
"250 507 OFFCURVE",
"153 414 CURVE",
"177 326 LINE",
"358 523 OFFCURVE",
"436 660 OFFCURVE",
"436 798 CURVE SMOOTH",
"436 881 OFFCURVE",
"395 940 OFFCURVE",
"333 940 CURVE SMOOTH",
"150 940 OFFCURVE",
"60 530 OFFCURVE",
"60 265 CURVE SMOOTH",
"60 49 OFFCURVE",
"69 -5 OFFCURVE",
"131 -5 CURVE SMOOTH",
"174 -5 OFFCURVE",
"190 12 OFFCURVE",
"205 75 CURVE SMOOTH",
"237 204 OFFCURVE",
"301 311 OFFCURVE",
"324 311 CURVE SMOOTH",
"330 311 OFFCURVE",
"334 306 OFFCURVE",
"334 295 CURVE SMOOTH",
"334 252 OFFCURVE",
"307 160 OFFCURVE",
"307 110 CURVE SMOOTH",
"307 37 OFFCURVE",
"341 -5 OFFCURVE",
"423 -5 CURVE SMOOTH",
"506 -5 OFFCURVE",
"575 60 OFFCURVE",
"618 120 CURVE SMOOTH",
"667 189 OFFCURVE",
"626 262 OFFCURVE",
"582 209 CURVE SMOOTH",
"526 142 OFFCURVE",
"490 105 OFFCURVE",
"461 105 CURVE SMOOTH",
"444 105 OFFCURVE",
"433 118 OFFCURVE",
"433 145 CURVE SMOOTH",
"433 200 OFFCURVE",
"474 332 OFFCURVE",
"474 401 CURVE SMOOTH",
"474 443 OFFCURVE",
"453 466 OFFCURVE",
"408 466 CURVE SMOOTH",
"348 466 OFFCURVE",
"255 410 OFFCURVE",
"184 236 CURVE"
);
}
);
width = 503;
}
);
note = h;
unicode = 0068;
},
{
color = 4;
glyphname = i;
lastChange = "2016-07-20 22:14:31 +0000";
layers = (
{
background = {
paths = (
{
closed = 1;
nodes = (
"858 -5 OFFCURVE",
"927 60 OFFCURVE",
"970 120 CURVE SMOOTH",
"1019 189 OFFCURVE",
"975 267 OFFCURVE",
"934 209 CURVE SMOOTH",
"908 172 OFFCURVE",
"848 105 OFFCURVE",
"817 105 CURVE SMOOTH",
"790 105 OFFCURVE",
"782 130 OFFCURVE",
"782 167 CURVE SMOOTH",
"782 232 OFFCURVE",
"823 383 OFFCURVE",
"823 432 CURVE SMOOTH",
"823 450 OFFCURVE",
"815 466 OFFCURVE",
"774 466 CURVE SMOOTH",
"728 466 OFFCURVE",
"710 448 OFFCURVE",
"698 410 CURVE SMOOTH",
"672 328 OFFCURVE",
"657 223 OFFCURVE",
"657 163 CURVE SMOOTH",
"657 70 OFFCURVE",
"693 -5 OFFCURVE",
"785 -5 CURVE SMOOTH"
);
},
{
closed = 1;
nodes = (
"849 532 OFFCURVE",
"888 565 OFFCURVE",
"888 619 CURVE SMOOTH",
"888 665 OFFCURVE",
"853 688 OFFCURVE",
"805 688 CURVE SMOOTH",
"751 688 OFFCURVE",
"709 653 OFFCURVE",
"709 606 CURVE SMOOTH",
"709 561 OFFCURVE",
"736 532 OFFCURVE",
"793 532 CURVE SMOOTH"
);
},
{
closed = 1;
nodes = (
"100 466 OFFCURVE",
"7 410 OFFCURVE",
"-64 236 CURVE",
"-58 294 OFFCURVE",
"-46 338 OFFCURVE",
"-38 370 CURVE SMOOTH",
"-30 400 OFFCURVE",
"-26 422 OFFCURVE",
"-26 432 CURVE SMOOTH",
"-26 450 OFFCURVE",
"-34 466 OFFCURVE",
"-75 466 CURVE SMOOTH",
"-121 466 OFFCURVE",
"-139 448 OFFCURVE",
"-151 410 CURVE SMOOTH",
"-177 328 OFFCURVE",
"-188 243 OFFCURVE",
"-188 163 CURVE SMOOTH",
"-188 49 OFFCURVE",
"-171 -5 OFFCURVE",
"-117 -5 CURVE SMOOTH",
"-74 -5 OFFCURVE",
"-58 12 OFFCURVE",
"-43 75 CURVE SMOOTH",
"-12 204 OFFCURVE",
"53 311 OFFCURVE",
"76 311 CURVE SMOOTH",
"82 311 OFFCURVE",
"86 306 OFFCURVE",
"86 295 CURVE SMOOTH",
"86 252 OFFCURVE",
"59 160 OFFCURVE",
"59 110 CURVE SMOOTH",
"59 37 OFFCURVE",
"93 -5 OFFCURVE",
"175 -5 CURVE SMOOTH",
"258 -5 OFFCURVE",
"327 60 OFFCURVE",
"370 120 CURVE SMOOTH",
"419 189 OFFCURVE",
"378 262 OFFCURVE",
"334 209 CURVE SMOOTH",
"278 142 OFFCURVE",
"242 105 OFFCURVE",
"213 105 CURVE SMOOTH",
"196 105 OFFCURVE",
"185 118 OFFCURVE",
"185 145 CURVE SMOOTH",
"185 200 OFFCURVE",
"226 332 OFFCURVE",
"226 401 CURVE SMOOTH",
"226 443 OFFCURVE",
"205 466 OFFCURVE",
"160 466 CURVE SMOOTH"
);
}
);
};
layerId = "ECEFE970-1BBB-4E0A-A452-CEB55884B4A3";
paths = (
{
closed = 1;
nodes = (
"258 -5 OFFCURVE",
"327 60 OFFCURVE",
"370 120 CURVE SMOOTH",
"419 189 OFFCURVE",
"378 262 OFFCURVE",
"334 209 CURVE SMOOTH",
"278 142 OFFCURVE",
"242 105 OFFCURVE",
"217 105 CURVE SMOOTH",
"190 105 OFFCURVE",
"182 130 OFFCURVE",
"182 167 CURVE SMOOTH",
"182 232 OFFCURVE",
"223 383 OFFCURVE",
"223 432 CURVE SMOOTH",
"223 450 OFFCURVE",
"215 466 OFFCURVE",
"174 466 CURVE SMOOTH",
"128 466 OFFCURVE",
"110 448 OFFCURVE",
"98 410 CURVE SMOOTH",
"73 328 OFFCURVE",
"57 223 OFFCURVE",
"57 163 CURVE SMOOTH",
"57 70 OFFCURVE",
"93 -5 OFFCURVE",
"185 -5 CURVE SMOOTH"
);
},
{
closed = 1;
nodes = (
"249 532 OFFCURVE",
"288 565 OFFCURVE",
"288 619 CURVE SMOOTH",
"288 665 OFFCURVE",
"253 688 OFFCURVE",
"205 688 CURVE SMOOTH",
"151 688 OFFCURVE",
"109 653 OFFCURVE",
"109 606 CURVE SMOOTH",
"109 561 OFFCURVE",
"136 532 OFFCURVE",
"193 532 CURVE SMOOTH"
);
}
);
width = 255;
}
);
note = i;
unicode = 0069;
},
{
color = 4;
glyphname = idotless;
lastChange = "2016-07-20 22:14:31 +0000";
layers = (
{
layerId = "ECEFE970-1BBB-4E0A-A452-CEB55884B4A3";
paths = (
{
closed = 1;
nodes = (
"258 -5 OFFCURVE",
"327 60 OFFCURVE",
"370 120 CURVE SMOOTH",
"419 189 OFFCURVE",
"378 262 OFFCURVE",
"334 209 CURVE SMOOTH",
"278 142 OFFCURVE",
"242 105 OFFCURVE",
"217 105 CURVE SMOOTH",
"190 105 OFFCURVE",
"182 130 OFFCURVE",
"182 167 CURVE SMOOTH",
"182 232 OFFCURVE",
"223 383 OFFCURVE",
"223 432 CURVE SMOOTH",
"223 450 OFFCURVE",
"215 466 OFFCURVE",
"174 466 CURVE SMOOTH",
"128 466 OFFCURVE",
"110 448 OFFCURVE",
"98 410 CURVE SMOOTH",
"73 328 OFFCURVE",
"57 223 OFFCURVE",
"57 163 CURVE SMOOTH",
"57 70 OFFCURVE",
"93 -5 OFFCURVE",
"185 -5 CURVE SMOOTH"
);
}
);
width = 255;
}
);
note = i;
unicode = 0131;
},
{
color = 4;
glyphname = j;
lastChange = "2016-07-20 22:21:53 +0000";
layers = (
{
background = {
paths = (
{
closed = 1;
nodes = (
"239 532 OFFCURVE",
"278 565 OFFCURVE",
"278 619 CURVE SMOOTH",
"278 665 OFFCURVE",
"243 688 OFFCURVE",
"195 688 CURVE SMOOTH",
"141 688 OFFCURVE",
"99 653 OFFCURVE",
"99 606 CURVE SMOOTH",
"99 561 OFFCURVE",
"126 532 OFFCURVE",
"183 532 CURVE SMOOTH"
);
},
{
closed = 1;
nodes = (
"22 -241 OFFCURVE",
"-51 -355 OFFCURVE",
"-105 -355 CURVE SMOOTH",
"-133 -355 OFFCURVE",
"-144 -337 OFFCURVE",
"-143 -315 CURVE SMOOTH",
"-140 -259 OFFCURVE",
"-67 -173 OFFCURVE",
"112 -38 CURVE",
"180 8 OFFCURVE",
"263 64 OFFCURVE",
"344 118 CURVE SMOOTH",
"404 158 OFFCURVE",
"393 260 OFFCURVE",
"322 213 CURVE SMOOTH",
"242 159 OFFCURVE",
"172 108 OFFCURVE",
"112 57 CURVE",
"-166 -144 OFFCURVE",
"-241 -256 OFFCURVE",
"-241 -346 CURVE SMOOTH",
"-241 -413 OFFCURVE",
"-192 -455 OFFCURVE",
"-120 -455 CURVE SMOOTH",
"70 -455 OFFCURVE",
"155 -141 OFFCURVE",
"196 205 CURVE SMOOTH",
"209 304 OFFCURVE",
"225 396 OFFCURVE",
"225 432 CURVE SMOOTH",
"225 450 OFFCURVE",
"224 466 OFFCURVE",
"183 466 CURVE SMOOTH",
"137 466 OFFCURVE",
"108 448 OFFCURVE",
"100 410 CURVE SMOOTH",
"89 355 OFFCURVE",
"76 286 OFFCURVE",
"69 205 CURVE SMOOTH"
);
}
);
};
layerId = "ECEFE970-1BBB-4E0A-A452-CEB55884B4A3";
paths = (
{
closed = 1;
nodes = (
"242 532 OFFCURVE",
"281 565 OFFCURVE",
"281 619 CURVE SMOOTH",
"281 665 OFFCURVE",
"246 688 OFFCURVE",
"198 688 CURVE SMOOTH",
"144 688 OFFCURVE",
"102 653 OFFCURVE",
"102 606 CURVE SMOOTH",
"102 561 OFFCURVE",
"129 532 OFFCURVE",
"186 532 CURVE SMOOTH"
);
},
{
closed = 1;
nodes = (
"69 207 OFFCURVE",
"49 60 CURVE SMOOTH",
"3 -266 OFFCURVE",
"-57 -355 OFFCURVE",
"-93 -355 CURVE SMOOTH",
"-114 -355 OFFCURVE",
"-122 -337 OFFCURVE",
"-121 -315 CURVE SMOOTH",
"-118 -259 OFFCURVE",
"-74 -175 OFFCURVE",
"112 -39 CURVE",
"180 8 OFFCURVE",
"263 64 OFFCURVE",
"344 118 CURVE SMOOTH",
"404 158 OFFCURVE",
"393 260 OFFCURVE",
"322 213 CURVE SMOOTH",
"242 159 OFFCURVE",
"172 108 OFFCURVE",
"112 61 CURVE",
"-159 -136 OFFCURVE",
"-219 -250 OFFCURVE",
"-219 -344 CURVE SMOOTH",
"-219 -413 OFFCURVE",
"-173 -455 OFFCURVE",
"-104 -455 CURVE SMOOTH",
"51 -455 OFFCURVE",
"139 -181 OFFCURVE",
"183 102 CURVE SMOOTH",
"203 231 OFFCURVE",
"225 392 OFFCURVE",
"225 432 CURVE SMOOTH",
"225 450 OFFCURVE",
"220 466 OFFCURVE",
"176 466 CURVE SMOOTH",
"125 466 OFFCURVE",
"95 448 OFFCURVE",
"90 410 CURVE SMOOTH",
"73 272 OFFCURVE"
);
}
);
width = 249;
}
);
note = j;
unicode = 006A;
},
{
color = 4;
glyphname = k;
lastChange = "2016-07-20 22:14:31 +0000";
layers = (
{
background = {
paths = (
{
closed = 1;
nodes = (
"884 532 OFFCURVE",
"961 841 OFFCURVE",
"1010 841 CURVE SMOOTH",
"1027 841 OFFCURVE",
"1039 818 OFFCURVE",
"1039 775 CURVE SMOOTH",
"1039 661 OFFCURVE",
"950 507 OFFCURVE",
"853 414 CURVE",
"877 326 LINE",
"1058 523 OFFCURVE",
"1136 660 OFFCURVE",
"1136 798 CURVE SMOOTH",
"1136 881 OFFCURVE",
"1095 940 OFFCURVE",
"1033 940 CURVE SMOOTH",
"850 940 OFFCURVE",
"760 530 OFFCURVE",
"760 265 CURVE SMOOTH",
"760 49 OFFCURVE",
"769 -5 OFFCURVE",
"831 -5 CURVE SMOOTH",
"874 -5 OFFCURVE",
"890 12 OFFCURVE",
"905 75 CURVE SMOOTH",
"936 204 OFFCURVE",
"1012 341 OFFCURVE",
"1065 341 CURVE SMOOTH",
"1078 341 OFFCURVE",
"1091 331 OFFCURVE",
"1091 305 CURVE SMOOTH",
"1091 263 OFFCURVE",
"1067 237 OFFCURVE",
"1009 212 CURVE SMOOTH",
"983 201 OFFCURVE",
"969 184 OFFCURVE",
"969 156 CURVE SMOOTH",
"969 59 OFFCURVE",
"1037 -5 OFFCURVE",
"1140 -5 CURVE SMOOTH",
"1234 -5 OFFCURVE",
"1291 54 OFFCURVE",
"1340 120 CURVE SMOOTH",
"1391 189 OFFCURVE",
"1343 267 OFFCURVE",
"1302 209 CURVE SMOOTH",
"1258 146 OFFCURVE",
"1217 105 OFFCURVE",
"1168 105 CURVE SMOOTH",
"1130 105 OFFCURVE",
"1100 128 OFFCURVE",
"1094 165 CURVE",
"1190 216 OFFCURVE",
"1218 281 OFFCURVE",
"1218 348 CURVE SMOOTH",
"1218 412 OFFCURVE",
"1176 466 OFFCURVE",
"1107 466 CURVE SMOOTH",
"1048 466 OFFCURVE",
"955 410 OFFCURVE",
"884 236 CURVE"
);
},
{
closed = 1;
nodes = (
"370 466 OFFCURVE",
"277 410 OFFCURVE",
"206 236 CURVE",
"212 294 OFFCURVE",
"224 338 OFFCURVE",
"232 370 CURVE SMOOTH",
"240 400 OFFCURVE",
"244 422 OFFCURVE",
"244 432 CURVE SMOOTH",
"244 450 OFFCURVE",
"236 466 OFFCURVE",
"195 466 CURVE SMOOTH",
"149 466 OFFCURVE",
"131 448 OFFCURVE",
"119 410 CURVE SMOOTH",
"93 328 OFFCURVE",
"82 243 OFFCURVE",
"82 163 CURVE SMOOTH",
"82 49 OFFCURVE",
"99 -5 OFFCURVE",
"153 -5 CURVE SMOOTH",
"196 -5 OFFCURVE",
"212 12 OFFCURVE",
"227 75 CURVE SMOOTH",
"258 204 OFFCURVE",
"323 311 OFFCURVE",
"346 311 CURVE SMOOTH",
"352 311 OFFCURVE",
"356 306 OFFCURVE",
"356 295 CURVE SMOOTH",
"356 252 OFFCURVE",
"329 160 OFFCURVE",
"329 110 CURVE SMOOTH",
"329 37 OFFCURVE",
"363 -5 OFFCURVE",
"445 -5 CURVE SMOOTH",
"528 -5 OFFCURVE",
"597 60 OFFCURVE",
"640 120 CURVE SMOOTH",
"689 189 OFFCURVE",
"648 262 OFFCURVE",
"604 209 CURVE SMOOTH",
"548 142 OFFCURVE",
"512 105 OFFCURVE",
"483 105 CURVE SMOOTH",
"466 105 OFFCURVE",
"455 118 OFFCURVE",
"455 145 CURVE SMOOTH",
"455 200 OFFCURVE",
"496 332 OFFCURVE",
"496 401 CURVE SMOOTH",
"496 443 OFFCURVE",
"475 466 OFFCURVE",
"430 466 CURVE SMOOTH"
);
}
);
};
layerId = "ECEFE970-1BBB-4E0A-A452-CEB55884B4A3";
paths = (
{
closed = 1;
nodes = (
"184 532 OFFCURVE",
"261 841 OFFCURVE",
"310 841 CURVE SMOOTH",
"327 841 OFFCURVE",
"339 818 OFFCURVE",
"339 775 CURVE SMOOTH",
"339 661 OFFCURVE",
"250 507 OFFCURVE",
"153 414 CURVE",
"177 326 LINE",
"358 523 OFFCURVE",
"436 660 OFFCURVE",
"436 798 CURVE SMOOTH",
"436 881 OFFCURVE",
"395 940 OFFCURVE",
"333 940 CURVE SMOOTH",
"150 940 OFFCURVE",
"60 530 OFFCURVE",
"60 265 CURVE SMOOTH",
"60 49 OFFCURVE",
"69 -5 OFFCURVE",
"131 -5 CURVE SMOOTH",
"174 -5 OFFCURVE",
"190 12 OFFCURVE",
"205 75 CURVE SMOOTH",
"236 204 OFFCURVE",
"312 341 OFFCURVE",
"365 341 CURVE SMOOTH",
"378 341 OFFCURVE",
"391 331 OFFCURVE",
"391 305 CURVE SMOOTH",
"391 263 OFFCURVE",
"367 237 OFFCURVE",
"309 212 CURVE SMOOTH",
"283 201 OFFCURVE",
"269 184 OFFCURVE",
"269 156 CURVE SMOOTH",
"269 59 OFFCURVE",
"337 -5 OFFCURVE",
"440 -5 CURVE SMOOTH",
"534 -5 OFFCURVE",
"592 53 OFFCURVE",
"640 120 CURVE SMOOTH",
"689 189 OFFCURVE",
"648 262 OFFCURVE",
"604 209 CURVE SMOOTH",
"548 142 OFFCURVE",
"512 105 OFFCURVE",
"468 105 CURVE SMOOTH",
"430 105 OFFCURVE",
"400 128 OFFCURVE",
"394 165 CURVE",
"490 216 OFFCURVE",
"518 281 OFFCURVE",
"518 348 CURVE SMOOTH",
"518 412 OFFCURVE",
"476 466 OFFCURVE",
"407 466 CURVE SMOOTH",
"348 466 OFFCURVE",
"255 410 OFFCURVE",
"184 236 CURVE"
);
}
);
width = 525;
}
);
note = k;
unicode = 006B;
},
{
color = 4;
glyphname = l;
lastChange = "2016-07-20 22:14:31 +0000";
layers = (
{
background = {
paths = (
{
closed = 1;
nodes = (
"669 154 LINE",
"807 339 OFFCURVE",
"934 601 OFFCURVE",
"934 768 CURVE SMOOTH",
"934 881 OFFCURVE",
"894 940 OFFCURVE",
"832 940 CURVE SMOOTH",
"650 940 OFFCURVE",
"560 530 OFFCURVE",
"560 292 CURVE SMOOTH",
"560 126 OFFCURVE",
"609 -5 OFFCURVE",
"733 -5 CURVE SMOOTH",
"829 -5 OFFCURVE",
"897 58 OFFCURVE",
"941 120 CURVE SMOOTH",
"990 189 OFFCURVE",
"946 267 OFFCURVE",
"905 209 CURVE SMOOTH",
"864 152 OFFCURVE",
"814 105 OFFCURVE",
"754 105 CURVE SMOOTH",
"703 105 OFFCURVE",
"685 151 OFFCURVE",
"685 293 CURVE SMOOTH",
"685 552 OFFCURVE",
"761 842 OFFCURVE",
"809 842 CURVE SMOOTH",
"824 842 OFFCURVE",
"837 818 OFFCURVE",
"837 765 CURVE SMOOTH",
"837 616 OFFCURVE",
"754 423 OFFCURVE",
"652 268 CURVE"
);
},
{
closed = 1;
nodes = (
"171 466 OFFCURVE",
"78 410 OFFCURVE",
"7 236 CURVE",
"13 294 OFFCURVE",
"25 338 OFFCURVE",
"33 370 CURVE SMOOTH",
"41 400 OFFCURVE",
"45 422 OFFCURVE",
"45 432 CURVE SMOOTH",
"45 450 OFFCURVE",
"37 466 OFFCURVE",
"-4 466 CURVE SMOOTH",
"-50 466 OFFCURVE",
"-68 448 OFFCURVE",
"-80 410 CURVE SMOOTH",
"-106 328 OFFCURVE",
"-117 243 OFFCURVE",
"-117 163 CURVE SMOOTH",
"-117 49 OFFCURVE",
"-100 -5 OFFCURVE",
"-46 -5 CURVE SMOOTH",
"-3 -5 OFFCURVE",
"13 12 OFFCURVE",
"28 75 CURVE SMOOTH",
"59 204 OFFCURVE",
"124 311 OFFCURVE",
"147 311 CURVE SMOOTH",
"153 311 OFFCURVE",
"157 306 OFFCURVE",
"157 295 CURVE SMOOTH",
"157 252 OFFCURVE",
"130 160 OFFCURVE",
"130 110 CURVE SMOOTH",
"130 37 OFFCURVE",
"164 -5 OFFCURVE",
"246 -5 CURVE SMOOTH",
"329 -5 OFFCURVE",
"398 60 OFFCURVE",
"441 120 CURVE SMOOTH",
"490 189 OFFCURVE",
"449 262 OFFCURVE",
"405 209 CURVE SMOOTH",
"349 142 OFFCURVE",
"313 105 OFFCURVE",
"284 105 CURVE SMOOTH",
"267 105 OFFCURVE",
"256 118 OFFCURVE",
"256 145 CURVE SMOOTH",
"256 200 OFFCURVE",
"297 332 OFFCURVE",
"297 401 CURVE SMOOTH",
"297 443 OFFCURVE",
"276 466 OFFCURVE",
"231 466 CURVE SMOOTH"
);
}
);
};
layerId = "ECEFE970-1BBB-4E0A-A452-CEB55884B4A3";
paths = (
{
closed = 1;
nodes = (
"169 154 LINE",
"307 339 OFFCURVE",
"434 601 OFFCURVE",
"434 768 CURVE SMOOTH",
"434 881 OFFCURVE",
"394 940 OFFCURVE",
"332 940 CURVE SMOOTH",
"150 940 OFFCURVE",
"60 530 OFFCURVE",
"60 292 CURVE SMOOTH",
"60 126 OFFCURVE",
"109 -5 OFFCURVE",
"233 -5 CURVE SMOOTH",
"329 -5 OFFCURVE",
"397 58 OFFCURVE",
"441 120 CURVE SMOOTH",
"490 189 OFFCURVE",
"449 262 OFFCURVE",
"405 209 CURVE SMOOTH",
"349 142 OFFCURVE",
"313 105 OFFCURVE",
"254 105 CURVE SMOOTH",
"203 105 OFFCURVE",
"185 151 OFFCURVE",
"185 293 CURVE SMOOTH",
"185 552 OFFCURVE",
"261 842 OFFCURVE",
"309 842 CURVE SMOOTH",
"324 842 OFFCURVE",
"337 818 OFFCURVE",
"337 765 CURVE SMOOTH",
"337 616 OFFCURVE",
"254 423 OFFCURVE",
"152 268 CURVE"
);
}
);
width = 326;
}
);
note = l;
unicode = 006C;
},
